<svg width="69" height="70" viewBox="0 0 69 70" fill="none" xmlns="http://www.w3.org/2000/svg">
<path d="M55.62 69.03H13.38C6.28 69.03 0.470001 63.22 0.470001 56.12V13.88C0.470001 6.77997 6.28 0.969971 13.38 0.969971H55.62C62.72 0.969971 68.53 6.77997 68.53 13.88V56.12C68.53 63.22 62.72 69.03 55.62 69.03Z" fill="#DBF0FF"/>
<path d="M24.51 20.78C24.27 20.6 23.94 20.65 23.76 20.88L13.21 34.65C13.15 34.73 13.12 34.83 13.11 34.93C13.11 34.95 13.11 34.98 13.11 35C13.11 35.02 13.11 35.05 13.11 35.07C13.12 35.17 13.15 35.26 13.21 35.35L23.76 49.12C23.87 49.26 24.03 49.33 24.19 49.33C24.3 49.33 24.42 49.29 24.52 49.22C24.76 49.04 24.8 48.7 24.62 48.47L14.29 35L24.61 21.53C24.79 21.3 24.75 20.96 24.51 20.78Z" fill="#0024BD"/>
<path d="M56.89 34.93C56.88 34.83 56.85 34.74 56.79 34.65L46.24 20.88C46.06 20.65 45.72 20.6 45.49 20.78C45.25 20.96 45.21 21.3 45.39 21.53L55.71 35L45.39 48.47C45.21 48.71 45.25 49.04 45.49 49.22C45.59 49.29 45.7 49.33 45.82 49.33C45.98 49.33 46.14 49.26 46.25 49.12L56.8 35.35C56.86 35.27 56.89 35.17 56.9 35.07C56.9 35.05 56.9 35.02 56.9 35C56.9 34.98 56.9 34.95 56.89 34.93Z" fill="#0024BD"/>
</svg>
