<svg width="69" height="70" viewBox="0 0 69 70" fill="none" xmlns="http://www.w3.org/2000/svg">
<path d="M55.62 69.03H13.38C6.28 69.03 0.470001 63.22 0.470001 56.12V13.88C0.470001 6.77997 6.28 0.969971 13.38 0.969971H55.62C62.72 0.969971 68.53 6.77997 68.53 13.88V56.12C68.53 63.22 62.72 69.03 55.62 69.03Z" fill="#DBF0FF"/>
<path d="M60.12 22.7599H45.44C45.17 19.3699 42.32 16.6899 38.86 16.6899H30.15C26.69 16.6899 23.85 19.3699 23.57 22.7599H8.88C8.03 22.7599 7.34 23.4499 7.34 24.2999V51.5999C7.34 52.4499 8.03 53.1399 8.88 53.1399H60.12C60.97 53.1399 61.66 52.4499 61.66 51.5999V24.2999C61.66 23.4499 60.97 22.7599 60.12 22.7599ZM30.14 17.7599H38.85C41.72 17.7599 44.08 19.9599 44.35 22.7499H24.64C24.91 19.9599 27.27 17.7599 30.14 17.7599ZM45.46 23.8299H60.12C60.22 23.8299 60.31 23.8699 60.38 23.9199L55.38 33.1099C54.6 34.5499 53.1 35.4399 51.46 35.4399H36.58V33.7199C36.58 32.8699 35.89 32.1799 35.04 32.1799H33.95C33.1 32.1799 32.41 32.8699 32.41 33.7199V35.4399H17.89C16.25 35.4399 14.75 34.5499 13.97 33.1099L8.92 23.8299H23.54H45.46ZM35.51 36.5199V38.2399C35.51 38.4899 35.3 38.6999 35.05 38.6999H33.96C33.71 38.6999 33.5 38.4899 33.5 38.2399V36.5199V35.4499V33.7299C33.5 33.4799 33.71 33.2699 33.96 33.2699H35.05C35.31 33.2699 35.51 33.4799 35.51 33.7299V35.4499V36.5199ZM60.12 52.0599H8.88C8.63 52.0599 8.42 51.8499 8.42 51.5999V25.1499L13.03 33.6199C14 35.3999 15.86 36.5099 17.9 36.5099H32.43V38.2299C32.43 39.0799 33.12 39.7699 33.97 39.7699H35.06C35.91 39.7699 36.6 39.0799 36.6 38.2299V36.5099H51.48C53.51 36.5099 55.38 35.3999 56.35 33.6199L60.6 25.7999V51.5899C60.58 51.8499 60.38 52.0599 60.12 52.0599Z" fill="#0024BD"/>
</svg>
