<svg xmlns="http://www.w3.org/2000/svg" xmlns:xlink="http://www.w3.org/1999/xlink" viewBox="0 0 524.58 456.4"><defs><linearGradient id="linear-gradient" x1="521.07" y1="305.83" x2="328.07" y2="140.31" gradientUnits="userSpaceOnUse"><stop offset="0" stop-color="#fff"/><stop offset="1" stop-color="#dceffe"/></linearGradient><linearGradient id="linear-gradient-2" x1="328.77" y1="215.6" x2="502.96" y2="215.6" xlink:href="#linear-gradient"/><linearGradient id="linear-gradient-3" x1="328.77" y1="154.06" x2="374.61" y2="154.06" xlink:href="#linear-gradient"/><linearGradient id="linear-gradient-4" x1="379.84" y1="183.55" x2="425.68" y2="183.55" xlink:href="#linear-gradient"/><linearGradient id="linear-gradient-5" x1="431.87" y1="220.87" x2="502.96" y2="220.87" xlink:href="#linear-gradient"/><linearGradient id="linear-gradient-6" x1="328.77" y1="240.1" x2="502.96" y2="240.1" xlink:href="#linear-gradient"/><linearGradient id="linear-gradient-7" x1="224.12" y1="234.85" x2="94.42" y2="105.15" gradientUnits="userSpaceOnUse"><stop offset="0" stop-color="#ebf0f7" stop-opacity="0"/><stop offset="0.21" stop-color="#e5ebf2" stop-opacity="0.02"/><stop offset="0.42" stop-color="#d4dbe3" stop-opacity="0.1"/><stop offset="0.63" stop-color="#b7c1ca" stop-opacity="0.22"/><stop offset="0.84" stop-color="#8e9da7" stop-opacity="0.39"/><stop offset="0.85" stop-color="#8c9ba5" stop-opacity="0.4"/></linearGradient><linearGradient id="linear-gradient-8" x1="206.56" y1="252.4" x2="76.87" y2="122.71" xlink:href="#linear-gradient-7"/><linearGradient id="linear-gradient-9" x1="200.78" y1="258.19" x2="71.07" y2="128.49" xlink:href="#linear-gradient-7"/><linearGradient id="linear-gradient-10" x1="175.2" y1="283.76" x2="45.5" y2="154.07" xlink:href="#linear-gradient-7"/><linearGradient id="linear-gradient-11" x1="170" y1="288.96" x2="40.31" y2="159.27" xlink:href="#linear-gradient-7"/><linearGradient id="linear-gradient-12" x1="189.92" y1="269.05" x2="60.22" y2="139.35" xlink:href="#linear-gradient-7"/><linearGradient id="linear-gradient-13" x1="184.72" y1="274.25" x2="55.02" y2="144.56" xlink:href="#linear-gradient-7"/><linearGradient id="linear-gradient-14" x1="99.48" y1="359.48" x2="-30.21" y2="229.79" xlink:href="#linear-gradient-7"/><linearGradient id="linear-gradient-15" x1="107.82" y1="351.15" x2="-21.88" y2="221.45" xlink:href="#linear-gradient-7"/><linearGradient id="linear-gradient-16" x1="102.7" y1="356.26" x2="-26.99" y2="226.57" xlink:href="#linear-gradient-7"/><linearGradient id="linear-gradient-17" x1="108.49" y1="350.48" x2="-21.21" y2="220.78" xlink:href="#linear-gradient-7"/><linearGradient id="linear-gradient-18" x1="113.69" y1="345.28" x2="-16.01" y2="215.58" xlink:href="#linear-gradient-7"/><linearGradient id="linear-gradient-19" x1="118.96" y1="340.01" x2="-10.74" y2="210.31" xlink:href="#linear-gradient-7"/><linearGradient id="linear-gradient-20" x1="124.16" y1="334.81" x2="-5.54" y2="205.12" xlink:href="#linear-gradient-7"/><linearGradient id="linear-gradient-21" x1="126.41" y1="332.56" x2="-3.29" y2="202.86" xlink:href="#linear-gradient-7"/><linearGradient id="linear-gradient-22" x1="138.89" y1="320.07" x2="9.2" y2="190.38" xlink:href="#linear-gradient-7"/><linearGradient id="linear-gradient-23" x1="111.72" y1="347.25" x2="-17.98" y2="217.56" xlink:href="#linear-gradient-7"/><linearGradient id="linear-gradient-24" x1="250.45" y1="208.52" x2="120.75" y2="78.83" xlink:href="#linear-gradient-7"/><linearGradient id="linear-gradient-25" x1="243.78" y1="215.19" x2="114.09" y2="85.49" xlink:href="#linear-gradient-7"/><linearGradient id="linear-gradient-26" x1="238.74" y1="220.23" x2="109.04" y2="90.53" xlink:href="#linear-gradient-7"/><linearGradient id="linear-gradient-27" x1="179.48" y1="279.48" x2="49.79" y2="149.79" xlink:href="#linear-gradient-7"/><linearGradient id="linear-gradient-28" x1="144.02" y1="314.95" x2="14.33" y2="185.25" xlink:href="#linear-gradient-7"/><linearGradient id="linear-gradient-29" x1="124.45" y1="334.52" x2="-5.25" y2="204.82" xlink:href="#linear-gradient-7"/><linearGradient id="linear-gradient-30" x1="128.14" y1="330.83" x2="-1.56" y2="201.14" xlink:href="#linear-gradient-7"/><linearGradient id="linear-gradient-31" x1="133.03" y1="325.93" x2="3.34" y2="196.24" xlink:href="#linear-gradient-7"/><linearGradient id="linear-gradient-32" x1="205.03" y1="253.93" x2="75.34" y2="124.24" xlink:href="#linear-gradient-7"/><linearGradient id="linear-gradient-33" x1="201.35" y1="257.62" x2="71.65" y2="127.93" xlink:href="#linear-gradient-7"/><linearGradient id="linear-gradient-34" x1="196.45" y1="262.52" x2="66.76" y2="132.82" xlink:href="#linear-gradient-7"/><linearGradient id="linear-gradient-35" x1="199.16" y1="259.81" x2="69.46" y2="130.11" xlink:href="#linear-gradient-7"/><linearGradient id="linear-gradient-36" x1="190.74" y1="268.23" x2="61.05" y2="138.53" xlink:href="#linear-gradient-7"/><linearGradient id="linear-gradient-37" x1="187.74" y1="271.22" x2="58.05" y2="141.53" xlink:href="#linear-gradient-7"/><linearGradient id="linear-gradient-38" x1="155.37" y1="303.6" x2="25.67" y2="173.9" xlink:href="#linear-gradient-7"/><linearGradient id="linear-gradient-39" x1="150.17" y1="308.8" x2="20.47" y2="179.1" xlink:href="#linear-gradient-7"/><linearGradient id="linear-gradient-40" x1="146.95" y1="312.02" x2="17.26" y2="182.32" xlink:href="#linear-gradient-7"/><linearGradient id="linear-gradient-41" x1="168.29" y1="290.68" x2="38.59" y2="160.98" xlink:href="#linear-gradient-7"/><linearGradient id="linear-gradient-42" x1="172.85" y1="286.12" x2="43.15" y2="156.43" xlink:href="#linear-gradient-7"/><linearGradient id="linear-gradient-43" x1="177.86" y1="281.1" x2="48.17" y2="151.41" xlink:href="#linear-gradient-7"/><linearGradient id="linear-gradient-44" x1="143.26" y1="315.7" x2="13.57" y2="186.01" xlink:href="#linear-gradient-7"/><linearGradient id="linear-gradient-45" x1="135.92" y1="323.05" x2="6.22" y2="193.35" xlink:href="#linear-gradient-7"/><linearGradient id="linear-gradient-46" x1="132.23" y1="326.74" x2="2.54" y2="197.04" xlink:href="#linear-gradient-7"/><linearGradient id="linear-gradient-47" x1="165.07" y1="293.9" x2="35.37" y2="164.21" xlink:href="#linear-gradient-7"/><linearGradient id="linear-gradient-48" x1="162.07" y1="296.9" x2="32.37" y2="167.2" xlink:href="#linear-gradient-7"/><linearGradient id="linear-gradient-49" x1="227" y1="231.96" x2="97.31" y2="102.27" xlink:href="#linear-gradient-7"/><linearGradient id="linear-gradient-50" x1="356.47" y1="240.45" x2="566.49" y2="467.97" gradientUnits="userSpaceOnUse"><stop offset="0.19" stop-color="#fff" stop-opacity="0"/><stop offset="0.48" stop-color="#f0f8ff" stop-opacity="0.44"/><stop offset="0.83" stop-color="#dceffe"/></linearGradient><linearGradient id="linear-gradient-51" x1="439.18" y1="478.76" x2="348.16" y2="338.98" gradientUnits="userSpaceOnUse"><stop offset="0.15" stop-color="#8c9ba5" stop-opacity="0.4"/><stop offset="0.16" stop-color="#8e9da7" stop-opacity="0.39"/><stop offset="0.37" stop-color="#b7c1ca" stop-opacity="0.22"/><stop offset="0.58" stop-color="#d4dbe3" stop-opacity="0.1"/><stop offset="0.79" stop-color="#e5ebf2" stop-opacity="0.02"/><stop offset="1" stop-color="#ebf0f7" stop-opacity="0"/></linearGradient><linearGradient id="linear-gradient-52" x1="163.07" y1="129.21" x2="69.2" y2="-14.95" xlink:href="#linear-gradient-7"/><linearGradient id="linear-gradient-53" x1="246.66" y1="345.8" x2="240.21" y2="190.5" gradientUnits="userSpaceOnUse"><stop offset="0" stop-color="#1348e4"/><stop offset="1" stop-color="#170087"/></linearGradient><linearGradient id="linear-gradient-54" x1="3714.83" y1="198.05" x2="3759.37" y2="198.05" gradientTransform="matrix(-1, 0, 0, 1, 4001.06, 0)" xlink:href="#linear-gradient-53"/><linearGradient id="linear-gradient-55" x1="3715.46" y1="224.61" x2="3754.63" y2="187.4" gradientTransform="matrix(-0.83, -0.55, -0.55, 0.83, 3489.35, 2099.5)" xlink:href="#linear-gradient"/><linearGradient id="linear-gradient-56" x1="3710.25" y1="110.08" x2="3767.89" y2="110.08" gradientTransform="matrix(-1, 0, 0, 1, 4001.06, 0)" xlink:href="#linear-gradient-53"/><linearGradient id="linear-gradient-57" x1="3711.07" y1="144.46" x2="3761.76" y2="96.3" gradientTransform="matrix(-0.83, -0.55, -0.55, 0.83, 3440.61, 2086.7)" xlink:href="#linear-gradient"/><linearGradient id="linear-gradient-58" x1="3761.11" y1="142.93" x2="3805.66" y2="142.93" gradientTransform="matrix(-1, 0, 0, 1, 4001.06, 0)" xlink:href="#linear-gradient-53"/><linearGradient id="linear-gradient-59" x1="3765.04" y1="143.29" x2="3791.67" y2="145.56" gradientTransform="matrix(-0.83, -0.55, -0.55, 0.83, 3451.2, 2115.9)" xlink:href="#linear-gradient"/><linearGradient id="linear-gradient-60" x1="85.47" y1="440.29" x2="314.85" y2="705.58" gradientTransform="translate(0 -354.17)" xlink:href="#linear-gradient"/><linearGradient id="linear-gradient-61" x1="364.23" y1="612.07" x2="102.66" y2="462.42" gradientTransform="translate(0 -354.17)" gradientUnits="userSpaceOnUse"><stop offset="0" stop-color="#6dc7f7"/><stop offset="0.15" stop-color="#65bcf5"/><stop offset="0.41" stop-color="#509ef1"/><stop offset="0.76" stop-color="#2e6eea"/><stop offset="1" stop-color="#1348e4"/></linearGradient><linearGradient id="linear-gradient-62" x1="149.34" y1="194.08" x2="130.54" y2="252.87" gradientTransform="matrix(1, 0.58, 0, 1, 0, -136.3)" gradientUnits="userSpaceOnUse"><stop offset="0" stop-color="#1348e4"/><stop offset="0.87" stop-color="#61b6f5"/><stop offset="1" stop-color="#6dc7f7"/></linearGradient><linearGradient id="linear-gradient-63" x1="158.25" y1="196.92" x2="139.45" y2="255.72" xlink:href="#linear-gradient-62"/><linearGradient id="linear-gradient-64" x1="168.6" y1="200.23" x2="149.81" y2="259.03" xlink:href="#linear-gradient-62"/><linearGradient id="linear-gradient-65" x1="151.32" y1="194.71" x2="132.52" y2="253.51" xlink:href="#linear-gradient-62"/><linearGradient id="linear-gradient-66" x1="131.21" y1="188.28" x2="112.41" y2="247.08" xlink:href="#linear-gradient-62"/><linearGradient id="linear-gradient-67" x1="99.9" y1="300.97" x2="101.52" y2="281.54" gradientTransform="matrix(1, 0.58, 0, 1, 0, -136.3)" gradientUnits="userSpaceOnUse"><stop offset="0" stop-color="#1348e4"/><stop offset="1" stop-color="#11d6cc"/></linearGradient><linearGradient id="linear-gradient-68" x1="133.94" y1="303.8" x2="135.56" y2="284.37" xlink:href="#linear-gradient-67"/><linearGradient id="linear-gradient-69" x1="198.89" y1="310.34" x2="180.77" y2="261.18" xlink:href="#linear-gradient-67"/><linearGradient id="linear-gradient-70" x1="328.42" y1="215.33" x2="343.36" y2="269.79" xlink:href="#linear-gradient-62"/><linearGradient id="linear-gradient-71" x1="321.46" y1="217.24" x2="336.4" y2="271.7" xlink:href="#linear-gradient-62"/><linearGradient id="linear-gradient-72" x1="352.77" y1="208.65" x2="367.71" y2="263.11" xlink:href="#linear-gradient-62"/><linearGradient id="linear-gradient-73" x1="311.32" y1="220.02" x2="326.26" y2="274.48" xlink:href="#linear-gradient-62"/><linearGradient id="linear-gradient-74" x1="309.09" y1="220.64" x2="324.03" y2="275.1" xlink:href="#linear-gradient-62"/><linearGradient id="linear-gradient-75" x1="326.81" y1="215.77" x2="341.75" y2="270.23" xlink:href="#linear-gradient-62"/><linearGradient id="linear-gradient-76" x1="339.03" y1="212.42" x2="353.97" y2="266.88" xlink:href="#linear-gradient-62"/><linearGradient id="linear-gradient-77" x1="349.82" y1="209.46" x2="364.76" y2="263.92" xlink:href="#linear-gradient-62"/><linearGradient id="linear-gradient-78" x1="312.06" y1="268.67" x2="331.49" y2="346.79" gradientTransform="matrix(1, 0.58, 0, 1, 0, -136.3)" gradientUnits="userSpaceOnUse"><stop offset="0" stop-color="#bf1738"/><stop offset="0.77" stop-color="#4a125e"/></linearGradient><linearGradient id="linear-gradient-79" x1="344.59" y1="260.58" x2="364.02" y2="338.7" xlink:href="#linear-gradient-78"/><linearGradient id="linear-gradient-80" x1="295.43" y1="302.66" x2="272.35" y2="197.49" xlink:href="#linear-gradient-78"/><linearGradient id="linear-gradient-81" x1="216.86" y1="500.87" x2="243.21" y2="500.87" gradientTransform="matrix(0.8, 0.6, -0.6, 0.8, 351.3, -288.26)" xlink:href="#linear-gradient"/><linearGradient id="linear-gradient-82" x1="206.54" y1="534.52" x2="253.53" y2="534.52" gradientTransform="translate(6.93 -251.9) rotate(0.33)" xlink:href="#linear-gradient"/><linearGradient id="linear-gradient-85" x1="245.61" y1="530.29" x2="238.76" y2="538.95" gradientTransform="translate(0 -256.9)" xlink:href="#linear-gradient"/><linearGradient id="linear-gradient-86" x1="210.41" y1="540.88" x2="257.24" y2="540.88" gradientTransform="translate(0 -256.9)" xlink:href="#linear-gradient-62"/><linearGradient id="linear-gradient-87" x1="246.66" y1="493.93" x2="238.36" y2="502.76" gradientTransform="translate(0 -256.9)" gradientUnits="userSpaceOnUse"><stop offset="0.47" stop-color="#fff"/><stop offset="1" stop-color="#dceffe"/></linearGradient><linearGradient id="linear-gradient-88" x1="220.93" y1="507.2" x2="247.19" y2="507.2" gradientTransform="translate(348.73 -296.41) rotate(36.62)" xlink:href="#linear-gradient-62"/><linearGradient id="linear-gradient-89" x1="-2.65" y1="202.25" x2="145.9" y2="311.63" gradientUnits="userSpaceOnUse"><stop offset="0" stop-color="#fff"/><stop offset="0.45" stop-color="#f0f8ff" stop-opacity="0.56"/><stop offset="1" stop-color="#dceffe" stop-opacity="0"/></linearGradient><linearGradient id="linear-gradient-90" x1="138.71" y1="299.66" x2="52.73" y2="244.29" xlink:href="#linear-gradient"/><linearGradient id="linear-gradient-91" x1="9.76" y1="227.98" x2="27.35" y2="227.98" gradientTransform="matrix(1, 0, 0, 1, 0, 0)" xlink:href="#linear-gradient-61"/><linearGradient id="linear-gradient-92" x1="92.65" y1="81.97" x2="181.14" y2="81.97" gradientUnits="userSpaceOnUse"><stop offset="0.65" stop-color="#bf1738"/><stop offset="1" stop-color="#4a125e"/><stop offset="1" stop-color="#4a125e"/></linearGradient><linearGradient id="linear-gradient-93" x1="92.65" y1="59.62" x2="162.95" y2="59.62" gradientUnits="userSpaceOnUse"><stop offset="0" stop-color="#4a125e"/><stop offset="0" stop-color="#143dd5"/><stop offset="1" stop-color="#0fd5cc"/></linearGradient></defs><g id="Layer_3" data-name="Layer 3"><path d="M504,304.16,327.77,202.43c-2.89-1.66-5.25-5.39-5.25-8.28V129.27c0-2.89,2.36-3.89,5.25-2.22L504,228.78c2.89,1.66,5.25,5.39,5.25,8.28v64.88C509.21,304.83,506.85,305.83,504,304.16Z" style="fill:url(#linear-gradient)"/><path d="M497.71,276.13,334,181.62c-2.89-1.66-5.25-5.39-5.25-8.28v-16c0-2.89,2.36-3.89,5.25-2.22l163.69,94.51c2.89,1.66,5.25,5.39,5.25,8.28v16C503,276.8,500.6,277.8,497.71,276.13Z" style="fill:url(#linear-gradient-2)"/><path d="M372.11,171.1l-40.84-23.58a5.19,5.19,0,0,1-2.5-3.94v-5.51c0-1.37,1.12-1.85,2.5-1l40.84,23.57a5.23,5.23,0,0,1,2.5,3.95V170C374.61,171.42,373.48,171.89,372.11,171.1Z" style="fill:url(#linear-gradient-3)"/><path d="M423.18,200.58,382.34,177a5.23,5.23,0,0,1-2.5-3.95v-5.5c0-1.37,1.13-1.85,2.5-1.05l40.84,23.57a5.2,5.2,0,0,1,2.5,3.95v5.5C425.68,200.9,424.56,201.38,423.18,200.58Z" style="fill:url(#linear-gradient-4)"/><path d="M500.46,245.2,434.37,207a5.19,5.19,0,0,1-2.5-3.94v-5.5c0-1.38,1.12-1.85,2.5-1.06l66.09,38.16a5.19,5.19,0,0,1,2.5,3.94v5.51C503,245.52,501.84,246,500.46,245.2Z" style="fill:url(#linear-gradient-5)"/><path d="M500,293.9,331.77,196.8a6.24,6.24,0,0,1-3-4.73v-4.51c0-1.65,1.35-2.22,3-1.26L500,283.4a6.24,6.24,0,0,1,3,4.73v4.51C503,294.29,501.61,294.86,500,293.9Z" style="fill:url(#linear-gradient-6)"/><polygon points="63.73 74.05 63.73 74.05 109.06 100.22 110 100.77 110 100.77 110 94.3 95.31 85.81 95.31 85.82 89.62 82.53 89.62 82.52 84.6 79.62 84.6 79.63 78.91 76.34 78.91 76.33 69.79 71.06 69.79 71.08 54.32 62.14 43.43 55.85 43.43 55.85 0.19 30.88 0.19 37.35 53.37 68.06 63.73 74.05" style="fill:url(#linear-gradient-7)"/><polygon points="34.66 86.83 49.34 95.32 49.34 88.85 34.66 80.36 34.66 86.83" style="fill:url(#linear-gradient-8)"/><polygon points="28.97 77.08 0.19 60.44 0.19 66.91 28.97 83.55 28.97 77.08" style="fill:url(#linear-gradient-9)"/><polygon points="82.69 181.94 53.91 165.31 53.91 171.78 82.69 188.41 82.69 181.94" style="fill:url(#linear-gradient-10)"/><polygon points="48.22 162.02 39.1 156.75 39.1 163.22 48.22 168.49 48.22 162.02" style="fill:url(#linear-gradient-11)"/><polygon points="82.51 152.34 53.73 135.7 53.73 142.17 82.51 158.81 82.51 152.34" style="fill:url(#linear-gradient-12)"/><polygon points="48.04 132.41 38.92 127.15 38.92 133.62 48.04 138.88 48.04 132.41" style="fill:url(#linear-gradient-13)"/><polygon points="0 274.67 54.21 306.01 54.21 299.53 0 268.2 0 274.67" style="fill:url(#linear-gradient-14)"/><polygon points="59.9 309.3 73.31 317.05 73.31 310.58 59.9 302.82 59.9 309.3" style="fill:url(#linear-gradient-15)"/><polygon points="14.69 261.91 0 253.42 0 259.89 14.69 268.38 14.69 261.91" style="fill:url(#linear-gradient-16)"/><polygon points="20.38 271.67 49.15 288.3 49.15 281.83 20.38 265.2 20.38 271.67" style="fill:url(#linear-gradient-17)"/><polygon points="63.96 290.39 54.84 285.12 54.84 291.59 63.96 296.86 63.96 290.39" style="fill:url(#linear-gradient-18)"/><polygon points="69.91 300.27 98.69 316.9 98.69 310.43 69.91 293.8 69.91 300.27" style="fill:url(#linear-gradient-19)"/><polygon points="104.38 320.19 113.49 325.46 113.49 318.99 104.38 313.72 104.38 320.19" style="fill:url(#linear-gradient-20)"/><polygon points="104.74 299.16 99.05 295.87 99.05 295.86 84.36 287.37 84.36 287.38 35.74 259.3 35.74 265.77 63.16 281.61 63.16 281.62 77.85 290.11 77.85 290.1 133.51 322.25 133.51 315.78 104.74 299.15 104.74 299.16" style="fill:url(#linear-gradient-21)"/><polygon points="139.2 325.54 148.32 330.81 148.32 324.34 139.2 319.07 139.2 325.54" style="fill:url(#linear-gradient-22)"/><polygon points="30.05 256.01 0 238.64 0 245.11 30.05 262.48 30.05 256.01" style="fill:url(#linear-gradient-23)"/><polygon points="194.6 143.1 164.55 125.73 164.55 132.2 194.6 149.57 194.6 143.1" style="fill:url(#linear-gradient-24)"/><polygon points="158.86 122.44 137.13 109.88 137.13 116.35 158.86 128.91 158.86 122.44" style="fill:url(#linear-gradient-25)"/><polygon points="131.43 106.59 116.75 98.1 116.75 104.57 131.43 113.06 131.43 106.59" style="fill:url(#linear-gradient-26)"/><polygon points="68.36 165.42 68.36 158.95 39.1 142.04 39.1 148.51 58.21 159.56 58.21 159.56 68.36 165.42" style="fill:url(#linear-gradient-27)"/><polygon points="265.56 377.19 250.88 368.7 250.88 368.71 245.19 365.42 245.19 365.41 223.45 352.85 223.45 352.87 217.76 349.58 217.76 349.56 187.71 332.19 187.71 332.23 154.17 312.86 106.86 285.52 106.86 285.54 0.19 223.95 0.19 230.42 35.93 251.06 35.93 251.07 57.66 263.63 57.66 263.6 63.35 266.89 63.35 266.93 78.04 275.41 78.04 275.37 84.36 279.02 84.36 279.05 99.05 287.54 99.05 287.5 154.16 319.33 161.07 323.32 161.07 323.32 166.76 326.6 166.76 326.61 180.17 334.36 180.17 334.35 265.56 383.66 265.56 377.19" style="fill:url(#linear-gradient-28)"/><polygon points="10.34 215.03 0.19 209.16 0.19 215.64 10.34 221.5 10.34 215.03" style="fill:url(#linear-gradient-29)"/><polygon points="16.03 224.79 29.44 232.54 29.44 226.07 16.03 218.32 16.03 224.79" style="fill:url(#linear-gradient-30)"/><polygon points="35.14 235.83 56.75 248.32 56.75 241.85 35.14 229.36 35.14 235.83" style="fill:url(#linear-gradient-31)"/><polygon points="64.52 112.33 64.52 118.8 74.67 124.66 74.67 118.19 64.52 112.33" style="fill:url(#linear-gradient-32)"/><polygon points="45.41 107.75 58.83 115.5 58.83 109.03 45.41 101.28 45.41 107.75" style="fill:url(#linear-gradient-33)"/><polygon points="39.72 97.99 18.11 85.5 18.11 91.97 39.72 104.47 39.72 97.99" style="fill:url(#linear-gradient-34)"/><polygon points="47.13 123.52 103.91 155.28 103.91 148.81 47.13 117.05 47.13 123.52" style="fill:url(#linear-gradient-35)"/><polygon points="41.44 113.76 32.32 108.49 32.32 114.97 41.44 120.23 41.44 113.76" style="fill:url(#linear-gradient-36)"/><polygon points="27.23 105.55 18.11 100.28 18.11 106.75 27.23 112.02 27.23 105.55" style="fill:url(#linear-gradient-37)"/><polygon points="61.51 200.44 32.74 183.81 32.74 190.28 61.51 206.91 61.51 200.44" style="fill:url(#linear-gradient-38)"/><polygon points="17.93 181.72 27.05 186.99 27.05 180.52 17.93 175.25 17.93 181.72" style="fill:url(#linear-gradient-39)"/><polygon points="37.22 201.19 37.22 207.66 47.37 213.52 47.37 207.05 37.22 201.19" style="fill:url(#linear-gradient-40)"/><polygon points="78.19 201.67 78.19 195.2 68.04 189.34 68.04 195.81 78.19 201.67" style="fill:url(#linear-gradient-41)"/><polygon points="106.86 211.75 82.51 197.69 82.51 204.16 106.86 218.23 106.86 211.75" style="fill:url(#linear-gradient-42)"/><polygon points="111.18 220.71 125.66 229.09 125.66 222.61 111.18 214.24 111.18 220.71" style="fill:url(#linear-gradient-43)"/><polygon points="31.52 197.9 18.11 190.14 18.11 196.61 31.52 204.37 31.52 197.9" style="fill:url(#linear-gradient-44)"/><polygon points="29.44 211.2 19.3 205.33 19.3 211.8 29.44 217.67 29.44 211.2" style="fill:url(#linear-gradient-45)"/><polygon points="13.6 202.04 0.19 194.29 0.19 200.76 13.6 208.51 13.6 202.04" style="fill:url(#linear-gradient-46)"/><polygon points="62.43 186.1 53.31 180.84 53.31 187.31 62.43 192.57 62.43 186.1" style="fill:url(#linear-gradient-47)"/><polygon points="48.22 177.89 39.1 172.62 39.1 179.09 48.22 184.36 48.22 177.89" style="fill:url(#linear-gradient-48)"/><polygon points="27.62 67.9 36.74 73.17 36.74 73.17 41.83 76.11 41.83 76.11 47.19 79.21 56.64 84.67 56.64 84.67 85.77 101.51 85.77 101.5 91.46 104.79 91.46 104.8 122.55 122.76 122.55 122.76 207.08 171.62 207.08 171.62 207.08 165.15 177.03 147.78 177.03 147.78 171.34 144.49 171.34 144.49 149.6 131.93 149.6 131.93 143.91 128.64 143.91 128.64 129.23 120.15 129.23 120.15 0.19 45.57 0.19 52.04 27.62 67.9 27.62 67.9" style="fill:url(#linear-gradient-49)"/><path d="M519.44,431.2l-161-93.63c-2.84-1.64-5.14-5.27-5.14-8.11V230.54c0-2.84,2.3-3.82,5.14-2.18l161,93.64c2.84,1.64,5.14,5.27,5.14,8.11V429C524.58,431.87,522.28,432.84,519.44,431.2Z" style="fill:url(#linear-gradient-50)"/><line x1="369.62" y1="325.86" x2="362.2" y2="323.53" style="fill:none;stroke:#6dc7f7;stroke-linecap:round;stroke-miterlimit:10;stroke-width:2px"/><line x1="377.04" y1="332.31" x2="369.62" y2="325.86" style="fill:none;stroke:#6dc7f7;stroke-linecap:round;stroke-miterlimit:10;stroke-width:2px"/><line x1="384.46" y1="334.42" x2="377.04" y2="332.31" style="fill:none;stroke:#6dc7f7;stroke-linecap:round;stroke-miterlimit:10;stroke-width:2px"/><line x1="391.88" y1="304.47" x2="384.46" y2="334.42" style="fill:none;stroke:#6dc7f7;stroke-linecap:round;stroke-miterlimit:10;stroke-width:2px"/><line x1="399.3" y1="338.1" x2="391.88" y2="304.47" style="fill:none;stroke:#6dc7f7;stroke-linecap:round;stroke-miterlimit:10;stroke-width:2px"/><line x1="406.72" y1="349.34" x2="399.3" y2="338.1" style="fill:none;stroke:#6dc7f7;stroke-linecap:round;stroke-miterlimit:10;stroke-width:2px"/><line x1="414.14" y1="353.51" x2="406.72" y2="349.34" style="fill:none;stroke:#6dc7f7;stroke-linecap:round;stroke-miterlimit:10;stroke-width:2px"/><line x1="421.56" y1="290.08" x2="414.14" y2="353.51" style="fill:none;stroke:#6dc7f7;stroke-linecap:round;stroke-miterlimit:10;stroke-width:2px"/><line x1="428.98" y1="362.19" x2="421.56" y2="290.08" style="fill:none;stroke:#6dc7f7;stroke-linecap:round;stroke-miterlimit:10;stroke-width:2px"/><line x1="436.4" y1="366.58" x2="428.98" y2="362.19" style="fill:none;stroke:#6dc7f7;stroke-linecap:round;stroke-miterlimit:10;stroke-width:2px"/><line x1="443.82" y1="342.82" x2="436.4" y2="366.58" style="fill:none;stroke:#6dc7f7;stroke-linecap:round;stroke-miterlimit:10;stroke-width:2px"/><line x1="451.23" y1="348.41" x2="443.82" y2="342.82" style="fill:none;stroke:#6dc7f7;stroke-linecap:round;stroke-miterlimit:10;stroke-width:2px"/><line x1="458.65" y1="302.93" x2="451.23" y2="348.41" style="fill:none;stroke:#6dc7f7;stroke-linecap:round;stroke-miterlimit:10;stroke-width:2px"/><line x1="466.07" y1="384.37" x2="458.65" y2="302.93" style="fill:none;stroke:#6dc7f7;stroke-linecap:round;stroke-miterlimit:10;stroke-width:2px"/><line x1="473.49" y1="388" x2="466.07" y2="384.37" style="fill:none;stroke:#6dc7f7;stroke-linecap:round;stroke-miterlimit:10;stroke-width:2px"/><line x1="480.91" y1="384.79" x2="473.49" y2="388" style="fill:none;stroke:#6dc7f7;stroke-linecap:round;stroke-miterlimit:10;stroke-width:2px"/><line x1="488.33" y1="340.48" x2="480.91" y2="384.79" style="fill:none;stroke:#6dc7f7;stroke-linecap:round;stroke-miterlimit:10;stroke-width:2px"/><line x1="495.75" y1="399.11" x2="488.33" y2="340.48" style="fill:none;stroke:#6dc7f7;stroke-linecap:round;stroke-miterlimit:10;stroke-width:2px"/><line x1="503.17" y1="370.57" x2="495.75" y2="399.11" style="fill:none;stroke:#6dc7f7;stroke-linecap:round;stroke-miterlimit:10;stroke-width:2px"/><line x1="510.59" y1="352.25" x2="503.17" y2="370.57" style="fill:none;stroke:#6dc7f7;stroke-linecap:round;stroke-miterlimit:10;stroke-width:2px"/><line x1="369.62" y1="327.49" x2="362.2" y2="324.18" style="fill:none;stroke:#1348e4;stroke-linecap:round;stroke-miterlimit:10;stroke-width:2px"/><line x1="377.04" y1="332.75" x2="369.62" y2="327.49" style="fill:none;stroke:#1348e4;stroke-linecap:round;stroke-miterlimit:10;stroke-width:2px"/><line x1="384.46" y1="323.99" x2="377.04" y2="332.75" style="fill:none;stroke:#1348e4;stroke-linecap:round;stroke-miterlimit:10;stroke-width:2px"/><line x1="391.88" y1="340.34" x2="384.46" y2="323.99" style="fill:none;stroke:#1348e4;stroke-linecap:round;stroke-miterlimit:10;stroke-width:2px"/><line x1="399.3" y1="313.32" x2="391.88" y2="340.34" style="fill:none;stroke:#1348e4;stroke-linecap:round;stroke-miterlimit:10;stroke-width:2px"/><line x1="406.72" y1="343.58" x2="399.3" y2="313.32" style="fill:none;stroke:#1348e4;stroke-linecap:round;stroke-miterlimit:10;stroke-width:2px"/><line x1="414.14" y1="353.84" x2="406.72" y2="343.58" style="fill:none;stroke:#1348e4;stroke-linecap:round;stroke-miterlimit:10;stroke-width:2px"/><line x1="421.56" y1="358.67" x2="414.14" y2="353.84" style="fill:none;stroke:#1348e4;stroke-linecap:round;stroke-miterlimit:10;stroke-width:2px"/><line x1="428.98" y1="349.69" x2="421.56" y2="358.67" style="fill:none;stroke:#1348e4;stroke-linecap:round;stroke-miterlimit:10;stroke-width:2px"/><line x1="436.4" y1="366.69" x2="428.98" y2="349.69" style="fill:none;stroke:#1348e4;stroke-linecap:round;stroke-miterlimit:10;stroke-width:2px"/><line x1="443.82" y1="371.52" x2="436.4" y2="366.69" style="fill:none;stroke:#1348e4;stroke-linecap:round;stroke-miterlimit:10;stroke-width:2px"/><line x1="451.23" y1="354.17" x2="443.82" y2="371.52" style="fill:none;stroke:#1348e4;stroke-linecap:round;stroke-miterlimit:10;stroke-width:2px"/><line x1="458.65" y1="334.33" x2="451.23" y2="354.17" style="fill:none;stroke:#1348e4;stroke-linecap:round;stroke-miterlimit:10;stroke-width:2px"/><line x1="466.07" y1="377.41" x2="458.65" y2="334.33" style="fill:none;stroke:#1348e4;stroke-linecap:round;stroke-miterlimit:10;stroke-width:2px"/><line x1="473.49" y1="363.22" x2="466.07" y2="377.41" style="fill:none;stroke:#1348e4;stroke-linecap:round;stroke-miterlimit:10;stroke-width:2px"/><line x1="480.91" y1="392.94" x2="473.49" y2="363.22" style="fill:none;stroke:#1348e4;stroke-linecap:round;stroke-miterlimit:10;stroke-width:2px"/><line x1="488.33" y1="390.59" x2="480.91" y2="392.94" style="fill:none;stroke:#1348e4;stroke-linecap:round;stroke-miterlimit:10;stroke-width:2px"/><line x1="495.75" y1="372.7" x2="488.33" y2="390.59" style="fill:none;stroke:#1348e4;stroke-linecap:round;stroke-miterlimit:10;stroke-width:2px"/><line x1="503.17" y1="405.24" x2="495.75" y2="372.7" style="fill:none;stroke:#1348e4;stroke-linecap:round;stroke-miterlimit:10;stroke-width:2px"/><polygon points="361.43 322.31 362.97 323.2 362.97 324.75 361.43 323.86 361.43 322.31" style="fill:#6dc7f7"/><polygon points="368.85 324.64 370.39 325.53 370.39 327.07 368.85 326.18 368.85 324.64" style="fill:#6dc7f7"/><polygon points="376.27 331.1 377.81 331.99 377.81 333.53 376.27 332.64 376.27 331.1" style="fill:#6dc7f7"/><polygon points="383.69 333.21 385.23 334.1 385.23 335.64 383.69 334.75 383.69 333.21" style="fill:#6dc7f7"/><polygon points="391.11 303.25 392.65 304.14 392.65 305.69 391.11 304.8 391.11 303.25" style="fill:#6dc7f7"/><polygon points="398.53 336.88 400.07 337.77 400.07 339.32 398.53 338.43 398.53 336.88" style="fill:#6dc7f7"/><polygon points="405.95 348.12 407.49 349.01 407.49 350.56 405.95 349.67 405.95 348.12" style="fill:#6dc7f7"/><polygon points="413.37 352.3 414.91 353.19 414.91 354.73 413.37 353.84 413.37 352.3" style="fill:#6dc7f7"/><polygon points="420.79 288.87 422.33 289.76 422.33 291.3 420.79 290.41 420.79 288.87" style="fill:#6dc7f7"/><polygon points="428.2 360.98 429.75 361.87 429.75 363.41 428.2 362.52 428.2 360.98" style="fill:#6dc7f7"/><polygon points="435.63 365.37 437.17 366.26 437.17 367.8 435.63 366.91 435.63 365.37" style="fill:#6dc7f7"/><polygon points="443.04 341.61 444.59 342.5 444.59 344.04 443.04 343.15 443.04 341.61" style="fill:#6dc7f7"/><polygon points="450.46 347.2 452.01 348.09 452.01 349.63 450.46 348.74 450.46 347.2" style="fill:#6dc7f7"/><polygon points="457.88 301.71 459.43 302.6 459.43 304.14 457.88 303.25 457.88 301.71" style="fill:#6dc7f7"/><polygon points="465.3 383.15 466.85 384.04 466.85 385.59 465.3 384.7 465.3 383.15" style="fill:#6dc7f7"/><polygon points="472.72 386.79 474.26 387.68 474.26 389.22 472.72 388.33 472.72 386.79" style="fill:#6dc7f7"/><polygon points="480.14 383.57 481.68 384.46 481.68 386 480.14 385.11 480.14 383.57" style="fill:#6dc7f7"/><polygon points="487.56 339.27 489.1 340.16 489.1 341.7 487.56 340.81 487.56 339.27" style="fill:#6dc7f7"/><polygon points="494.98 397.9 496.52 398.79 496.52 400.33 494.98 399.44 494.98 397.9" style="fill:#6dc7f7"/><polygon points="502.4 369.36 503.94 370.25 503.94 371.79 502.4 370.9 502.4 369.36" style="fill:#6dc7f7"/><polygon points="509.82 351.03 511.36 351.92 511.36 353.46 509.82 352.57 509.82 351.03" style="fill:#6dc7f7"/><polygon points="361.43 322.96 362.97 323.86 362.97 325.4 361.43 324.51 361.43 322.96" style="fill:#1348e4"/><polygon points="368.85 326.27 370.39 327.16 370.39 328.7 368.85 327.81 368.85 326.27" style="fill:#1348e4"/><polygon points="376.27 331.53 377.81 332.42 377.81 333.96 376.27 333.07 376.27 331.53" style="fill:#1348e4"/><polygon points="383.69 322.77 385.23 323.66 385.23 325.2 383.69 324.31 383.69 322.77" style="fill:#1348e4"/><polygon points="391.11 339.12 392.65 340.01 392.65 341.55 391.11 340.66 391.11 339.12" style="fill:#1348e4"/><polygon points="398.53 312.1 400.07 312.99 400.07 314.53 398.53 313.64 398.53 312.1" style="fill:#1348e4"/><polygon points="405.95 342.36 407.49 343.25 407.49 344.8 405.95 343.9 405.95 342.36" style="fill:#1348e4"/><polygon points="413.37 352.63 414.91 353.51 414.91 355.06 413.37 354.17 413.37 352.63" style="fill:#1348e4"/><polygon points="420.79 357.45 422.33 358.34 422.33 359.88 420.79 358.99 420.79 357.45" style="fill:#1348e4"/><polygon points="428.2 348.48 429.75 349.37 429.75 350.91 428.2 350.02 428.2 348.48" style="fill:#1348e4"/><polygon points="435.63 365.48 437.17 366.37 437.17 367.91 435.63 367.02 435.63 365.48" style="fill:#1348e4"/><polygon points="443.04 370.3 444.59 371.19 444.59 372.74 443.04 371.85 443.04 370.3" style="fill:#1348e4"/><polygon points="450.46 352.96 452.01 353.85 452.01 355.39 450.46 354.5 450.46 352.96" style="fill:#1348e4"/><polygon points="457.88 333.11 459.43 334 459.43 335.54 457.88 334.65 457.88 333.11" style="fill:#1348e4"/><polygon points="465.3 376.2 466.85 377.09 466.85 378.63 465.3 377.74 465.3 376.2" style="fill:#1348e4"/><polygon points="472.72 362 474.26 362.89 474.26 364.44 472.72 363.55 472.72 362" style="fill:#1348e4"/><polygon points="480.14 391.72 481.68 392.61 481.68 394.15 480.14 393.26 480.14 391.72" style="fill:#1348e4"/><polygon points="487.56 389.38 489.1 390.26 489.1 391.81 487.56 390.92 487.56 389.38" style="fill:#1348e4"/><polygon points="494.98 371.49 496.52 372.38 496.52 373.92 494.98 373.03 494.98 371.49" style="fill:#1348e4"/><polygon points="502.4 404.03 503.94 404.92 503.94 406.46 502.4 405.57 502.4 404.03" style="fill:#1348e4"/><path d="M421.84,456l-61.46-35.49a5.35,5.35,0,0,1-2.59-4.08V355c0-1.42,1.16-1.91,2.59-1.09l61.46,35.48a5.4,5.4,0,0,1,2.59,4.08V454.9C424.43,456.33,423.26,456.82,421.84,456Z" style="fill:url(#linear-gradient-51)"/><path d="M145.19,105.74l-63.4-36.6a5.57,5.57,0,0,1-2.66-4.21V1.54c0-1.47,1.2-2,2.66-1.13L145.19,37a5.55,5.55,0,0,1,2.67,4.21v63.39C147.86,106.08,146.66,106.59,145.19,105.74Z" style="fill:url(#linear-gradient-52)"/><path d="M403.16,264,82.19,78.69A2.18,2.18,0,0,0,80,78.5h0l-7.31,3.76L78.8,95.12V224.56A8.12,8.12,0,0,0,82.19,231L398,420.32l7.33-3.75h0l.12-.07h0a3.05,3.05,0,0,0,1.11-2.7V270.49A8.16,8.16,0,0,0,403.16,264Z" style="fill:url(#linear-gradient-53)"/><path d="M262.23,172.79c12.27,6,23,22.06,23.93,35.8.48,6.88-1.59,11.87-5.31,14.39h0L277,225.6l.41-1.11c-3.28.78-7.28.2-11.69-2-12.26-6-23-22.07-23.93-35.8-.33-4.72.54-8.55,2.32-11.31l-1-.4,4-2.66,0,0,.16-.11h0C250.92,169.83,256.2,169.82,262.23,172.79Z" style="fill:url(#linear-gradient-54)"/><ellipse cx="260.01" cy="200.31" rx="17.52" ry="30.45" transform="translate(-67.38 176.93) rotate(-33.52)" style="fill:url(#linear-gradient-55)"/><path d="M259.75,77.4c15.87,7.81,29.74,28.55,31,46.32.62,8.9-2.05,15.37-6.87,18.63h0l-5,3.39.53-1.44c-4.24,1-9.42.27-15.13-2.54-15.87-7.81-29.73-28.55-31-46.32-.42-6.11.7-11.07,3-14.64l-1.31-.51,5.12-3.45.07,0,.2-.14h0C245.12,73.57,252,73.56,259.75,77.4Z" style="fill:url(#linear-gradient-56)"/><ellipse cx="256.88" cy="113.01" rx="22.67" ry="39.4" transform="translate(-19.68 160.67) rotate(-33.52)" style="fill:url(#linear-gradient-57)"/><path d="M215.94,117.68c12.27,6,23,22.06,23.93,35.79.48,6.88-1.58,11.88-5.3,14.4h0l-3.9,2.62.41-1.11c-3.28.78-7.28.2-11.69-2-12.26-6-23-22.06-23.93-35.79-.32-4.72.54-8.56,2.32-11.31l-1-.4,4-2.66.05,0,.16-.1h0C204.63,114.71,209.91,114.71,215.94,117.68Z" style="fill:url(#linear-gradient-58)"/><ellipse cx="213.72" cy="145.19" rx="17.52" ry="30.45" transform="translate(-44.64 142.19) rotate(-33.53)" style="fill:url(#linear-gradient-59)"/><path d="M82.34,94.44c0,1.14-.8,1.6-1.8,1a4,4,0,0,1-1.79-3.1c0-1.15.8-1.61,1.79-1A3.94,3.94,0,0,1,82.34,94.44Z" style="fill:#fff"/><ellipse cx="86.28" cy="96.71" rx="1.46" ry="2.54" transform="translate(-36.8 56.1) rotate(-30)" style="fill:#fff"/><path d="M93.82,101.06c0,1.15-.81,1.61-1.8,1A4,4,0,0,1,90.23,99c0-1.14.8-1.61,1.79-1A4,4,0,0,1,93.82,101.06Z" style="fill:#fff"/><path d="M396,420,75,234.73a8.14,8.14,0,0,1-3.39-6.49V98.81L399.37,288V417.47C399.37,420,397.85,421.12,396,420Z" style="fill:url(#linear-gradient-60)"/><path d="M75,82.38,396,267.69a8.1,8.1,0,0,1,3.4,6.48V288L71.61,98.81V84.94C71.61,82.44,73.13,81.29,75,82.38Z" style="fill:url(#linear-gradient-61)"/><path d="M81.15,95.12c0,1.14-.8,1.61-1.79,1a4,4,0,0,1-1.79-3.11c0-1.14.8-1.61,1.79-1A4,4,0,0,1,81.15,95.12Z" style="fill:#dceffe"/><path d="M86.89,98.43c0,1.15-.8,1.61-1.79,1a4,4,0,0,1-1.8-3.11c0-1.14.81-1.6,1.8-1A4,4,0,0,1,86.89,98.43Z" style="fill:#dceffe"/><path d="M92.63,101.75c0,1.14-.8,1.6-1.79,1a4,4,0,0,1-1.8-3.1c0-1.15.81-1.61,1.8-1A4,4,0,0,1,92.63,101.75Z" style="fill:#dceffe"/><polygon points="107.55 170.96 159.94 201.21 159.94 196.6 107.55 166.35 107.55 170.96" style="fill:url(#linear-gradient-62)"/><polygon points="132.78 176.77 159.94 192.45 159.94 187.84 132.78 172.16 132.78 176.77" style="fill:url(#linear-gradient-63)"/><polygon points="143.73 201.67 159.94 211.03 159.94 206.42 143.73 197.06 143.73 201.67" style="fill:url(#linear-gradient-64)"/><polygon points="124.67 190.67 140.89 200.03 140.89 195.42 124.67 186.06 124.67 190.67" style="fill:url(#linear-gradient-65)"/><polygon points="102.98 159.56 130.14 175.24 130.14 170.63 102.98 154.95 102.98 159.56" style="fill:url(#linear-gradient-66)"/><path d="M106.78,214.3a8.55,8.55,0,0,0-1-1.92,12.71,12.71,0,0,0-1.52-1.83,20.32,20.32,0,0,0-1.92-1.74l-.46-.37,0-3.88a5.43,5.43,0,0,1,.95,1,3.69,3.69,0,0,1,.81,1.93l3.24,1.87a6.93,6.93,0,0,0-.77-3,11.21,11.21,0,0,0-2.07-2.89A13.73,13.73,0,0,0,102,201.7v-1.82l-1.84-1.06,0,1.81a7.47,7.47,0,0,0-2.25-.74,2.77,2.77,0,0,0-2.16.45,2.51,2.51,0,0,0-.77,2.09,6.07,6.07,0,0,0,1.16,3.49,16.29,16.29,0,0,0,3.19,3.37l.75.62,0,4.11a7.07,7.07,0,0,1-.65-.56,5.87,5.87,0,0,1-1.1-1.44,3.87,3.87,0,0,1-.46-1.61l-3.27-1.88a7.77,7.77,0,0,0,.84,3.37,11.14,11.14,0,0,0,2.23,3,15.77,15.77,0,0,0,2.38,1.93l0,1.8,1.84,1.06,0-1.79a8.6,8.6,0,0,0,2.48.87,2.52,2.52,0,0,0,2.12-.43,2.7,2.7,0,0,0,.74-2.11A5.68,5.68,0,0,0,106.78,214.3Zm-6.84-7.51a9.35,9.35,0,0,1-.82-.87,4.29,4.29,0,0,1-.55-.86,1.93,1.93,0,0,1-.18-.86.9.9,0,0,1,.3-.75,1.09,1.09,0,0,1,.87-.13,3.33,3.33,0,0,1,.53.15l0,3.43S100,206.83,99.94,206.79Zm3.44,8.33a1.28,1.28,0,0,1-1,.12,3.53,3.53,0,0,1-.57-.16l0-3.62c.23.2.45.41.64.6a5.85,5.85,0,0,1,.92,1.15,2.2,2.2,0,0,1,.32,1.09A.92.92,0,0,1,103.38,215.12Z" style="fill:url(#linear-gradient-67)"/><polygon points="159.94 251.81 110.69 223.37 110.69 206.55 159.94 234.99 159.94 251.81" style="fill:url(#linear-gradient-68)"/><polygon points="196.87 232.59 181.21 196.43 165.55 214.51 175.97 220.53 175.97 263.1 186.44 269.14 186.44 226.57 196.87 232.59" style="fill:url(#linear-gradient-69)"/><polygon points="362.84 320.8 310.45 290.55 310.45 285.94 362.84 316.19 362.84 320.8" style="fill:url(#linear-gradient-70)"/><polygon points="341.72 297.4 310.45 279.34 310.45 274.73 341.72 292.79 341.72 297.4" style="fill:url(#linear-gradient-71)"/><polygon points="375.39 316.83 344.11 298.78 344.11 294.17 375.39 312.22 375.39 316.83" style="fill:url(#linear-gradient-72)"/><polygon points="337.61 327.27 310.45 311.59 310.45 306.98 337.61 322.66 337.61 327.27" style="fill:url(#linear-gradient-73)"/><polygon points="326.66 309.74 310.45 300.38 310.45 295.76 326.66 305.13 326.66 309.74" style="fill:url(#linear-gradient-74)"/><polygon points="345.71 320.74 329.5 311.38 329.5 306.76 345.71 316.13 345.71 320.74" style="fill:url(#linear-gradient-75)"/><polygon points="367.4 344.47 340.25 328.79 340.25 324.18 367.4 339.86 367.4 344.47" style="fill:url(#linear-gradient-76)"/><polygon points="375.39 337.87 349.3 322.81 349.3 318.2 375.39 333.26 375.39 337.87" style="fill:url(#linear-gradient-77)"/><path d="M322.72,339a8.77,8.77,0,0,0-1-1.92,13.9,13.9,0,0,0-1.52-1.83,20.25,20.25,0,0,0-1.92-1.73l-.46-.38,0-3.88a5.91,5.91,0,0,1,1,1,3.73,3.73,0,0,1,.8,1.93l3.24,1.86a6.93,6.93,0,0,0-.77-2.95,11.21,11.21,0,0,0-2.07-2.89,14.31,14.31,0,0,0-2.13-1.79v-1.82l-1.84-1.06,0,1.81a7.42,7.42,0,0,0-2.25-.73,2.73,2.73,0,0,0-2.16.44,2.52,2.52,0,0,0-.77,2.09,6.07,6.07,0,0,0,1.16,3.49,16.32,16.32,0,0,0,3.19,3.38l.75.62,0,4.1a7.07,7.07,0,0,1-.65-.56,5.52,5.52,0,0,1-1.1-1.44,3.87,3.87,0,0,1-.46-1.6l-3.27-1.89a7.77,7.77,0,0,0,.84,3.37,11,11,0,0,0,2.23,3.05,15.77,15.77,0,0,0,2.38,1.93l0,1.8,1.85,1.07v-1.8a8.41,8.41,0,0,0,2.48.87,2.48,2.48,0,0,0,2.12-.43,2.69,2.69,0,0,0,.74-2.11A5.68,5.68,0,0,0,322.72,339Zm-6.84-7.51a8,8,0,0,1-.81-.86,3.81,3.81,0,0,1-.55-.87,1.82,1.82,0,0,1-.19-.86.87.87,0,0,1,.3-.74,1.08,1.08,0,0,1,.87-.14,3.44,3.44,0,0,1,.53.16l0,3.42A1.31,1.31,0,0,1,315.88,331.46Zm3.44,8.33a1.27,1.27,0,0,1-1,.13,3.62,3.62,0,0,1-.57-.17l0-3.62c.23.21.45.41.64.6a5.61,5.61,0,0,1,.92,1.16,2.14,2.14,0,0,1,.32,1.08A.91.91,0,0,1,319.32,339.79Z" style="fill:url(#linear-gradient-78)"/><polygon points="375.88 376.48 326.63 348.05 326.63 331.22 375.88 359.66 375.88 376.48" style="fill:url(#linear-gradient-79)"/><polygon points="273.52 295.78 289.18 331.94 304.84 313.86 294.41 307.84 294.41 265.27 283.94 259.23 283.94 301.8 273.52 295.78" style="fill:url(#linear-gradient-80)"/><ellipse cx="234.06" cy="250.29" rx="9.91" ry="17.52" transform="translate(-103.1 189.01) rotate(-36.62)" style="fill:url(#linear-gradient-81)"/><path d="M234,267.23c-12.93-7.57-23.47-3.18-23.55,9.79l46.83,27.4C257.32,291.45,246.9,274.79,234,267.23Z" style="fill:url(#linear-gradient-82)"/><ellipse cx="234.06" cy="250.29" rx="9.91" ry="17.52" transform="translate(-103.1 189.01) rotate(-36.62)" style="fill:url(#linear-gradient-81)"/><path d="M234,267.23c-12.93-7.57-23.47-3.18-23.55,9.79l46.83,27.4C257.32,291.45,246.9,274.79,234,267.23Z" style="fill:url(#linear-gradient-82)"/><path d="M260,301.72c.07-13-10.35-29.63-23.28-37.19-6.62-3.88-12.62-4.62-16.9-2.68h0a10.56,10.56,0,0,0-2.07,1.25h0a9.82,9.82,0,0,0-.9.81h0l-2.25,2.25.41.23a16.65,16.65,0,0,0-1.8,7.9l35.73,20.9,8.37,9.2Z" style="fill:url(#linear-gradient-85)"/><path d="M234,267.23c-12.93-7.57-23.47-3.18-23.55,9.79l46.83,27.4C257.32,291.45,246.9,274.79,234,267.23Z" style="fill:url(#linear-gradient-86)"/><path d="M248.11,260.86a8.33,8.33,0,0,0,1.82-5.58c0-7.28-5.81-16.62-13.06-20.86-4-2.35-7.6-2.64-10-1.21h0l0,0a5.16,5.16,0,0,0-1,.75l0,0-2.39,2.4.73.35a10.51,10.51,0,0,0-.48,3.17c0,7.28,5.81,16.62,13.06,20.86,3,1.75,5.74,2.35,8,2l.4,1.14,2.53-2.52c.16-.14.31-.29.46-.45l0,0Z" style="fill:url(#linear-gradient-87)"/><ellipse cx="234.06" cy="250.29" rx="9.91" ry="17.52" transform="translate(-103.1 189.01) rotate(-36.62)" style="fill:url(#linear-gradient-88)"/><path d="M139.07,309.33,8.4,233.88c-2.89-1.66-5.25-5.39-5.25-8.28V209.88c0-2.89,2.36-3.89,5.25-2.22l130.67,75.45c2.89,1.66,5.26,5.39,5.26,8.28v15.72C144.33,310,142,311,139.07,309.33Z" style="fill:url(#linear-gradient-89)"/><path d="M133.13,298,34.61,241.16a4.16,4.16,0,0,1-2-3.16v-6.5c0-1.11.9-1.48,2-.85l98.52,56.89a4.12,4.12,0,0,1,2,3.15v6.5C135.13,298.3,134.24,298.68,133.13,298Z" style="fill:url(#linear-gradient-90)"/><path d="M27,238.2l-3.46-5.45A4.44,4.44,0,0,0,25,229.14c0-4.2-3.4-9.57-7.6-12s-7.6-1-7.6,3.21,3.4,9.57,7.6,12a7.09,7.09,0,0,0,4.43,1.12l3.46,5.45a2.67,2.67,0,0,0,.87.87,1,1,0,0,0,.87.14C27.47,239.73,27.47,239,27,238.2ZM12.44,221.91c0-2.72,2.2-3.65,4.92-2.08s4.92,5,4.92,7.76-2.2,3.65-4.92,2.09S12.44,224.63,12.44,221.91Z" style="fill:url(#linear-gradient-91)"/><path d="M95.65,70.07c0-22.78,18.47-30.59,41.24-17.43s41.25,42.27,41.25,65.05" style="fill:none;stroke-linecap:round;stroke-linejoin:round;stroke-width:6px;stroke:url(#linear-gradient-92)"/><path d="M95.65,70.07c0-22.78,18.47-30.59,41.24-17.43A84,84,0,0,1,160,73" style="fill:none;stroke-linecap:round;stroke-linejoin:round;stroke-width:6px;stroke:url(#linear-gradient-93)"/></g></svg>