<svg xmlns="http://www.w3.org/2000/svg" xmlns:xlink="http://www.w3.org/1999/xlink" viewBox="0 0 659.18 646.26"><defs><linearGradient id="linear-gradient" x1="1172.57" y1="224.03" x2="1266.92" y2="380.38" gradientTransform="matrix(-1, 0, 0, 1, 1586.3, 0)" gradientUnits="userSpaceOnUse"><stop offset="0" stop-color="#fff"/><stop offset="1" stop-color="#dceffe"/></linearGradient><linearGradient id="linear-gradient-2" x1="1098.16" y1="316" x2="1371.1" y2="316" gradientTransform="matrix(-1, 0, 0, 1, 1586.3, 0)" gradientUnits="userSpaceOnUse"><stop offset="0" stop-color="#1348e4"/><stop offset="0.87" stop-color="#61b6f5"/><stop offset="1" stop-color="#6dc7f7"/></linearGradient><linearGradient id="linear-gradient-3" x1="1308.52" y1="406.16" x2="1339.24" y2="507.1" xlink:href="#linear-gradient"/><linearGradient id="linear-gradient-4" x1="1569.71" y1="583.58" x2="1354.66" y2="507.88" xlink:href="#linear-gradient-2"/><linearGradient id="linear-gradient-5" x1="233.76" y1="197.01" x2="408.45" y2="399.05" gradientTransform="matrix(1, 0, 0, 1, 0, 0)" xlink:href="#linear-gradient"/><linearGradient id="linear-gradient-6" x1="434.49" y1="288.14" x2="260.36" y2="188.52" gradientUnits="userSpaceOnUse"><stop offset="0" stop-color="#6dc7f7"/><stop offset="0.15" stop-color="#65bcf5"/><stop offset="0.41" stop-color="#509ef1"/><stop offset="0.76" stop-color="#2e6eea"/><stop offset="1" stop-color="#1348e4"/></linearGradient><linearGradient id="linear-gradient-7" x1="429.18" y1="355.8" x2="392.15" y2="371.25" gradientTransform="matrix(1, 0, 0, 1, 0, 0)" xlink:href="#linear-gradient-2"/><clipPath id="clip-path"><polygon points="416.99 310.76 373.39 285.5 373.39 406.92 416.99 431.95 416.99 310.76" style="fill:none"/></clipPath><linearGradient id="linear-gradient-8" x1="426.54" y1="358.29" x2="385.61" y2="368.53" gradientTransform="translate(765.03 -37.1) rotate(89.9)" xlink:href="#linear-gradient"/><linearGradient id="linear-gradient-9" x1="-1035.73" y1="790.61" x2="-929.92" y2="790.61" gradientTransform="translate(1178.6 1347.48) rotate(90)" xlink:href="#linear-gradient-2"/><linearGradient id="linear-gradient-10" x1="431.6" y1="361.7" x2="396.07" y2="364.3" gradientUnits="userSpaceOnUse"><stop offset="0" stop-color="#1348e4"/><stop offset="0.5" stop-color="#3f86ed" stop-opacity="0.51"/><stop offset="1" stop-color="#6dc7f7" stop-opacity="0"/></linearGradient><linearGradient id="linear-gradient-11" x1="470.23" y1="314.49" x2="621.46" y2="314.49" gradientTransform="translate(9.85 -10.3) rotate(1.13)" gradientUnits="userSpaceOnUse"><stop offset="0" stop-color="#0024bd"/><stop offset="1" stop-color="#6dc7f7"/><stop offset="1" stop-color="#6dc7f7"/></linearGradient><linearGradient id="linear-gradient-12" x1="470.23" y1="315.45" x2="618.19" y2="315.45" gradientTransform="translate(9.85 -10.3) rotate(1.13)" xlink:href="#linear-gradient"/><linearGradient id="linear-gradient-13" x1="536.63" y1="344.87" x2="619.41" y2="278.13" gradientTransform="translate(9.85 -10.3) rotate(1.13)" gradientUnits="userSpaceOnUse"><stop offset="0" stop-color="#1348e4"/><stop offset="0.68" stop-color="#11d6cc"/></linearGradient><linearGradient id="linear-gradient-14" x1="390.25" y1="112.31" x2="552.11" y2="312.52" gradientTransform="translate(9.85 -10.3) rotate(1.13)" gradientUnits="userSpaceOnUse"><stop offset="0" stop-color="#dceffe"/><stop offset="0" stop-color="#dceffe"/><stop offset="1" stop-color="#6dc7f7"/></linearGradient><linearGradient id="linear-gradient-15" x1="390.25" y1="136.81" x2="552.11" y2="337.03" xlink:href="#linear-gradient-14"/><linearGradient id="linear-gradient-16" x1="404.02" y1="143.69" x2="565.88" y2="343.91" xlink:href="#linear-gradient-14"/><linearGradient id="linear-gradient-17" x1="418.57" y1="150.98" x2="580.43" y2="351.19" xlink:href="#linear-gradient-14"/><linearGradient id="linear-gradient-18" x1="433.13" y1="158.26" x2="594.99" y2="358.47" xlink:href="#linear-gradient-14"/><linearGradient id="linear-gradient-19" x1="390.25" y1="149.06" x2="552.11" y2="349.28" xlink:href="#linear-gradient-14"/><linearGradient id="linear-gradient-20" x1="404.02" y1="155.95" x2="565.88" y2="356.16" xlink:href="#linear-gradient-14"/><linearGradient id="linear-gradient-21" x1="412.32" y1="172.35" x2="574.18" y2="372.57" xlink:href="#linear-gradient-14"/><linearGradient id="linear-gradient-22" x1="356.78" y1="117.52" x2="579.24" y2="392.69" xlink:href="#linear-gradient-14"/><linearGradient id="linear-gradient-23" x1="390.25" y1="173.56" x2="552.11" y2="373.78" xlink:href="#linear-gradient-14"/><linearGradient id="linear-gradient-24" x1="406.08" y1="181.48" x2="567.94" y2="381.69" xlink:href="#linear-gradient-14"/><linearGradient id="linear-gradient-25" x1="421.9" y1="189.4" x2="583.76" y2="389.61" xlink:href="#linear-gradient-14"/><linearGradient id="linear-gradient-26" x1="437.73" y1="197.31" x2="599.59" y2="397.53" xlink:href="#linear-gradient-14"/><linearGradient id="linear-gradient-27" x1="390.25" y1="185.82" x2="552.11" y2="386.03" xlink:href="#linear-gradient-14"/><linearGradient id="linear-gradient-28" x1="406.08" y1="193.73" x2="567.94" y2="393.95" xlink:href="#linear-gradient-14"/><linearGradient id="linear-gradient-29" x1="421.9" y1="201.65" x2="583.76" y2="401.86" xlink:href="#linear-gradient-14"/><linearGradient id="linear-gradient-30" x1="302.91" y1="83.79" x2="622.89" y2="479.6" xlink:href="#linear-gradient-14"/><linearGradient id="linear-gradient-31" x1="334.56" y1="99.63" x2="654.54" y2="495.43" xlink:href="#linear-gradient-14"/><linearGradient id="linear-gradient-32" x1="366.22" y1="115.45" x2="686.19" y2="511.26" xlink:href="#linear-gradient-14"/><linearGradient id="linear-gradient-33" x1="501.18" y1="262.01" x2="644.08" y2="438.77" xlink:href="#linear-gradient-14"/><linearGradient id="linear-gradient-34" x1="390.25" y1="210.32" x2="552.11" y2="410.54" xlink:href="#linear-gradient-14"/><linearGradient id="linear-gradient-35" x1="406.08" y1="218.23" x2="567.94" y2="418.45" xlink:href="#linear-gradient-14"/><linearGradient id="linear-gradient-36" x1="421.9" y1="226.15" x2="583.76" y2="426.37" xlink:href="#linear-gradient-14"/><linearGradient id="linear-gradient-37" x1="437.73" y1="234.06" x2="599.59" y2="434.28" xlink:href="#linear-gradient-14"/><linearGradient id="linear-gradient-38" x1="481.78" y1="457.61" x2="659.25" y2="457.61" gradientTransform="translate(-25.91 27.88) rotate(-2.11)" xlink:href="#linear-gradient"/><linearGradient id="linear-gradient-39" x1="483.71" y1="457.12" x2="659.25" y2="457.12" gradientTransform="translate(-25.91 27.88) rotate(-2.11)" xlink:href="#linear-gradient-11"/><linearGradient id="linear-gradient-40" x1="474.6" y1="458.84" x2="666.43" y2="458.84" gradientTransform="translate(-25.91 27.88) rotate(-2.11)" gradientUnits="userSpaceOnUse"><stop offset="0" stop-color="#4a125e"/><stop offset="0" stop-color="#4a125e"/><stop offset="1" stop-color="#bf1738"/></linearGradient><linearGradient id="linear-gradient-41" x1="43.31" y1="242.14" x2="224.95" y2="242.14" gradientTransform="matrix(1, 0.04, -0.04, 1, 12.67, -11.58)" xlink:href="#linear-gradient-11"/><linearGradient id="linear-gradient-42" x1="43.26" y1="242.85" x2="222.93" y2="242.85" gradientTransform="matrix(1, 0.04, -0.04, 1, 12.67, -11.58)" xlink:href="#linear-gradient"/><linearGradient id="linear-gradient-43" x1="37.8" y1="251.92" x2="64.96" y2="201.47" gradientTransform="matrix(1, 0.04, -0.04, 1, 12.67, -11.58)" gradientUnits="userSpaceOnUse"><stop offset="0" stop-color="#170087"/><stop offset="0.77" stop-color="#1348e4"/></linearGradient><linearGradient id="linear-gradient-44" x1="40.35" y1="296.86" x2="86.4" y2="168.3" gradientTransform="matrix(1, 0.04, -0.04, 1, 12.67, -11.58)" xlink:href="#linear-gradient-13"/><linearGradient id="linear-gradient-45" x1="61.97" y1="264.94" x2="89.14" y2="214.48" xlink:href="#linear-gradient-43"/><linearGradient id="linear-gradient-46" x1="63.99" y1="305.33" x2="110.04" y2="176.77" gradientTransform="matrix(1, 0.04, -0.04, 1, 12.67, -11.58)" xlink:href="#linear-gradient-13"/><linearGradient id="linear-gradient-47" x1="83.26" y1="312.23" x2="129.31" y2="183.67" gradientTransform="matrix(1, 0.04, -0.04, 1, 12.67, -11.58)" xlink:href="#linear-gradient-13"/><linearGradient id="linear-gradient-48" x1="98.51" y1="284.61" x2="125.68" y2="234.16" xlink:href="#linear-gradient-43"/><linearGradient id="linear-gradient-49" x1="106.54" y1="320.57" x2="152.59" y2="192.01" gradientTransform="matrix(1, 0.04, -0.04, 1, 12.67, -11.58)" xlink:href="#linear-gradient-13"/><linearGradient id="linear-gradient-50" x1="124.26" y1="298.48" x2="151.43" y2="248.03" xlink:href="#linear-gradient-43"/><linearGradient id="linear-gradient-51" x1="133.47" y1="303.44" x2="160.64" y2="252.98" xlink:href="#linear-gradient-43"/><linearGradient id="linear-gradient-52" x1="140.31" y1="332.67" x2="186.36" y2="204.11" gradientTransform="matrix(1, 0.04, -0.04, 1, 12.67, -11.58)" xlink:href="#linear-gradient-13"/><linearGradient id="linear-gradient-53" x1="157.89" y1="338.97" x2="203.95" y2="210.41" gradientTransform="matrix(1, 0.04, -0.04, 1, 12.67, -11.58)" xlink:href="#linear-gradient-13"/><linearGradient id="linear-gradient-54" x1="165.04" y1="320.43" x2="192.2" y2="269.98" xlink:href="#linear-gradient-43"/><linearGradient id="linear-gradient-55" x1="181.49" y1="347.42" x2="227.54" y2="218.86" gradientTransform="matrix(1, 0.04, -0.04, 1, 12.67, -11.58)" xlink:href="#linear-gradient-13"/><linearGradient id="linear-gradient-56" x1="192.49" y1="335.22" x2="219.66" y2="284.76" xlink:href="#linear-gradient-43"/><linearGradient id="linear-gradient-57" x1="54.01" y1="32.16" x2="214.82" y2="168.9" gradientTransform="matrix(1, 0, 0, 1, 0, 0)" xlink:href="#linear-gradient"/><linearGradient id="linear-gradient-58" x1="58.28" y1="104.17" x2="221.48" y2="104.17" gradientTransform="matrix(1, 0, 0, 1, 0, 0)" xlink:href="#linear-gradient-11"/><linearGradient id="linear-gradient-59" x1="71.78" y1="10.67" x2="171.15" y2="151.12" gradientTransform="matrix(1, 0, 0, 1, 0, 0)" xlink:href="#linear-gradient-14"/><linearGradient id="linear-gradient-60" x1="63" y1="16.88" x2="162.38" y2="157.33" gradientTransform="matrix(1, 0, 0, 1, 0, 0)" xlink:href="#linear-gradient-14"/><linearGradient id="linear-gradient-61" x1="86.8" y1="0.04" x2="186.18" y2="140.49" gradientTransform="matrix(1, 0, 0, 1, 0, 0)" xlink:href="#linear-gradient-14"/><linearGradient id="linear-gradient-62" x1="47.09" y1="28.14" x2="146.47" y2="168.59" gradientTransform="matrix(1, 0, 0, 1, 0, 0)" xlink:href="#linear-gradient-14"/><linearGradient id="linear-gradient-63" x1="59.71" y1="19.21" x2="159.09" y2="159.65" gradientTransform="matrix(1, 0, 0, 1, 0, 0)" xlink:href="#linear-gradient-14"/><linearGradient id="linear-gradient-64" x1="47.41" y1="27.91" x2="146.79" y2="168.36" gradientTransform="matrix(1, 0, 0, 1, 0, 0)" xlink:href="#linear-gradient-14"/><linearGradient id="linear-gradient-65" x1="54.92" y1="22.6" x2="154.3" y2="163.05" gradientTransform="matrix(1, 0, 0, 1, 0, 0)" xlink:href="#linear-gradient-14"/><linearGradient id="linear-gradient-66" x1="59.93" y1="19.05" x2="159.31" y2="159.5" gradientTransform="matrix(1, 0, 0, 1, 0, 0)" xlink:href="#linear-gradient-14"/><linearGradient id="linear-gradient-67" x1="69.76" y1="12.1" x2="169.14" y2="152.55" gradientTransform="matrix(1, 0, 0, 1, 0, 0)" xlink:href="#linear-gradient-14"/><linearGradient id="linear-gradient-68" x1="59.64" y1="19.26" x2="159.02" y2="159.71" gradientTransform="matrix(1, 0, 0, 1, 0, 0)" xlink:href="#linear-gradient-14"/><linearGradient id="linear-gradient-69" x1="77.4" y1="6.69" x2="176.78" y2="147.13" gradientTransform="matrix(1, 0, 0, 1, 0, 0)" xlink:href="#linear-gradient-14"/><linearGradient id="linear-gradient-70" x1="40.13" y1="33.06" x2="139.51" y2="173.51" gradientTransform="matrix(1, 0, 0, 1, 0, 0)" xlink:href="#linear-gradient-14"/><linearGradient id="linear-gradient-71" x1="47.02" y1="28.19" x2="146.4" y2="168.63" gradientTransform="matrix(1, 0, 0, 1, 0, 0)" xlink:href="#linear-gradient-14"/><linearGradient id="linear-gradient-72" x1="37.54" y1="34.9" x2="136.92" y2="175.34" gradientTransform="matrix(1, 0, 0, 1, 0, 0)" xlink:href="#linear-gradient-14"/><linearGradient id="linear-gradient-73" x1="33.49" y1="37.76" x2="132.87" y2="178.21" gradientTransform="matrix(1, 0, 0, 1, 0, 0)" xlink:href="#linear-gradient-14"/><linearGradient id="linear-gradient-74" x1="63.81" y1="16.31" x2="163.19" y2="156.75" gradientTransform="matrix(1, 0, 0, 1, 0, 0)" xlink:href="#linear-gradient-14"/><linearGradient id="linear-gradient-75" x1="64.91" y1="15.53" x2="164.29" y2="155.98" gradientTransform="matrix(1, 0, 0, 1, 0, 0)" xlink:href="#linear-gradient-14"/><linearGradient id="linear-gradient-76" x1="67.37" y1="13.79" x2="166.75" y2="154.23" gradientTransform="matrix(1, 0, 0, 1, 0, 0)" xlink:href="#linear-gradient-14"/><linearGradient id="linear-gradient-77" x1="81.26" y1="3.96" x2="180.64" y2="144.4" gradientTransform="matrix(1, 0, 0, 1, 0, 0)" xlink:href="#linear-gradient-14"/><linearGradient id="linear-gradient-78" x1="53.61" y1="23.53" x2="152.99" y2="163.97" gradientTransform="matrix(1, 0, 0, 1, 0, 0)" xlink:href="#linear-gradient-14"/><linearGradient id="linear-gradient-79" x1="55.77" y1="22" x2="155.15" y2="162.44" gradientTransform="matrix(1, 0, 0, 1, 0, 0)" xlink:href="#linear-gradient-14"/><linearGradient id="linear-gradient-80" x1="49.61" y1="26.35" x2="148.99" y2="166.8" gradientTransform="matrix(1, 0, 0, 1, 0, 0)" xlink:href="#linear-gradient-14"/><linearGradient id="linear-gradient-81" x1="47.97" y1="27.52" x2="147.35" y2="167.96" gradientTransform="matrix(1, 0, 0, 1, 0, 0)" xlink:href="#linear-gradient-14"/><linearGradient id="linear-gradient-82" x1="43.44" y1="30.72" x2="142.82" y2="171.17" gradientTransform="matrix(1, 0, 0, 1, 0, 0)" xlink:href="#linear-gradient-14"/><linearGradient id="linear-gradient-83" x1="24.12" y1="44.39" x2="123.5" y2="184.84" gradientTransform="matrix(1, 0, 0, 1, 0, 0)" xlink:href="#linear-gradient-14"/><linearGradient id="linear-gradient-84" x1="233.22" y1="180.65" x2="220.87" y2="67.53" gradientUnits="userSpaceOnUse"><stop offset="0" stop-color="#0024bd"/><stop offset="0" stop-color="#0024bd"/><stop offset="1" stop-color="#4a125e"/></linearGradient><linearGradient id="linear-gradient-85" x1="257.9" y1="173.85" x2="208.78" y2="82.07" gradientTransform="matrix(1, 0, 0, 1, 0, 0)" xlink:href="#linear-gradient-40"/><linearGradient id="linear-gradient-86" x1="200.88" y1="103.58" x2="214.18" y2="103.58" gradientUnits="userSpaceOnUse"><stop offset="0" stop-color="#6dc7f7"/><stop offset="1" stop-color="#dceffe"/><stop offset="1" stop-color="#dceffe"/></linearGradient><linearGradient id="linear-gradient-87" x1="227.78" y1="115.77" x2="241.07" y2="115.77" xlink:href="#linear-gradient-86"/></defs><g id="Layer_3" data-name="Layer 3"><path d="M509.46,293.34V514.5l-6.94,3.86-289-174.69-3.82-221.39s4.75-2.59,6.49-3.61a5.78,5.78,0,0,1,5.91-.11L501.75,280A15.43,15.43,0,0,1,509.46,293.34Z" style="fill:#1348e4"/><path d="M502.52,297.2V518.36L206.62,347.52V127.36a5.72,5.72,0,0,1,8.58-5L494.81,283.85A15.41,15.41,0,0,1,502.52,297.2Z" style="fill:url(#linear-gradient)"/><polygon points="488.14 293.6 488.14 495.63 215.19 338.41 215.19 136.38 488.14 293.6" style="fill:url(#linear-gradient-2)"/><path d="M206.62,356l295.9,162.36v8.48L295.76,644.25a15.43,15.43,0,0,1-15.32,0L3.87,484.52A7.65,7.65,0,0,1,0,477.87c0-2.63,0-8.55,0-8.55Z" style="fill:#1348e4"/><path d="M206.62,347.52l295.9,170.84L295.76,635.77a15.43,15.43,0,0,1-15.32,0L3.87,476a7.73,7.73,0,0,1,0-13.41Z" style="fill:url(#linear-gradient-3)"/><polygon points="100.88 437.04 212.63 373.58 457.08 514.71 345.33 578.17 100.88 437.04" style="fill:#dceffe"/><polygon points="199.23 385.54 211.46 378.6 444.48 513.13 432.26 520.08 199.23 385.54" style="fill:#6dc7f7"/><polygon points="182.08 395.31 194.31 388.36 427.33 522.9 415.11 529.84 182.08 395.31" style="fill:#6dc7f7"/><polygon points="164.93 405.07 177.16 398.13 410.18 532.67 397.96 539.61 164.93 405.07" style="fill:#6dc7f7"/><polygon points="147.78 414.84 160.01 407.9 393.03 542.44 380.81 549.38 147.78 414.84" style="fill:#6dc7f7"/><polygon points="130.63 424.61 142.86 417.67 375.88 552.21 363.66 559.15 130.63 424.61" style="fill:#6dc7f7"/><polygon points="113.48 434.38 125.71 427.44 358.73 561.98 346.51 568.92 113.48 434.38" style="fill:#6dc7f7"/><rect x="392.89" y="509.5" width="36.85" height="2.95" transform="translate(-198.69 269.78) rotate(-29.59)" style="fill:#dceffe"/><rect x="395.35" y="496.42" width="18.43" height="2.95" transform="translate(-193.11 264.74) rotate(-29.59)" style="fill:#dceffe"/><rect x="366.67" y="518.6" width="18.43" height="2.95" transform="translate(-207.8 253.47) rotate(-29.59)" style="fill:#dceffe"/><rect x="339.99" y="523.15" width="18.43" height="2.95" transform="translate(-213.53 240.89) rotate(-29.59)" style="fill:#dceffe"/><rect x="331.98" y="536.85" width="18.43" height="2.95" transform="translate(-221.34 238.72) rotate(-29.59)" style="fill:#dceffe"/><rect x="320.66" y="552.46" width="18.43" height="2.95" transform="translate(-230.53 235.17) rotate(-29.59)" style="fill:#dceffe"/><rect x="308.67" y="542.69" width="18.43" height="2.95" transform="translate(-227.26 227.97) rotate(-29.59)" style="fill:#dceffe"/><rect x="203.79" y="484.29" width="18.43" height="2.95" transform="translate(-212.11 168.56) rotate(-29.59)" style="fill:#dceffe"/><rect x="190.02" y="475.72" width="18.43" height="2.95" transform="translate(-209.67 160.64) rotate(-29.59)" style="fill:#dceffe"/><rect x="176.25" y="467.15" width="18.43" height="2.95" transform="translate(-207.23 152.72) rotate(-29.59)" style="fill:#dceffe"/><rect x="162.47" y="458.58" width="18.43" height="2.95" transform="translate(-204.8 144.8) rotate(-29.59)" style="fill:#dceffe"/><rect x="121.42" y="435.76" width="18.42" height="2.95" transform="translate(-198.85 121.51) rotate(-29.59)" style="fill:#dceffe"/><rect x="293.33" y="534.63" width="18.43" height="2.95" transform="translate(-225.29 219.34) rotate(-29.59)" style="fill:#dceffe"/><rect x="382.24" y="488.84" width="18.43" height="2.95" transform="translate(-191.07 257.28) rotate(-29.59)" style="fill:#dceffe"/><rect x="369.13" y="481.26" width="18.43" height="2.95" transform="translate(-189.04 249.81) rotate(-29.59)" style="fill:#dceffe"/><rect x="356.02" y="473.67" width="18.43" height="2.95" transform="translate(-187.01 242.35) rotate(-29.59)" style="fill:#dceffe"/><rect x="342.91" y="466.09" width="18.43" height="2.95" transform="translate(-184.97 234.89) rotate(-29.59)" style="fill:#dceffe"/><rect x="329.79" y="458.51" width="18.43" height="2.95" transform="translate(-182.94 227.42) rotate(-29.59)" style="fill:#dceffe"/><rect x="316.68" y="450.93" width="18.43" height="2.95" transform="translate(-180.9 219.96) rotate(-29.59)" style="fill:#dceffe"/><rect x="303.57" y="443.35" width="18.43" height="2.95" transform="translate(-178.87 212.5) rotate(-29.59)" style="fill:#dceffe"/><rect x="290.46" y="435.76" width="18.42" height="2.95" transform="translate(-176.8 204.97) rotate(-29.59)" style="fill:#dceffe"/><rect x="277.35" y="428.18" width="18.42" height="2.95" transform="translate(-174.77 197.51) rotate(-29.59)" style="fill:#dceffe"/><rect x="264.24" y="420.6" width="18.43" height="2.95" transform="translate(-172.77 190.11) rotate(-29.59)" style="fill:#dceffe"/><rect x="251.13" y="413.02" width="18.43" height="2.95" transform="translate(-170.73 182.64) rotate(-29.59)" style="fill:#dceffe"/><rect x="238.02" y="405.44" width="18.43" height="2.95" transform="translate(-168.7 175.18) rotate(-29.59)" style="fill:#dceffe"/><rect x="224.91" y="397.85" width="18.43" height="2.95" transform="translate(-166.67 167.72) rotate(-29.59)" style="fill:#dceffe"/><rect x="211.8" y="390.27" width="18.43" height="2.95" transform="translate(-164.63 160.25) rotate(-29.59)" style="fill:#dceffe"/><path d="M166.19,489.2l78.18,45.14a2.12,2.12,0,0,1,0,3.68L201,562.64a6.42,6.42,0,0,1-6.35,0l-78.18-45.14a2.12,2.12,0,0,1,0-3.68l43.35-24.61A6.4,6.4,0,0,1,166.19,489.2Z" style="fill:url(#linear-gradient-4)"/><path d="M244.37,535.85l-78.18-45.14a6.4,6.4,0,0,0-6.35,0L116.49,515.3a2.11,2.11,0,0,0-.92,1.09,2.11,2.11,0,0,1,.92-2.6l43.35-24.61a6.4,6.4,0,0,1,6.35,0l78.18,45.14a2.1,2.1,0,0,1,.91,2.59A2.11,2.11,0,0,0,244.37,535.85Z" style="fill:#1348e4"/><path d="M243.42,189.69V339.75c0,3.65,2.22,7.89,5,9.47L451.52,466.5a4.33,4.33,0,0,0,1.42.54v.78l1.73-1h0l.17-.1h0c1-.63,1.63-2,1.63-3.94V312.69Z" style="fill:#0024bd"/><path d="M257.35,184.31c0,1.67-1.17,2.34-2.62,1.51a5.8,5.8,0,0,1-2.62-4.53c0-1.67,1.18-2.35,2.62-1.51A5.76,5.76,0,0,1,257.35,184.31Z" style="fill:#fff"/><ellipse cx="263.1" cy="187.63" rx="2.14" ry="3.7" transform="translate(-58.57 156.7) rotate(-30)" style="fill:#fff"/><path d="M274.1,194c0,1.67-1.18,2.34-2.62,1.51a5.78,5.78,0,0,1-2.62-4.53c0-1.67,1.17-2.35,2.62-1.51A5.79,5.79,0,0,1,274.1,194Z" style="fill:#fff"/><path d="M449.79,467.5,246.65,350.22c-2.74-1.58-5-5.82-5-9.47V190.68l213.06,123V463.76C454.75,467.41,452.53,469.08,449.79,467.5Z" style="fill:url(#linear-gradient-5)"/><path d="M451.52,283,248.38,165.71a3.19,3.19,0,0,0-3.2-.28h0l-1.84,1.06.71.13a6,6,0,0,0-.62,2.84v20.23L454.08,311.31l.67,2.38,1.73-1V292.47C456.48,288.82,454.26,284.58,451.52,283Z" style="fill:#0024bd"/><path d="M246.65,166.71,449.79,284c2.74,1.58,5,5.82,5,9.46v20.23l-213.06-123V170.46C241.69,166.81,243.91,165.13,246.65,166.71Z" style="fill:url(#linear-gradient-6)"/><path d="M255.62,185.31c0,1.67-1.18,2.34-2.62,1.51a5.8,5.8,0,0,1-2.62-4.54c0-1.66,1.17-2.34,2.62-1.51A5.82,5.82,0,0,1,255.62,185.31Z" style="fill:#dceffe"/><path d="M264,190.14c0,1.67-1.17,2.35-2.62,1.51a5.78,5.78,0,0,1-2.61-4.53c0-1.67,1.17-2.35,2.61-1.51A5.76,5.76,0,0,1,264,190.14Z" style="fill:#dceffe"/><path d="M272.37,195c0,1.67-1.18,2.34-2.62,1.51a5.8,5.8,0,0,1-2.62-4.54c0-1.66,1.17-2.34,2.62-1.51A5.82,5.82,0,0,1,272.37,195Z" style="fill:#dceffe"/><polygon points="255.57 242.76 267.25 249.51 267.25 247.48 255.57 240.73 255.57 242.76" style="fill:#dceffe"/><polygon points="269.13 250.59 275.5 254.27 275.5 252.24 269.13 248.56 269.13 250.59" style="fill:#dceffe"/><polygon points="285.4 259.99 290.01 262.65 290.01 260.62 285.4 257.96 285.4 259.99" style="fill:#dceffe"/><polygon points="282.04 258.05 283.62 258.95 283.62 256.93 282.04 256.02 282.04 258.05" style="fill:#dceffe"/><polygon points="277.4 255.36 280.26 257.01 280.26 254.98 277.4 253.33 277.4 255.36" style="fill:#dceffe"/><polygon points="266.38 258.28 270.98 260.94 270.98 258.91 266.38 256.25 266.38 258.28" style="fill:#dceffe"/><polygon points="255.57 252.03 264.59 257.25 264.59 255.22 255.57 250 255.57 252.03" style="fill:#dceffe"/><polygon points="272.42 284.92 281.44 290.14 281.44 288.11 272.42 282.89 272.42 284.92" style="fill:#dceffe"/><polygon points="267.77 282.24 270.63 283.89 270.63 281.86 267.77 280.21 267.77 282.24" style="fill:#dceffe"/><polygon points="272.36 275.64 281.39 280.85 281.39 278.82 272.36 273.61 272.36 275.64" style="fill:#dceffe"/><polygon points="267.72 272.95 270.57 274.61 270.57 272.58 267.72 270.92 267.72 272.95" style="fill:#dceffe"/><polygon points="272.51 325 255.51 315.17 255.51 317.2 272.51 327.03 272.51 325" style="fill:#dceffe"/><polygon points="278.5 328.46 274.3 326.03 274.3 328.06 278.5 330.49 278.5 328.46" style="fill:#dceffe"/><polygon points="306.03 330.43 289.02 320.6 289.02 322.63 306.03 332.46 306.03 330.43" style="fill:#dceffe"/><polygon points="312.02 333.89 307.81 331.46 307.81 333.49 312.02 335.92 312.02 333.89" style="fill:#dceffe"/><polygon points="260.11 313.19 255.51 310.53 255.51 312.56 260.11 315.22 260.11 313.19" style="fill:#dceffe"/><polygon points="286.57 319.2 281.97 316.54 281.97 318.57 286.57 321.23 286.57 319.2" style="fill:#dceffe"/><polygon points="270.93 319.44 261.9 314.23 261.9 316.26 270.93 321.47 270.93 319.44" style="fill:#dceffe"/><polygon points="275.57 322.13 272.71 320.48 272.71 322.5 275.57 324.16 275.57 322.13" style="fill:#dceffe"/><polygon points="286.46 328.41 277.44 323.2 277.44 325.23 286.46 330.44 286.46 328.41" style="fill:#dceffe"/><polygon points="291.11 331.1 288.25 329.44 288.25 331.48 291.11 333.13 291.11 331.1" style="fill:#dceffe"/><polygon points="286.57 323.84 281.97 321.18 281.97 323.21 286.57 325.87 286.57 323.84" style="fill:#dceffe"/><polygon points="297.38 330.09 288.36 324.87 288.36 326.9 297.38 332.12 297.38 330.09" style="fill:#dceffe"/><polygon points="302.03 332.77 299.17 331.12 299.17 333.15 302.03 334.81 302.03 332.77" style="fill:#dceffe"/><polygon points="264.93 311.34 255.51 305.9 255.51 307.93 264.93 313.37 264.93 311.34" style="fill:#dceffe"/><polygon points="273.53 316.31 266.72 312.38 266.72 314.4 273.53 318.35 273.53 316.31" style="fill:#dceffe"/><polygon points="279.93 320.01 275.32 317.35 275.32 319.38 279.93 322.04 279.93 320.01" style="fill:#dceffe"/><polygon points="323.81 340.69 314.39 335.24 314.39 337.27 323.81 342.72 323.81 340.69" style="fill:#dceffe"/><polygon points="332.41 345.66 325.6 341.72 325.6 343.75 332.41 347.69 332.41 345.66" style="fill:#dceffe"/><polygon points="338.81 349.35 334.2 346.69 334.2 348.72 338.81 351.38 338.81 349.35" style="fill:#dceffe"/><polygon points="311.03 279.43 320.46 284.87 320.46 282.84 311.03 277.39 311.03 279.43" style="fill:#dceffe"/><polygon points="302.43 274.45 309.25 278.39 309.25 276.36 302.43 272.42 302.43 274.45" style="fill:#dceffe"/><polygon points="296.04 270.76 300.65 273.42 300.65 271.39 296.04 268.73 296.04 270.76" style="fill:#dceffe"/><polygon points="307.12 272.51 316.55 277.96 316.55 275.93 307.12 270.48 307.12 272.51" style="fill:#dceffe"/><polygon points="298.52 267.54 305.33 271.48 305.33 269.45 298.52 265.51 298.52 267.54" style="fill:#dceffe"/><polygon points="292.13 263.84 296.73 266.5 296.73 264.48 292.13 261.81 292.13 263.84" style="fill:#dceffe"/><polygon points="273.76 281.09 276.95 282.93 276.95 280.9 273.76 279.06 273.76 281.09" style="fill:#dceffe"/><polygon points="267.77 277.63 271.98 280.06 271.98 278.03 267.77 275.6 267.77 277.63" style="fill:#dceffe"/><polygon points="264.99 306.73 255.57 301.29 255.57 303.32 264.99 308.76 264.99 306.73" style="fill:#dceffe"/><polygon points="273.59 311.71 266.78 307.77 266.78 309.8 273.59 313.74 273.59 311.71" style="fill:#dceffe"/><polygon points="279.99 315.4 275.38 312.74 275.38 314.77 279.99 317.43 279.99 315.4" style="fill:#dceffe"/><polygon points="258.75 298.49 255.57 296.65 255.57 298.68 258.75 300.52 258.75 298.49" style="fill:#dceffe"/><polygon points="264.74 301.95 260.54 299.52 260.54 301.55 264.74 303.98 264.74 301.95" style="fill:#dceffe"/><polygon points="273.31 306.9 266.53 302.99 266.53 305.01 273.31 308.93 273.31 306.9" style="fill:#dceffe"/><polygon points="275.74 268.31 278.93 270.14 278.93 268.12 275.74 266.27 275.74 268.31" style="fill:#dceffe"/><polygon points="269.75 264.84 273.96 267.27 273.96 265.24 269.75 262.81 269.75 264.84" style="fill:#dceffe"/><polygon points="261.19 259.89 267.97 263.81 267.97 261.78 261.19 257.86 261.19 259.89" style="fill:#dceffe"/><polygon points="281.32 275.83 288.1 279.75 288.1 277.72 281.32 273.8 281.32 275.83" style="fill:#dceffe"/><polygon points="270.29 269.79 279.43 275.07 279.43 273.04 270.29 267.76 270.29 269.79" style="fill:#dceffe"/><polygon points="265.64 267.1 268.5 268.75 268.5 266.73 265.64 265.07 265.64 267.1" style="fill:#dceffe"/><polygon points="261.19 264.53 264.05 266.18 264.05 264.15 261.19 262.5 261.19 264.53" style="fill:#dceffe"/><polygon points="265.77 290.73 274.8 295.94 274.8 293.91 265.77 288.69 265.77 290.73" style="fill:#dceffe"/><polygon points="261.13 288.04 263.99 289.69 263.99 287.66 261.13 286.01 261.13 288.04" style="fill:#dceffe"/><polygon points="267.18 296.18 270.36 298.02 270.36 295.99 267.18 294.15 267.18 296.18" style="fill:#dceffe"/><polygon points="276.85 292.46 280.03 294.3 280.03 292.27 276.85 290.43 276.85 292.46" style="fill:#dceffe"/><polygon points="281.39 295.08 289.02 299.49 289.02 297.46 281.39 293.05 281.39 295.08" style="fill:#dceffe"/><polygon points="290.38 300.27 294.92 302.9 294.92 300.87 290.38 298.24 290.38 300.27" style="fill:#dceffe"/><polygon points="261.19 292.71 265.39 295.14 265.39 293.12 261.19 290.68 261.19 292.71" style="fill:#dceffe"/><polygon points="261.56 297.48 264.74 299.32 264.74 297.29 261.56 295.45 261.56 297.48" style="fill:#dceffe"/><polygon points="255.57 294.01 259.77 296.44 259.77 294.42 255.57 291.98 255.57 294.01" style="fill:#dceffe"/><polygon points="272.23 289.79 275.09 291.45 275.09 289.42 272.23 287.76 272.23 289.79" style="fill:#dceffe"/><polygon points="267.77 287.22 270.63 288.87 270.63 286.84 267.77 285.19 267.77 287.22" style="fill:#dceffe"/><polygon points="284.19 263.91 293.95 269.55 293.95 267.52 284.19 261.88 284.19 263.91" style="fill:#dceffe"/><polygon points="273.27 257.6 282.41 262.88 282.41 260.85 273.27 255.57 273.27 257.6" style="fill:#dceffe"/><polygon points="268.63 254.92 271.49 256.57 271.49 254.54 268.63 252.89 268.63 254.92" style="fill:#dceffe"/><polygon points="264.17 252.34 267.03 253.99 267.03 251.96 264.17 250.31 264.17 252.34" style="fill:#dceffe"/><polygon points="261.74 250.93 255.57 247.37 255.57 245.34 261.74 248.9 261.74 250.93" style="fill:#dceffe"/><polygon points="416.99 310.76 398.95 300.35 398.95 418.78 416.99 428.95 416.99 310.76" style="fill:url(#linear-gradient-7)"/><polygon points="398.95 300.35 398.95 413.47 416.99 423.88 416.99 429.95 393.67 416.49 393.67 297.3 398.95 300.35" style="fill:#1348e4"/><g style="clip-path:url(#clip-path)"><g style="isolation:isolate"><ellipse cx="401.1" cy="364.65" rx="52.9" ry="23.53" transform="translate(35.72 765.1) rotate(-89.9)" style="fill:url(#linear-gradient-8)"/><path d="M401,417.56h-2.81c-6,0-12-5.15-16.52-15.38-9.19-20.59-9.19-54.08,0-74.81,4.62-10.43,10.69-15.64,16.75-15.61h2.82c-6.06,0-12.13,5.18-16.76,15.61-9.19,20.73-9.19,54.22,0,74.81C389,412.41,395,417.53,401,417.56Z" style="fill:url(#linear-gradient-9)"/></g></g><polygon points="416.99 310.76 393.67 297.3 393.67 416.49 416.99 429.95 416.99 310.76" style="fill:url(#linear-gradient-10)"/><path d="M614.58,425.69,481.24,351.92c-2.72-1.42-4.87-4.8-4.82-7.54l-.58-136c.08-3.61,5.61-5.83,8.32-4.4l136.65,71.75c2.71,1.42,4.87,4.79,4.81,7.53l-2.72,138C622.84,424,618.44,427.78,614.58,425.69Z" style="fill:url(#linear-gradient-11)"/><path d="M614.58,425.69,477.93,353.94c-2.71-1.42-4.87-4.8-4.81-7.54l2.72-138c.06-2.74,2.3-3.81,5-2.38L617.5,277.76c2.72,1.42,4.87,4.79,4.82,7.53l-2.73,138C619.54,426.05,617.29,427.11,614.58,425.69Z" style="fill:url(#linear-gradient-12)"/><path d="M599.41,356.1l-39.66-20.83c-3-1.6-5.47-5.39-5.41-8.47l1-52.95c.07-3.08,2.59-4.28,5.63-2.68L600.68,292c3.05,1.6,5.47,5.39,5.41,8.47l-1.05,53C605,356.5,602.46,357.7,599.41,356.1Z" style="fill:url(#linear-gradient-13)"/><polygon points="506.78 255.5 486.97 245.09 487.09 238.76 506.91 249.17 506.78 255.5" style="fill:#df4640"/><polygon points="521.55 263.25 509.18 256.75 509.31 250.43 521.68 256.92 521.55 263.25" style="fill:#df4640"/><polygon points="499.7 233.01 487.34 226.51 487.21 232.84 499.58 239.34 499.7 233.01" style="fill:url(#linear-gradient-14)"/><polygon points="499.22 257.51 486.85 251.01 486.73 257.34 499.1 263.83 499.22 257.51" style="fill:url(#linear-gradient-15)"/><polygon points="512.85 264.66 500.48 258.17 500.35 264.5 512.72 270.99 512.85 264.66" style="fill:url(#linear-gradient-16)"/><polygon points="527.26 272.23 514.89 265.73 514.76 272.06 527.13 278.56 527.26 272.23" style="fill:url(#linear-gradient-17)"/><polygon points="541.66 279.79 529.29 273.3 529.17 279.63 541.54 286.12 541.66 279.79" style="fill:url(#linear-gradient-18)"/><polygon points="498.98 269.76 486.61 263.26 486.49 269.59 498.85 276.08 498.98 269.76" style="fill:url(#linear-gradient-19)"/><polygon points="512.61 276.91 500.24 270.42 500.11 276.75 512.48 283.24 512.61 276.91" style="fill:url(#linear-gradient-20)"/><polygon points="520.59 293.48 508.22 286.99 508.09 293.31 520.46 299.81 520.59 293.48" style="fill:url(#linear-gradient-21)"/><polygon points="505.16 285.38 486.37 275.51 486.24 281.84 505.04 291.71 505.16 285.38" style="fill:url(#linear-gradient-22)"/><polygon points="498.5 294.26 486.13 287.76 486 294.09 498.37 300.58 498.5 294.26" style="fill:url(#linear-gradient-23)"/><polygon points="514.16 302.48 501.79 295.99 501.67 302.31 514.04 308.81 514.16 302.48" style="fill:url(#linear-gradient-24)"/><polygon points="529.83 310.71 517.46 304.21 517.33 310.54 529.7 317.04 529.83 310.71" style="fill:url(#linear-gradient-25)"/><polygon points="533 318.77 545.37 325.26 545.49 318.93 533.12 312.44 533 318.77" style="fill:url(#linear-gradient-26)"/><polygon points="498.25 306.51 485.88 300.01 485.76 306.34 498.13 312.83 498.25 306.51" style="fill:url(#linear-gradient-27)"/><polygon points="501.43 314.56 513.79 321.06 513.92 314.73 501.55 308.24 501.43 314.56" style="fill:url(#linear-gradient-28)"/><polygon points="529.59 322.96 517.22 316.46 517.09 322.79 529.46 329.28 529.59 322.96" style="fill:url(#linear-gradient-29)"/><polygon points="485.52 318.59 514.64 333.88 514.77 327.56 485.64 312.26 485.52 318.59" style="fill:url(#linear-gradient-30)"/><polygon points="516.85 335.04 545.98 350.33 546.1 344.01 516.97 328.71 516.85 335.04" style="fill:url(#linear-gradient-31)"/><polygon points="548.18 351.49 577.31 366.79 577.44 360.46 548.31 345.16 548.18 351.49" style="fill:url(#linear-gradient-32)"/><polygon points="585.09 364.48 584.96 370.8 595.32 376.24 595.45 369.91 585.09 364.48" style="fill:url(#linear-gradient-33)"/><polygon points="485.27 330.84 497.64 337.33 497.77 331 485.4 324.51 485.27 330.84" style="fill:url(#linear-gradient-34)"/><polygon points="500.94 339.06 513.31 345.56 513.43 339.23 501.07 332.74 500.94 339.06" style="fill:url(#linear-gradient-35)"/><polygon points="516.61 347.29 528.98 353.78 529.1 347.45 516.73 340.96 516.61 347.29" style="fill:url(#linear-gradient-36)"/><polygon points="532.27 355.51 544.64 362.01 544.77 355.68 532.4 349.19 532.27 355.51" style="fill:url(#linear-gradient-37)"/><polygon points="497.4 349.58 485.03 343.08 485.16 336.76 497.53 343.25 497.4 349.58" style="fill:#df4640"/><path d="M650.69,487.12,652.27,530a9.24,9.24,0,0,1-13.56,8.51L480.06,454.61a16.28,16.28,0,0,1-8.66-13.8l-1.56-42.38a9.24,9.24,0,0,1,13.54-8.52L642,473.3A16.29,16.29,0,0,1,650.69,487.12Z" style="fill:url(#linear-gradient-38)"/><path d="M649.18,532.68l-1.58-42.84A16.26,16.26,0,0,0,638.91,476l-158.62-83.4a9.15,9.15,0,0,0-8.73.07,9.23,9.23,0,0,1,11.82-2.79L642,473.3a16.29,16.29,0,0,1,8.69,13.82L652.27,530a9.17,9.17,0,0,1-4.81,8.45A9.1,9.1,0,0,0,649.18,532.68Z" style="fill:url(#linear-gradient-39)"/><path d="M657.93,524c-15.82,4-25.47-11.59-31.49-23.5-3.7-7.3-7.72-14.11-14.32-19.16a38.75,38.75,0,0,0-21.73-8c-8.52-.33-16.41,3.23-24.73,4.35-8.16,1.09-16.27-1-23.71-4.21-15-6.59-26.14-17.65-35.94-30.47-10.81-14.14-22.54-30.74-41.63-33.17-2.3-.29-1.46-3.81.83-3.52,14.37,1.83,25.6,11.82,34.46,22.61,10.87,13.24,19.9,27.47,34.87,36.59,7.36,4.49,15.77,8.29,24.48,8.82s16.71-3.19,25.18-4.31c13.67-1.81,27.78,4.25,36.68,14.61,5.69,6.62,8.67,14.88,13.07,22.31,4.63,7.82,12.93,16.08,22.89,13.58,2.25-.57,3.35,2.88,1.09,3.45Z" style="fill:url(#linear-gradient-40)"/><path d="M218.2,324.85,54,232.55c-2.74-1.5-4.88-5-4.78-7.77l.84-75.86c.1-2.79,4.41-4.46,7.15-3l166.29,91c2.74,1.5,4.87,5,4.77,7.77l-2.84,76.49C225.32,324,220.94,326.35,218.2,324.85Z" style="fill:url(#linear-gradient-41)"/><path d="M218.2,324.85l-166.28-91c-2.75-1.5-4.88-5-4.78-7.78L50,149.57c.1-2.79,2.41-3.84,5.15-2.34l166.28,91c2.74,1.5,4.88,5,4.78,7.78l-2.84,76.48C223.25,325.3,220.94,326.35,218.2,324.85Z" style="fill:url(#linear-gradient-42)"/><path d="M61,229.48h0a5,5,0,0,1-2.52-4.1L60,184.28c.06-1.48,1.28-2,2.72-1.24h0a5,5,0,0,1,2.52,4.11l-1.52,41.1C63.63,229.72,62.42,230.27,61,229.48Z" style="fill:url(#linear-gradient-43)"/><path d="M67.26,232.92h0a5,5,0,0,1-2.53-4.1l.58-15.48c0-1.47,1.27-2,2.72-1.23h0a5,5,0,0,1,2.52,4.1L70,231.69C69.92,233.16,68.7,233.71,67.26,232.92Z" style="fill:url(#linear-gradient-44)"/><path d="M85.07,242.67h0a5,5,0,0,1-2.52-4.1l1.52-41.1c.06-1.48,1.27-2,2.72-1.24h0a5,5,0,0,1,2.52,4.11l-1.52,41.1C87.73,242.91,86.51,243.46,85.07,242.67Z" style="fill:url(#linear-gradient-45)"/><path d="M91.35,246.11h0a5,5,0,0,1-2.52-4.1l1-28.29c.06-1.47,1.27-2,2.72-1.23h0a5,5,0,0,1,2.52,4.1l-1.05,28.29C94,246.35,92.8,246.91,91.35,246.11Z" style="fill:url(#linear-gradient-46)"/><path d="M108.64,255.58h0a5,5,0,0,1-2.52-4.11l.85-22.95c.06-1.47,1.27-2,2.72-1.23h0a5,5,0,0,1,2.52,4.1l-.85,23C111.3,255.82,110.09,256.37,108.64,255.58Z" style="fill:url(#linear-gradient-47)"/><path d="M114.93,259h0a5,5,0,0,1-2.52-4.1l.35-9.61c.06-1.48,1.28-2,2.72-1.24h0a5,5,0,0,1,2.52,4.1l-.35,9.61C117.59,259.26,116.37,259.81,114.93,259Z" style="fill:url(#linear-gradient-48)"/><path d="M134.31,269.63h0a5,5,0,0,1-2.52-4.1l1.8-48.58c.06-1.47,1.27-2,2.72-1.23h0a5,5,0,0,1,2.52,4.1L137,268.39C137,269.87,135.76,270.42,134.31,269.63Z" style="fill:url(#linear-gradient-49)"/><path d="M140.6,273.07h0a5,5,0,0,1-2.52-4.1l.35-9.61c.06-1.47,1.27-2,2.72-1.24h0a5,5,0,0,1,2.52,4.11l-.35,9.6C143.26,273.31,142,273.86,140.6,273.07Z" style="fill:url(#linear-gradient-50)"/><path d="M157.89,282.53h0a5,5,0,0,1-2.53-4.1l1.81-48.58c.05-1.47,1.27-2,2.72-1.23h0a5.05,5.05,0,0,1,2.52,4.1L160.6,281.3C160.55,282.77,159.33,283.32,157.89,282.53Z" style="fill:url(#linear-gradient-51)"/><path d="M164.17,286h0a5,5,0,0,1-2.52-4.1l1.35-36.3c.05-1.47,1.27-2,2.72-1.23h0a5.05,5.05,0,0,1,2.52,4.1l-1.35,36.3C166.83,286.21,165.62,286.77,164.17,286Z" style="fill:url(#linear-gradient-52)"/><path d="M182.51,296h0a5,5,0,0,1-2.52-4.1l1.8-48.58c.05-1.47,1.27-2,2.72-1.23h0a5.05,5.05,0,0,1,2.52,4.1l-1.81,48.57C185.17,296.25,184,296.8,182.51,296Z" style="fill:url(#linear-gradient-53)"/><path d="M188.79,299.45h0a5.05,5.05,0,0,1-2.52-4.1L188,249.44c.05-1.47,1.27-2,2.71-1.23h0a5,5,0,0,1,2.52,4.1l-1.7,45.9C191.46,299.69,190.24,300.24,188.79,299.45Z" style="fill:url(#linear-gradient-54)"/><path d="M203.54,307.52h0a5,5,0,0,1-2.52-4.1l1.52-41.1c.06-1.48,1.27-2,2.72-1.24h0a5,5,0,0,1,2.52,4.11l-1.53,41.1C206.2,307.76,205,308.31,203.54,307.52Z" style="fill:url(#linear-gradient-55)"/><path d="M209.82,311h0a5.05,5.05,0,0,1-2.52-4.1l.58-15.48c.05-1.48,1.27-2,2.71-1.24h0a5.05,5.05,0,0,1,2.53,4.11l-.58,15.48C212.49,311.2,211.27,311.75,209.82,311Z" style="fill:url(#linear-gradient-56)"/><path d="M221.48,97.19V200.64a8.6,8.6,0,0,1-12.89,7.45L64.06,124.75a15.14,15.14,0,0,1-7.57-13.12V8.61A8.59,8.59,0,0,1,69.36,1.15L213.88,84.06A15.15,15.15,0,0,1,221.48,97.19Z" style="fill:url(#linear-gradient-57)"/><path d="M218.52,203.07V99.62a15.12,15.12,0,0,0-7.61-13.13L66.4,3.58a8.5,8.5,0,0,0-8.12-.24A8.6,8.6,0,0,1,69.36,1.15L213.88,84.06a15.15,15.15,0,0,1,7.6,13.13V200.64a8.52,8.52,0,0,1-4.75,7.69A8.46,8.46,0,0,0,218.52,203.07Z" style="fill:url(#linear-gradient-58)"/><polygon points="84.08 31.13 97.51 38.88 97.51 43.75 84.08 36.22 84.08 31.13" style="fill:url(#linear-gradient-59)"/><polygon points="74.65 36.41 88.08 44.16 88.08 49.02 74.65 41.5 74.65 36.41" style="fill:url(#linear-gradient-60)"/><polygon points="95.8 48.48 187.6 101.7 187.6 106.56 95.8 53.57 95.8 48.48" style="fill:url(#linear-gradient-61)"/><polygon points="93.5 112.2 143.88 141.36 143.88 146.22 93.5 117.3 93.5 112.2" style="fill:url(#linear-gradient-62)"/><polygon points="74.65 47.22 97.51 60.62 97.51 65.48 74.65 52.31 74.65 47.22" style="fill:url(#linear-gradient-63)"/><polygon points="82.07 83.8 104.93 97.2 104.93 102.06 82.07 88.89 82.07 83.8" style="fill:url(#linear-gradient-64)"/><polygon points="113.45 112.22 136.3 125.62 136.3 130.48 113.45 117.31 113.45 112.22" style="fill:url(#linear-gradient-65)"/><polygon points="90.8 77.92 133.79 103.08 133.79 107.95 90.8 83.01 90.8 77.92" style="fill:url(#linear-gradient-66)"/><polygon points="100.45 62.38 123.3 75.78 123.3 80.64 100.45 67.47 100.45 62.38" style="fill:url(#linear-gradient-67)"/><polygon points="82.37 62.38 114.61 80.86 114.61 85.73 82.37 67.47 82.37 62.38" style="fill:url(#linear-gradient-68)"/><polygon points="141.03 107.59 173.26 126.08 173.26 130.94 141.03 112.68 141.03 107.59" style="fill:url(#linear-gradient-69)"/><polygon points="70.33 77.29 80.09 82.9 80.09 87.77 70.33 82.38 70.33 77.29" style="fill:url(#linear-gradient-70)"/><polygon points="100.04 104.66 109.81 110.27 109.81 115.14 100.04 109.75 100.04 104.66" style="fill:url(#linear-gradient-71)"/><polygon points="66.67 85.97 95.8 102.23 95.8 107.1 66.67 91.06 66.67 85.97" style="fill:url(#linear-gradient-72)"/><polygon points="82.07 116.32 111.19 132.58 111.19 137.45 82.07 121.41 82.07 116.32" style="fill:url(#linear-gradient-73)"/><polygon points="146.18 142.6 175.3 158.86 175.3 163.73 146.18 147.69 146.18 142.6" style="fill:url(#linear-gradient-74)"/><polygon points="66.67 21.09 80.09 28.84 80.09 33.71 66.67 26.18 66.67 21.09" style="fill:url(#linear-gradient-75)"/><polygon points="90.8 45.68 94.14 47.73 94.14 52.6 90.8 50.77 90.8 45.68" style="fill:url(#linear-gradient-76)"/><polygon points="124.87 76.38 157.14 95.31 157.14 100.17 124.87 81.47 124.87 76.38" style="fill:url(#linear-gradient-77)"/><polygon points="106.98 97.74 110.33 99.8 110.33 104.66 106.98 102.83 106.98 97.74" style="fill:url(#linear-gradient-78)"/><polygon points="112.29 100.67 115.64 102.72 115.64 107.59 112.29 105.76 112.29 100.67" style="fill:url(#linear-gradient-79)"/><polygon points="66.67 53.53 80.09 61.28 80.09 66.14 66.67 58.62 66.67 53.53" style="fill:url(#linear-gradient-80)"/><polygon points="75.36 69.3 88.78 77.05 88.78 81.91 75.36 74.39 75.36 69.3" style="fill:url(#linear-gradient-81)"/><polygon points="114.61 134.36 128.03 142.11 128.03 146.97 114.61 139.45 114.61 134.36" style="fill:url(#linear-gradient-82)"/><polygon points="66.67 107.59 80.09 115.34 80.09 120.2 66.67 112.68 66.67 107.59" style="fill:url(#linear-gradient-83)"/><path d="M196,58.24l-1.56,1.11v54.38c0,5.7,4,12.69,9,15.54l46.53,27.08,3.68-1.81a4,4,0,0,0,2.24-3.59V99c0-5.7-4-12.67-9-15.48L202,57.94A5.62,5.62,0,0,0,196,58.24Z" style="fill:url(#linear-gradient-84)"/><path d="M200.67,60c-5-2.81-9-.45-9,5.25v49.61c0,5.7,4,12.69,9,15.54l43.48,25.11c4.94,2.85,9,.52,9-5.18V100.08c0-5.7-4.06-12.66-9-15.48Z" style="fill:url(#linear-gradient-85)"/><path d="M214.18,86.32l-2.11-1.25c-2.17-1.27-3.72-1.58-4.67-.93L205,85.33l1.43.53a7.46,7.46,0,0,0-.14,1.51v8c0,1.11-.3,1.49-.89,1.15l-1.76-1v1.38h-2.78l.75,2.15,2,.41v.91l1.77,1a2.27,2.27,0,0,1,.88,2.14v8.15c0,3.79,1.25,9.45,5.09,11.7l2.78-1.38v-4.85c-1.67-1-2.5-1.91-2.5-2.78v-8.67a6.1,6.1,0,0,0-1.42-3.89c1-.11,1.42-.86,1.42-2.27l-.27-7,2.77-1.39Z" style="fill:url(#linear-gradient-86)"/><path d="M230.54,126.79l.81.52c1.12.66,1.69.48,1.69-.56v-8.3c0-1.41.48-2.16,1.42-2.27a6.16,6.16,0,0,1-1.42-3.89v-8.67c0-.87-.83-1.8-2.5-2.78l-2.77-3.46L230.56,96l2.11,1.25q5.76,3.39,5.75,9.07v8.15a2.3,2.3,0,0,0,.88,2.15l1.77,1v4.85l-2.77,1.39c-.59-.35.12,6.71.12,6.71,0,3.79-5.09,4.95-5.09,4.95l-2.78-3.9Z" style="fill:url(#linear-gradient-87)"/><path d="M227.76,128.18l.81.52c1.13.66,1.69.47,1.69-.56v-8.3c0-1.41.47-2.16,1.42-2.27a6.1,6.1,0,0,1-1.42-3.89V105c0-.87-.83-1.8-2.49-2.78V97.38l2.11,1.24q5.76,3.39,5.76,9.08v8.14a2.28,2.28,0,0,0,.89,2.15l1.76,1v4.85l-1.77-1c-.59-.35-.88,0-.88,1.15v8q0,5.69-5.76,2.3L227.76,133Z" style="fill:#fff"/><path d="M211.41,92.55,210.6,92c-1.13-.66-1.69-.48-1.69.55v8.31c0,1.41-.48,2.16-1.43,2.26a6.15,6.15,0,0,1,1.42,3.9v8.67c0,.87.83,1.8,2.49,2.77v4.85l-2.11-1.24q-5.76-3.39-5.76-9.07v-8.15a2.32,2.32,0,0,0-.88-2.15l-1.77-1V96.85l1.77,1c.59.35.88,0,.88-1.15v-8q0-5.67,5.76-2.29l2.11,1.24Z" style="fill:#fff"/></g></svg>