<svg width="441" height="226" viewBox="0 0 441 226" fill="none" xmlns="http://www.w3.org/2000/svg">
<path d="M276.219 104.133V183.37L273.727 184.757L169.915 122.183L168.544 42.8562C168.544 42.8562 170.255 41.9277 170.876 41.5583C171.526 41.169 172.347 41.169 172.997 41.5583L273.447 99.4608C275.128 100.429 276.179 102.196 276.219 104.133Z" fill="#1348E4"/>
<path d="M273.727 105.511V184.757L167.443 123.54V44.6731C167.383 43.5749 168.233 42.6265 169.334 42.5666C169.755 42.5467 170.175 42.6564 170.525 42.886L270.955 100.789C272.656 101.757 273.707 103.554 273.727 105.511Z" fill="url(#paint0_linear)"/>
<path d="M268.563 104.223V176.611L170.515 120.276V47.8876L268.563 104.223Z" fill="url(#paint1_linear)"/>
<path d="M167.443 126.575L273.727 184.757V187.752L199.458 229.821C197.757 230.8 195.655 230.8 193.954 229.821L94.615 172.588C93.7543 172.108 93.2239 171.2 93.2239 170.212V167.147L167.443 126.575Z" fill="#1348E4"/>
<path d="M167.443 123.54L273.727 184.757L199.458 226.826C197.757 227.795 195.655 227.795 193.954 226.826L94.6151 169.573C93.2941 168.804 92.8537 167.117 93.6143 165.799C93.8545 165.39 94.2048 165.04 94.6151 164.801L167.443 123.54Z" fill="url(#paint2_linear)"/>
<path d="M129.453 155.616L169.595 132.874L257.404 183.449L217.262 206.191L129.453 155.616Z" fill="#DCEFFE"/>
<path d="M164.791 137.167L169.174 134.682L252.88 182.88L248.487 185.376L164.791 137.167Z" fill="#6DC7F7"/>
<path d="M158.626 140.661L163.019 138.176L246.716 186.384L242.332 188.87L158.626 140.661Z" fill="#6DC7F7"/>
<path d="M152.461 144.166L156.854 141.68L240.561 189.888L236.167 192.374L152.461 144.166Z" fill="#6DC7F7"/>
<path d="M146.306 147.66L150.699 145.174L234.396 193.383L230.012 195.868L146.306 147.66Z" fill="#6DC7F7"/>
<path d="M140.141 151.164L144.534 148.678L228.241 196.887L223.847 199.372L140.141 151.164Z" fill="#6DC7F7"/>
<path d="M133.986 154.668L138.38 152.182L222.076 200.391L217.693 202.877L133.986 154.668Z" fill="#6DC7F7"/>
<path d="M246.5 178.416L234.986 184.938L235.51 185.858L247.024 179.336L246.5 178.416Z" fill="#DCEFFE"/>
<path d="M241.186 175.366L235.434 178.625L235.958 179.545L241.71 176.286L241.186 175.366Z" fill="#DCEFFE"/>
<path d="M230.896 183.31L225.144 186.568L225.667 187.489L231.42 184.23L230.896 183.31Z" fill="#DCEFFE"/>
<path d="M221.299 184.939L215.547 188.198L216.071 189.118L221.823 185.859L221.299 184.939Z" fill="#DCEFFE"/>
<path d="M218.427 189.849L212.674 193.107L213.198 194.027L218.951 190.769L218.427 189.849Z" fill="#DCEFFE"/>
<path d="M214.357 195.451L208.604 198.709L209.128 199.63L214.88 196.371L214.357 195.451Z" fill="#DCEFFE"/>
<path d="M210.052 191.936L204.3 195.194L204.824 196.115L210.576 192.856L210.052 191.936Z" fill="#DCEFFE"/>
<path d="M172.369 171.012L166.616 174.27L167.14 175.191L172.893 171.932L172.369 171.012Z" fill="#DCEFFE"/>
<path d="M167.425 167.939L161.672 171.197L162.196 172.118L167.949 168.859L167.425 167.939Z" fill="#DCEFFE"/>
<path d="M162.481 164.873L156.728 168.132L157.252 169.052L163.005 165.793L162.481 164.873Z" fill="#DCEFFE"/>
<path d="M157.53 161.8L151.777 165.059L152.301 165.979L158.054 162.72L157.53 161.8Z" fill="#DCEFFE"/>
<path d="M142.807 153.619L137.054 156.878L137.578 157.798L143.331 154.539L142.807 153.619Z" fill="#DCEFFE"/>
<path d="M204.534 189.052L198.782 192.311L199.306 193.231L205.058 189.973L204.534 189.052Z" fill="#DCEFFE"/>
<path d="M236.485 172.65L230.732 175.909L231.256 176.829L237.009 173.57L236.485 172.65Z" fill="#DCEFFE"/>
<path d="M231.77 169.923L226.017 173.182L226.541 174.102L232.294 170.843L231.77 169.923Z" fill="#DCEFFE"/>
<path d="M227.056 167.208L221.303 170.467L221.827 171.387L227.58 168.129L227.056 167.208Z" fill="#DCEFFE"/>
<path d="M222.349 164.494L216.597 167.752L217.12 168.672L222.873 165.414L222.349 164.494Z" fill="#DCEFFE"/>
<path d="M217.635 161.779L211.882 165.037L212.406 165.958L218.159 162.699L217.635 161.779Z" fill="#DCEFFE"/>
<path d="M212.934 159.063L207.181 162.321L207.705 163.242L213.457 159.983L212.934 159.063Z" fill="#DCEFFE"/>
<path d="M208.22 156.348L202.467 159.607L202.991 160.527L208.743 157.268L208.22 156.348Z" fill="#DCEFFE"/>
<path d="M203.523 153.59L197.77 156.849L198.294 157.769L204.047 154.51L203.523 153.59Z" fill="#DCEFFE"/>
<path d="M198.809 150.885L193.056 154.144L193.58 155.064L199.333 151.806L198.809 150.885Z" fill="#DCEFFE"/>
<path d="M194.089 148.19L188.336 151.449L188.86 152.369L194.612 149.11L194.089 148.19Z" fill="#DCEFFE"/>
<path d="M189.382 145.475L183.63 148.734L184.153 149.654L189.906 146.395L189.382 145.475Z" fill="#DCEFFE"/>
<path d="M184.668 142.761L178.916 146.019L179.44 146.939L185.192 143.681L184.668 142.761Z" fill="#DCEFFE"/>
<path d="M179.954 140.046L174.202 143.304L174.726 144.224L180.478 140.966L179.954 140.046Z" fill="#DCEFFE"/>
<path d="M175.251 137.317L169.499 140.576L170.023 141.496L175.775 138.237L175.251 137.317Z" fill="#DCEFFE"/>
<path d="M152.921 174.305L181.004 190.478C181.344 190.687 181.464 191.117 181.284 191.476C181.214 191.596 181.114 191.695 181.004 191.765L165.421 200.581C164.711 200.98 163.85 200.98 163.139 200.581L135.057 184.408C134.717 184.198 134.597 183.769 134.777 183.409C134.847 183.29 134.937 183.2 135.057 183.13L150.63 174.315C151.34 173.905 152.211 173.905 152.921 174.305Z" fill="url(#paint3_linear)"/>
<path d="M181.004 191.067L152.921 174.884C152.211 174.485 151.35 174.485 150.64 174.884L135.067 183.699C134.917 183.789 134.797 183.929 134.737 184.088C134.597 183.739 134.737 183.34 135.067 183.16L150.64 174.345C151.34 173.935 152.221 173.935 152.921 174.345L181.004 190.517C181.324 190.707 181.464 191.096 181.324 191.446C181.264 191.286 181.154 191.156 181.004 191.067Z" fill="#1348E4"/>
<path d="M180.663 66.9855V120.755C180.683 122.103 181.344 123.371 182.455 124.149L255.413 166.178C255.573 166.268 255.743 166.338 255.923 166.368V166.648L256.543 166.288H256.604C257.024 165.949 257.244 165.42 257.184 164.881V111.101L180.663 66.9855Z" fill="#0024BD"/>
<path d="M185.657 65.0588C185.657 65.6578 185.237 65.8973 184.716 65.5978C184.166 65.2384 183.816 64.6394 183.776 63.9805C183.776 63.3815 184.206 63.142 184.716 63.4415C185.277 63.7909 185.627 64.3999 185.657 65.0588Z" fill="white"/>
<path d="M188.361 67.3639C188.729 67.1517 188.73 66.465 188.362 65.8301C187.995 65.1952 187.399 64.8525 187.03 65.0646C186.662 65.2767 186.661 65.9634 187.029 66.5983C187.396 67.2332 187.993 67.576 188.361 67.3639Z" fill="white"/>
<path d="M191.682 68.5329C191.682 69.1319 191.252 69.3716 190.741 69.0721C190.181 68.7227 189.831 68.1137 189.801 67.4548C189.801 66.8558 190.221 66.6062 190.741 66.9057C191.292 67.2751 191.642 67.874 191.682 68.5329Z" fill="white"/>
<path d="M254.782 166.528L181.794 124.509C180.693 123.72 180.033 122.462 180.003 121.114V67.3448L256.533 111.421V165.19C256.574 166.498 255.773 167.107 254.782 166.528Z" fill="url(#paint4_linear)"/>
<path d="M255.412 100.419L182.445 58.4C182.104 58.1604 181.664 58.1205 181.294 58.3002L180.633 58.6796H180.883C180.733 58.989 180.653 59.3285 180.663 59.6779V66.9257L256.323 110.502L256.573 111.361L257.194 111.001V103.754C257.154 102.426 256.493 101.198 255.412 100.419Z" fill="#0024BD"/>
<path d="M181.794 58.7593L254.762 100.779C255.873 101.557 256.543 102.815 256.563 104.173V111.421L180.033 67.3448V60.0972C180.033 58.7894 180.793 58.1903 181.794 58.7593Z" fill="url(#paint5_linear)"/>
<path d="M185.037 65.4182C185.037 66.0172 184.616 66.2568 184.096 65.9573C183.545 65.5979 183.195 64.9889 183.155 64.3301C183.155 63.741 183.575 63.4914 184.096 63.7909C184.656 64.1503 185.007 64.7593 185.037 65.4182Z" fill="#DCEFFE"/>
<path d="M188.049 67.1452C188.049 67.7442 187.629 67.9938 187.109 67.6943C186.558 67.325 186.208 66.726 186.168 66.0671C186.168 65.4681 186.588 65.2285 187.109 65.5279C187.669 65.8774 188.019 66.4863 188.049 67.1452Z" fill="#DCEFFE"/>
<path d="M191.061 68.8923C191.061 69.4913 190.631 69.7309 190.121 69.4314C189.56 69.072 189.21 68.4631 189.18 67.8042C189.18 67.2152 189.59 66.9656 190.121 67.265C190.671 67.6344 191.021 68.2334 191.061 68.8923Z" fill="#DCEFFE"/>
<path d="M185.027 86.0035L189.22 88.4194V87.6906L185.027 85.2747V86.0035Z" fill="#DCEFFE"/>
<path d="M189.89 88.8087L192.182 90.1266V89.3978L189.89 88.08V88.8087Z" fill="#DCEFFE"/>
<path d="M195.735 92.173L197.397 93.1315V92.4027L195.735 91.4543V92.173Z" fill="#DCEFFE"/>
<path d="M194.534 91.4842L195.094 91.8037V91.0849L194.534 90.7555V91.4842Z" fill="#DCEFFE"/>
<path d="M192.863 90.5159L193.893 91.1149V90.3861L192.863 89.7971V90.5159Z" fill="#DCEFFE"/>
<path d="M188.91 91.5641L190.561 92.5225V91.7938L188.91 90.8353V91.5641Z" fill="#DCEFFE"/>
<path d="M185.027 89.3278L188.259 91.1947V90.4659L185.027 88.5991V89.3278Z" fill="#DCEFFE"/>
<path d="M191.072 101.108L194.314 102.985V102.256L191.072 100.379V101.108Z" fill="#DCEFFE"/>
<path d="M189.41 100.15L190.43 100.739V100.02L189.41 99.4208V100.15Z" fill="#DCEFFE"/>
<path d="M191.052 97.7837L194.294 99.6505V98.9217L191.052 97.0548V97.7837Z" fill="#DCEFFE"/>
<path d="M189.39 96.8252L190.41 97.4142V96.6854L189.39 96.0965V96.8252Z" fill="#DCEFFE"/>
<path d="M191.112 115.474L184.997 111.95V112.679L191.112 116.203V115.474Z" fill="#DCEFFE"/>
<path d="M193.263 116.712L191.752 115.843V116.572L193.263 117.441V116.712Z" fill="#DCEFFE"/>
<path d="M203.151 117.421L197.036 113.896V114.625L203.151 118.149V117.421Z" fill="#DCEFFE"/>
<path d="M205.303 118.658L203.792 117.79V118.519L205.303 119.387V118.658Z" fill="#DCEFFE"/>
<path d="M186.658 111.241L184.997 110.293V111.011L186.658 111.97V111.241Z" fill="#DCEFFE"/>
<path d="M196.155 113.397L194.504 112.439V113.168L196.155 114.116V113.397Z" fill="#DCEFFE"/>
<path d="M190.541 113.477L187.299 111.61V112.339L190.541 114.206V113.477Z" fill="#DCEFFE"/>
<path d="M192.201 114.446L191.181 113.857V114.575L192.201 115.174V114.446Z" fill="#DCEFFE"/>
<path d="M196.116 116.692L192.883 114.825V115.554L196.116 117.421V116.692Z" fill="#DCEFFE"/>
<path d="M197.786 117.66L196.756 117.061V117.79L197.786 118.389V117.66Z" fill="#DCEFFE"/>
<path d="M196.155 115.055L194.504 114.106V114.835L196.155 115.783V115.055Z" fill="#DCEFFE"/>
<path d="M200.038 117.301L196.796 115.424V116.153L200.038 118.019V117.301Z" fill="#DCEFFE"/>
<path d="M201.709 118.259L200.689 117.66V118.389L201.709 118.988V118.259Z" fill="#DCEFFE"/>
<path d="M188.389 110.582L184.997 108.625V109.354L188.389 111.301V110.582Z" fill="#DCEFFE"/>
<path d="M191.472 112.359L189.03 110.951V111.67L191.472 113.088V112.359Z" fill="#DCEFFE"/>
<path d="M193.773 113.687L192.122 112.728V113.457L193.773 114.416V113.687Z" fill="#DCEFFE"/>
<path d="M209.536 121.094L206.153 119.138V119.866L209.536 121.823V121.094Z" fill="#DCEFFE"/>
<path d="M212.629 122.871L210.177 121.464V122.193L212.629 123.6V122.871Z" fill="#DCEFFE"/>
<path d="M214.92 124.199L213.269 123.241V123.97L214.92 124.928V124.199Z" fill="#DCEFFE"/>
<path d="M204.942 99.1414L208.335 101.098V100.369L204.942 98.4125V99.1414Z" fill="#DCEFFE"/>
<path d="M201.86 97.3543L204.302 98.772V98.0431L201.86 96.6356V97.3543Z" fill="#DCEFFE"/>
<path d="M199.558 96.0366L201.219 96.995V96.2662L199.558 95.3077V96.0366Z" fill="#DCEFFE"/>
<path d="M203.541 96.6655L206.924 98.6123V97.8935L203.541 95.9367V96.6655Z" fill="#DCEFFE"/>
<path d="M200.449 94.8786L202.901 96.2961V95.5673L200.449 94.1598V94.8786Z" fill="#DCEFFE"/>
<path d="M198.157 93.5607L199.809 94.5092V93.7904L198.157 92.8319V93.5607Z" fill="#DCEFFE"/>
<path d="M191.562 99.7403L192.702 100.399V99.6704L191.562 99.0116V99.7403Z" fill="#DCEFFE"/>
<path d="M189.41 98.5024L190.921 99.371V98.6422L189.41 97.7737V98.5024Z" fill="#DCEFFE"/>
<path d="M188.409 108.925L185.027 106.978V107.707L188.409 109.654V108.925Z" fill="#DCEFFE"/>
<path d="M191.492 110.712L189.05 109.294V110.023L191.492 111.441V110.712Z" fill="#DCEFFE"/>
<path d="M193.793 112.03L192.142 111.081V111.81L193.793 112.758V112.03Z" fill="#DCEFFE"/>
<path d="M186.167 105.97L185.027 105.311V106.04L186.167 106.699V105.97Z" fill="#DCEFFE"/>
<path d="M188.319 107.218L186.808 106.339V107.068L188.319 107.937V107.218Z" fill="#DCEFFE"/>
<path d="M191.392 108.985L188.96 107.587V108.306L191.392 109.714V108.985Z" fill="#DCEFFE"/>
<path d="M192.262 95.1581L193.412 95.8169V95.0882L192.262 94.4292V95.1581Z" fill="#DCEFFE"/>
<path d="M190.121 93.9201L191.632 94.7888V94.0599L190.121 93.1913V93.9201Z" fill="#DCEFFE"/>
<path d="M187.038 92.1432L189.48 93.5507V92.822L187.038 91.4144V92.1432Z" fill="#DCEFFE"/>
<path d="M194.274 97.8535L196.706 99.2612V98.5324L194.274 97.1248V97.8535Z" fill="#DCEFFE"/>
<path d="M190.311 95.6871L193.593 97.584V96.8552L190.311 94.9584V95.6871Z" fill="#DCEFFE"/>
<path d="M188.639 94.7288L189.669 95.3178V94.589L188.639 94V94.7288Z" fill="#DCEFFE"/>
<path d="M187.038 93.8103L188.068 94.3994V93.6705L187.038 93.0815V93.8103Z" fill="#DCEFFE"/>
<path d="M188.69 103.195L191.932 105.061V104.333L188.69 102.466V103.195Z" fill="#DCEFFE"/>
<path d="M187.018 102.226L188.048 102.825V102.096L187.018 101.497V102.226Z" fill="#DCEFFE"/>
<path d="M189.19 105.141L190.33 105.81V105.081L189.19 104.422V105.141Z" fill="#DCEFFE"/>
<path d="M192.663 103.813L193.813 104.472V103.744L192.663 103.085V103.813Z" fill="#DCEFFE"/>
<path d="M194.294 104.752L197.036 106.329V105.6L194.294 104.023V104.752Z" fill="#DCEFFE"/>
<path d="M197.527 106.609L199.158 107.557V106.828L197.527 105.88V106.609Z" fill="#DCEFFE"/>
<path d="M187.038 103.903L188.55 104.772V104.053L187.038 103.174V103.903Z" fill="#DCEFFE"/>
<path d="M187.178 105.61L188.318 106.269V105.541L187.178 104.882V105.61Z" fill="#DCEFFE"/>
<path d="M185.027 104.373L186.528 105.241V104.512L185.027 103.644V104.373Z" fill="#DCEFFE"/>
<path d="M191.011 102.855L192.031 103.454V102.725L191.011 102.126V102.855Z" fill="#DCEFFE"/>
<path d="M189.41 101.937L190.43 102.526V101.797L189.41 101.208V101.937Z" fill="#DCEFFE"/>
<path d="M195.305 93.5807L198.808 95.6073V94.8785L195.305 92.8519V93.5807Z" fill="#DCEFFE"/>
<path d="M191.382 91.3245L194.664 93.2113V92.4826L191.382 90.5957V91.3245Z" fill="#DCEFFE"/>
<path d="M189.71 90.3661L190.74 90.9551V90.2264L189.71 89.6374V90.3661Z" fill="#DCEFFE"/>
<path d="M188.109 89.4376L189.139 90.0267V89.298L188.109 88.7089V89.4376Z" fill="#DCEFFE"/>
<path d="M187.238 88.9285L185.027 87.6607V86.9319L187.238 88.1997V88.9285Z" fill="#DCEFFE"/>
<path d="M243.003 110.372L236.528 106.639V149.077L243.003 152.721V110.372Z" fill="url(#paint6_linear)"/>
<path d="M236.527 106.639V147.17L243.003 150.904V153.08L234.626 148.259V105.551L236.527 106.639Z" fill="#1348E4"/>
<path d="M228.82 129.65C228.84 119.178 232.643 110.702 237.307 110.702C241.981 110.712 245.754 119.208 245.734 129.67C245.714 140.142 241.911 148.618 237.247 148.618C232.573 148.618 228.8 140.122 228.82 129.65Z" fill="url(#paint7_linear)"/>
<path d="M237.258 148.638H236.257C234.105 148.638 231.954 146.791 230.332 143.127C227.03 135.75 227.03 123.75 230.332 116.323C231.984 112.589 234.165 110.722 236.337 110.732H237.338C235.156 110.732 232.985 112.589 231.333 116.323C228.041 123.75 228.041 135.75 231.333 143.127C232.955 146.791 235.106 148.628 237.258 148.638Z" fill="url(#paint8_linear)"/>
<path d="M243.003 110.372L234.626 105.551V148.259L243.003 153.08V110.372Z" fill="url(#paint9_linear)"/>
<path d="M313.979 151.553L266.081 125.117C265.08 124.568 264.43 123.55 264.35 122.412L264.139 73.6842C264.139 72.3964 266.141 71.5977 267.142 72.1068L316.181 97.8135C317.181 98.3626 317.832 99.3809 317.902 100.519L316.901 149.966C316.671 151.134 315.53 151.892 314.359 151.663C314.229 151.643 314.099 151.603 313.979 151.553Z" fill="url(#paint10_linear)"/>
<path d="M313.979 151.553L264.94 125.846C263.939 125.297 263.299 124.279 263.219 123.141L264.219 73.6943C264.219 72.696 265.05 72.3265 266.021 72.8356L315.11 98.5423C316.11 99.0914 316.771 100.11 316.841 101.248L315.84 150.695C315.76 151.683 314.95 152.062 313.979 151.553Z" fill="url(#paint11_linear)"/>
<path d="M308.535 126.615L294.283 119.188C293.173 118.579 292.452 117.45 292.342 116.193L292.702 97.2245C292.702 96.1164 293.633 95.6871 294.704 96.2262L308.965 103.684C310.076 104.293 310.806 105.421 310.907 106.679L310.536 125.647C310.536 126.755 309.626 127.174 308.535 126.615Z" fill="url(#paint12_linear)"/>
<path d="M275.258 90.5657L268.143 86.842L268.183 84.5758L275.308 88.2997L275.258 90.5657Z" fill="#DF4640"/>
<path d="M280.562 93.3511L276.119 91.015L276.169 88.7488L280.612 91.0749L280.562 93.3511Z" fill="#DF4640"/>
<path d="M272.716 82.5094L268.273 80.1833L268.233 82.4494L272.676 84.7756L272.716 82.5094Z" fill="url(#paint13_linear)"/>
<path d="M272.546 91.2946L268.103 88.9585L268.052 91.2247L272.496 93.5507L272.546 91.2946Z" fill="url(#paint14_linear)"/>
<path d="M277.44 93.8503L272.997 91.5242L272.947 93.7904L277.39 96.1165L277.44 93.8503Z" fill="url(#paint15_linear)"/>
<path d="M282.614 96.5657L278.171 94.2396L278.121 96.5058L282.564 98.8319L282.614 96.5657Z" fill="url(#paint16_linear)"/>
<path d="M287.788 99.2712L283.345 96.945L283.305 99.2112L287.748 101.537L287.788 99.2712Z" fill="url(#paint17_linear)"/>
<path d="M272.456 95.6771L268.012 93.3511L267.972 95.6173L272.406 97.9433L272.456 95.6771Z" fill="url(#paint18_linear)"/>
<path d="M277.35 98.2429L272.907 95.9167L272.856 98.1829L277.3 100.509L277.35 98.2429Z" fill="url(#paint19_linear)"/>
<path d="M280.222 104.173L275.779 101.857L275.729 104.113L280.172 106.449L280.222 104.173Z" fill="url(#paint20_linear)"/>
<path d="M274.678 101.278L267.922 97.7437L267.882 100.01L274.638 103.544L274.678 101.278Z" fill="url(#paint21_linear)"/>
<path d="M272.286 104.452L267.842 102.126L267.792 104.393L272.236 106.719L272.286 104.452Z" fill="url(#paint22_linear)"/>
<path d="M277.91 107.407L273.467 105.081L273.427 107.338L277.86 109.674L277.91 107.407Z" fill="url(#paint23_linear)"/>
<path d="M283.535 110.352L279.091 108.026L279.052 110.293L283.495 112.619L283.535 110.352Z" fill="url(#paint24_linear)"/>
<path d="M284.676 113.238L289.119 115.564L289.159 113.297L284.716 110.971L284.676 113.238Z" fill="url(#paint25_linear)"/>
<path d="M272.196 108.845L267.752 106.519L267.712 108.785L272.156 111.111L272.196 108.845Z" fill="url(#paint26_linear)"/>
<path d="M273.337 111.73L277.77 114.056L277.82 111.79L273.377 109.464L273.337 111.73Z" fill="url(#paint27_linear)"/>
<path d="M283.454 114.745L279.011 112.409L278.961 114.675L283.405 117.011L283.454 114.745Z" fill="url(#paint28_linear)"/>
<path d="M267.622 113.178L278.081 118.658L278.131 116.392L267.662 110.911L267.622 113.178Z" fill="url(#paint29_linear)"/>
<path d="M278.871 119.068L289.339 124.549L289.379 122.282L278.921 116.802L278.871 119.068Z" fill="url(#paint30_linear)"/>
<path d="M290.13 124.968L300.588 130.449L300.638 128.182L290.18 122.692L290.13 124.968Z" fill="url(#paint31_linear)"/>
<path d="M303.391 129.62L303.341 131.886L307.064 133.833L307.104 131.567L303.391 129.62Z" fill="url(#paint32_linear)"/>
<path d="M267.532 117.57L271.975 119.886L272.026 117.62L267.582 115.294L267.532 117.57Z" fill="url(#paint33_linear)"/>
<path d="M273.157 120.515L277.6 122.841L277.65 120.575L273.207 118.249L273.157 120.515Z" fill="url(#paint34_linear)"/>
<path d="M278.791 123.46L283.234 125.786L283.275 123.52L278.831 121.194L278.791 123.46Z" fill="url(#paint35_linear)"/>
<path d="M284.416 126.405L288.859 128.732L288.909 126.465L284.465 124.139L284.416 126.405Z" fill="url(#paint36_linear)"/>
<path d="M271.886 124.279L267.442 121.953L267.492 119.687L271.936 122.013L271.886 124.279Z" fill="#DF4640"/>
<path d="M326.909 173.566L327.48 188.93C327.54 190.757 326.109 192.294 324.277 192.354C323.697 192.374 323.126 192.245 322.606 191.975L265.621 161.916C263.759 160.927 262.568 159.021 262.508 156.924L261.948 141.74C261.878 139.923 263.289 138.385 265.12 138.315C265.13 138.315 265.14 138.315 265.14 138.315C265.721 138.285 266.301 138.425 266.811 138.695L323.787 168.574C325.658 169.553 326.849 171.459 326.909 173.566Z" fill="url(#paint37_linear)"/>
<path d="M326.409 189.888L325.838 174.534C325.778 172.428 324.587 170.521 322.716 169.543L265.741 139.663C264.76 139.134 263.589 139.134 262.608 139.663C263.569 138.315 265.39 137.886 266.852 138.665L323.827 168.554C325.698 169.533 326.889 171.44 326.949 173.546L327.52 188.91C327.56 190.158 326.889 191.316 325.788 191.905C326.209 191.316 326.429 190.607 326.409 189.888Z" fill="url(#paint38_linear)"/>
<path d="M329.551 186.774C323.867 188.211 320.404 182.621 318.242 178.358C317.081 175.702 315.32 173.356 313.098 171.489C310.846 169.762 308.124 168.764 305.292 168.624C302.23 168.505 299.397 169.782 296.405 170.182C293.483 170.451 290.54 169.932 287.888 168.674C282.504 166.318 278.501 162.355 274.978 157.753C271.095 152.691 266.882 146.771 260.026 145.873C259.205 145.763 259.506 144.505 260.326 144.615C265.49 145.264 269.524 148.848 272.706 152.711C276.609 157.453 279.852 162.554 285.226 165.819C287.858 167.566 290.881 168.654 294.023 168.984C297.156 169.173 300.028 167.836 303.03 167.436C308.024 166.897 312.948 168.864 316.201 172.677C318.202 175.043 319.313 178.008 320.894 180.664C322.556 183.469 325.538 186.424 329.121 185.536C329.931 185.326 330.322 186.534 329.511 186.774H329.551Z" fill="url(#paint39_linear)"/>
<path d="M171.596 115.414L112.619 82.3496C111.618 81.7706 110.968 80.7224 110.898 79.5644L111.198 52.3801C111.198 51.3817 112.789 50.7828 113.77 51.3019L173.508 83.917C174.508 84.4961 175.159 85.5342 175.219 86.6923L174.218 114.106C173.978 115.124 172.957 115.763 171.936 115.524C171.816 115.504 171.706 115.464 171.596 115.414Z" fill="url(#paint40_linear)"/>
<path d="M171.596 115.414L111.869 82.8089C110.858 82.2299 110.217 81.1816 110.157 80.0236L111.158 52.6098C111.158 51.6115 112.029 51.242 113.009 51.7711L172.737 84.3862C173.748 84.9652 174.398 86.0135 174.458 87.1716L173.457 114.575C173.417 115.584 172.587 115.953 171.596 115.414Z" fill="url(#paint41_linear)"/>
<path d="M115.131 81.2515C114.601 80.952 114.26 80.3929 114.23 79.784L114.771 65.0588C114.771 64.5297 115.231 64.3399 115.772 64.6194C116.302 64.9189 116.642 65.4781 116.672 66.0871L116.132 80.8123C116.082 81.3314 115.642 81.531 115.131 81.2515Z" fill="url(#paint42_linear)"/>
<path d="M117.383 82.4794C116.842 82.1799 116.502 81.6209 116.472 81.0119L116.682 75.4612C116.682 74.9321 117.133 74.7424 117.683 75.022C118.224 75.3215 118.564 75.8805 118.594 76.4895L118.394 82.0402C118.334 82.5693 117.903 82.7589 117.383 82.4794Z" fill="url(#paint43_linear)"/>
<path d="M123.748 85.9735C123.218 85.674 122.877 85.115 122.847 84.506L123.388 69.7808C123.388 69.2417 123.848 69.0621 124.389 69.3316C124.919 69.6411 125.259 70.2002 125.289 70.8091L124.749 85.5343C124.749 86.0634 124.299 86.2431 123.748 85.9735Z" fill="url(#paint44_linear)"/>
<path d="M126.03 87.2414C125.499 86.9419 125.159 86.3828 125.129 85.7739L125.489 75.6409C125.489 75.1118 125.94 74.922 126.49 75.2016C127.021 75.5011 127.361 76.0602 127.391 76.6692L127.011 86.8022C126.991 87.2913 126.56 87.4909 126.03 87.2414Z" fill="url(#paint45_linear)"/>
<path d="M132.245 90.5957C131.714 90.2962 131.364 89.7372 131.344 89.1282L131.644 80.9021C131.644 80.373 132.105 80.1832 132.645 80.4627C133.175 80.7622 133.516 81.3214 133.546 81.9304L133.246 90.1764C133.195 90.6855 132.755 90.8852 132.245 90.5957Z" fill="url(#paint46_linear)"/>
<path d="M134.506 91.8236C133.966 91.5241 133.626 90.9651 133.596 90.3561L133.726 86.912C133.726 86.3829 134.186 86.1931 134.727 86.4627C135.257 86.7722 135.597 87.3312 135.627 87.9402L135.497 91.3745C135.457 91.9135 135.017 92.1132 134.506 91.8236Z" fill="url(#paint47_linear)"/>
<path d="M141.462 95.6373C140.932 95.3278 140.592 94.7688 140.562 94.1598L141.212 76.7591C141.212 76.2299 141.662 76.0403 142.213 76.3199C142.753 76.6194 143.093 77.1784 143.123 77.7874L142.463 95.188C142.433 95.7171 141.983 95.9168 141.462 95.6373Z" fill="url(#paint48_linear)"/>
<path d="M143.764 96.8652C143.234 96.5657 142.893 96.0067 142.863 95.3977L142.983 91.9534C142.983 91.4243 143.444 91.2347 143.984 91.5042C144.515 91.8137 144.855 92.3728 144.885 92.9817L144.765 96.4159C144.685 96.955 144.224 97.1447 143.764 96.8652Z" fill="url(#paint49_linear)"/>
<path d="M149.939 100.22C149.398 99.92 149.058 99.361 149.028 98.742L149.679 81.3413C149.679 80.8122 150.129 80.6226 150.679 80.9021C151.22 81.2016 151.56 81.7606 151.59 82.3696L150.94 99.7703C150.89 100.339 150.449 100.539 149.939 100.22Z" fill="url(#paint50_linear)"/>
<path d="M152.191 101.497C151.66 101.198 151.32 100.639 151.29 100.03L151.77 87.0518C151.77 86.5226 152.231 86.3329 152.771 86.6124C153.302 86.9219 153.642 87.471 153.672 88.0799L153.192 101.058C153.152 101.577 152.711 101.777 152.191 101.497Z" fill="url(#paint51_linear)"/>
<path d="M158.776 105.081C158.246 104.782 157.905 104.223 157.875 103.614L158.526 86.2031C158.526 85.674 158.976 85.4844 159.527 85.7639C160.057 86.0734 160.397 86.6224 160.437 87.2314L159.787 104.632C159.777 105.211 159.316 105.371 158.776 105.081Z" fill="url(#paint52_linear)"/>
<path d="M161.038 106.319C160.507 106.01 160.167 105.461 160.127 104.852L160.747 88.3994C160.747 87.8703 161.208 87.6806 161.748 87.9601C162.279 88.2596 162.619 88.8186 162.649 89.4276L162.039 105.87C161.998 106.399 161.558 106.599 161.038 106.319Z" fill="url(#paint53_linear)"/>
<path d="M166.332 109.204C165.801 108.905 165.461 108.346 165.431 107.737L165.971 93.0117C165.971 92.4826 166.432 92.2928 166.972 92.5724C167.503 92.8719 167.843 93.431 167.873 94.04L167.323 108.765C167.293 109.294 166.862 109.494 166.332 109.204Z" fill="url(#paint54_linear)"/>
<path d="M168.594 110.452C168.053 110.153 167.713 109.594 167.683 108.985L167.893 103.444C167.893 102.905 168.353 102.725 168.894 102.995C169.434 103.294 169.775 103.853 169.805 104.472L169.594 110.013C169.544 110.532 169.114 110.722 168.594 110.452Z" fill="url(#paint55_linear)"/>
<path d="M172.787 33.8413V70.9089C172.787 72.616 171.406 73.9937 169.695 73.9937C169.154 73.9937 168.624 73.8539 168.153 73.5843L116.242 43.7247C114.561 42.7564 113.52 40.9593 113.52 39.0226V2.08477C113.51 0.387629 114.891 -1 116.592 -1C117.133 -1 117.673 -0.860201 118.144 -0.590655L170.055 29.1193C171.746 30.0877 172.787 31.8946 172.787 33.8413Z" fill="url(#paint56_linear)"/>
<path d="M171.716 71.7875V34.7199C171.716 32.7732 170.675 30.9762 168.984 30.0079L117.073 0.30789C116.182 -0.221218 115.081 -0.251256 114.16 0.217954C115.101 -1.00998 116.823 -1.34932 118.164 -0.570635L170.075 29.1393C171.766 30.1077 172.807 31.8947 172.807 33.8414V70.9089C172.827 72.077 172.166 73.1552 171.105 73.6643C171.516 73.1252 171.726 72.4663 171.716 71.7875Z" fill="url(#paint57_linear)"/>
<path d="M123.418 10.1712L128.252 12.9565V14.6935L123.418 11.9981V10.1712Z" fill="url(#paint58_linear)"/>
<path d="M120.035 12.068L124.859 14.8433V16.5804L120.035 13.895V12.068Z" fill="url(#paint59_linear)"/>
<path d="M127.631 16.3907L160.607 35.4586V37.2057L127.631 18.2176V16.3907Z" fill="url(#paint60_linear)"/>
<path d="M126.811 39.2223L144.905 49.6747V51.4117L126.811 41.0492V39.2223Z" fill="url(#paint61_linear)"/>
<path d="M120.035 15.9414L128.252 20.7434V22.4805L120.035 17.7584V15.9414Z" fill="url(#paint62_linear)"/>
<path d="M122.697 29.0494L130.914 33.8513V35.5884L122.697 30.8764V29.0494Z" fill="url(#paint63_linear)"/>
<path d="M133.976 39.2323L142.183 44.0341V45.7712L133.976 41.0492V39.2323Z" fill="url(#paint64_linear)"/>
<path d="M125.84 26.9429L141.282 35.9578V37.7048L125.84 28.7599V26.9429Z" fill="url(#paint65_linear)"/>
<path d="M129.302 21.3723L137.509 26.1742V27.9113L129.302 23.1992V21.3723Z" fill="url(#paint66_linear)"/>
<path d="M122.807 21.3723L134.387 27.9912V29.7383L122.807 23.1992V21.3723Z" fill="url(#paint67_linear)"/>
<path d="M143.884 37.575L155.454 44.1939V45.941L143.884 39.3919V37.575Z" fill="url(#paint68_linear)"/>
<path d="M118.484 26.7133L121.987 28.7199V30.467L118.484 28.5402V26.7133Z" fill="url(#paint69_linear)"/>
<path d="M129.152 36.5168L132.665 38.5334V40.2804L129.152 38.3438V36.5168Z" fill="url(#paint70_linear)"/>
<path d="M117.173 29.8281L127.631 35.6482V37.3953L117.173 31.6451V29.8281Z" fill="url(#paint71_linear)"/>
<path d="M122.697 40.6998L133.166 46.5299V48.267L122.697 42.5266V40.6998Z" fill="url(#paint72_linear)"/>
<path d="M145.726 50.114L156.194 55.9441V57.6912L145.726 51.9409V50.114Z" fill="url(#paint73_linear)"/>
<path d="M117.173 6.57721L121.987 9.35256V11.0996L117.173 8.40421V6.57721Z" fill="url(#paint74_linear)"/>
<path d="M125.84 15.3924L127.04 16.1212V17.8682L125.84 17.2093V15.3924Z" fill="url(#paint75_linear)"/>
<path d="M138.079 26.3939L149.669 33.1724V34.9095L138.079 28.2108V26.3939Z" fill="url(#paint76_linear)"/>
<path d="M131.645 34.041L132.854 34.7797V36.5168L131.645 35.868V34.041Z" fill="url(#paint77_linear)"/>
<path d="M133.556 35.0892L134.756 35.828V37.575L133.556 36.9161V35.0892Z" fill="url(#paint78_linear)"/>
<path d="M117.173 18.1976L121.987 20.983V22.72L117.173 20.0246V18.1976Z" fill="url(#paint79_linear)"/>
<path d="M120.295 23.8482L125.109 26.6335V28.3706L120.295 25.6751V23.8482Z" fill="url(#paint80_linear)"/>
<path d="M134.386 47.1689L139.21 49.9442V51.6813L134.386 48.9859V47.1689Z" fill="url(#paint81_linear)"/>
<path d="M117.173 37.575L121.987 40.3504V42.0875L117.173 39.3919V37.575Z" fill="url(#paint82_linear)"/>
<path d="M163.63 19.8849L163.069 20.2842V39.7713C163.189 42.0375 164.39 44.1141 166.302 45.342L183.015 55.0456L184.336 54.3967C184.827 54.1571 185.137 53.658 185.137 53.1089V34.4903C185.027 32.2341 183.816 30.1675 181.904 28.9496L165.781 19.7851C165.101 19.3957 164.27 19.4356 163.63 19.8849Z" fill="url(#paint83_linear)"/>
<path d="M165.301 20.5238C163.51 19.5255 162.069 20.3541 162.069 22.4006V40.1806C162.189 42.4468 163.39 44.5134 165.301 45.7413L180.924 54.7262C182.695 55.7245 184.156 54.9058 184.156 52.8692V34.8995C184.026 32.6433 182.825 30.5868 180.924 29.3489L165.301 20.5238Z" fill="url(#paint84_linear)"/>
<path d="M170.155 29.9478L169.395 29.4986C168.614 29.0494 168.063 28.9395 167.723 29.1691L166.862 29.5984L167.373 29.7881C167.353 29.9678 167.353 30.1475 167.373 30.3272V33.1924C167.373 33.5917 167.263 33.7315 167.053 33.6017L166.422 33.2423V33.7415H165.421L165.692 34.5102L166.412 34.6599V34.9894L167.043 35.3388C167.283 35.5185 167.403 35.808 167.363 36.1075V39.0325C167.363 40.3902 167.813 42.4169 169.184 43.2255L170.185 42.7264V40.9893C169.585 40.6299 169.294 40.3005 169.294 39.991V36.8862C169.284 36.3771 169.104 35.8879 168.784 35.4886C169.134 35.4886 169.294 35.189 169.294 34.6799L169.194 32.1741L170.195 31.6749L170.155 29.9478Z" fill="url(#paint85_linear)"/>
<path d="M176.03 44.4535L176.32 44.6331C176.72 44.8727 176.93 44.8128 176.93 44.4335V41.4385C176.93 40.9394 177.1 40.6699 177.441 40.6299C177.11 40.2406 176.93 39.7414 176.93 39.2323V36.1275C176.93 35.818 176.63 35.4886 176.03 35.1292L175.029 33.8913L176.03 33.402L176.79 33.8513C178.041 34.4603 178.832 35.7082 178.852 37.0959V40.0209C178.812 40.3204 178.932 40.6099 179.172 40.7896L179.803 41.149V42.886L178.802 43.3852C178.592 43.2554 178.802 45.7812 178.802 45.7812C178.802 47.1389 176.97 47.5582 176.97 47.5582L175.97 46.1605L176.03 44.4535Z" fill="url(#paint86_linear)"/>
<path d="M175.029 44.9526L175.329 45.1323C175.729 45.3718 175.93 45.302 175.93 44.9326V41.9377C175.93 41.4385 176.1 41.169 176.44 41.1291C176.11 40.7398 175.93 40.2406 175.93 39.7314V36.6267C175.93 36.3072 175.629 35.9778 175.039 35.6284V33.8913L175.799 34.3405C177.05 34.9495 177.851 36.2074 177.861 37.595V40.51C177.821 40.8095 177.941 41.0991 178.181 41.2788L178.812 41.6381V43.3753L178.181 43.0158C177.971 42.886 177.861 43.0159 177.861 43.4252V46.3103C177.861 47.678 177.171 47.9475 175.799 47.1389L175.029 46.6797V44.9526V44.9526Z" fill="white"/>
<path d="M169.164 32.184L168.874 31.9844C168.463 31.7448 168.263 31.8147 168.263 32.184V35.179C168.263 35.6881 168.093 35.9577 167.753 35.9877C168.073 36.387 168.253 36.8762 168.263 37.3854V40.4901C168.263 40.8096 168.553 41.139 169.154 41.4884V43.2255L168.393 42.7762C167.142 42.1772 166.342 40.9193 166.322 39.5317V36.6066C166.362 36.3171 166.242 36.0176 166.011 35.8379L165.371 35.4785V33.7415L166.011 34.1009C166.222 34.2306 166.322 34.1008 166.322 33.6915V30.8263C166.322 29.4686 167.012 29.1991 168.393 29.9978L169.154 30.447L169.164 32.184Z" fill="white"/>
<path d="M0 1V226H441V1H0ZM440.5 225.503H0.500057V1.49711H440.5V225.503Z" fill="#CBCBCB"/>
<defs>
<linearGradient id="paint0_linear" x1="241.822" y1="79.279" x2="208.048" y2="135.379" gradientUnits="userSpaceOnUse">
<stop stop-color="white"/>
<stop offset="1" stop-color="#DCEFFE"/>
</linearGradient>
<linearGradient id="paint1_linear" x1="268.563" y1="112.249" x2="170.515" y2="112.249" gradientUnits="userSpaceOnUse">
<stop stop-color="#1348E4"/>
<stop offset="0.87" stop-color="#61B6F5"/>
<stop offset="1" stop-color="#6DC7F7"/>
</linearGradient>
<linearGradient id="paint2_linear" x1="193.011" y1="144.55" x2="182.022" y2="180.734" gradientUnits="userSpaceOnUse">
<stop stop-color="white"/>
<stop offset="1" stop-color="#DCEFFE"/>
</linearGradient>
<linearGradient id="paint3_linear" x1="99.1724" y1="208.11" x2="176.381" y2="180.866" gradientUnits="userSpaceOnUse">
<stop stop-color="#1348E4"/>
<stop offset="0.87" stop-color="#61B6F5"/>
<stop offset="1" stop-color="#6DC7F7"/>
</linearGradient>
<linearGradient id="paint4_linear" x1="177.177" y1="69.6137" x2="239.749" y2="142.165" gradientUnits="userSpaceOnUse">
<stop stop-color="white"/>
<stop offset="1" stop-color="#DCEFFE"/>
</linearGradient>
<linearGradient id="paint5_linear" x1="249.289" y1="102.271" x2="186.816" y2="66.4473" gradientUnits="userSpaceOnUse">
<stop stop-color="#6DC7F7"/>
<stop offset="0.15" stop-color="#65BCF5"/>
<stop offset="0.41" stop-color="#509EF1"/>
<stop offset="0.76" stop-color="#2E6EEA"/>
<stop offset="1" stop-color="#1348E4"/>
</linearGradient>
<linearGradient id="paint6_linear" x1="247.386" y1="126.505" x2="234.095" y2="132.069" gradientUnits="userSpaceOnUse">
<stop stop-color="#1348E4"/>
<stop offset="0.87" stop-color="#61B6F5"/>
<stop offset="1" stop-color="#6DC7F7"/>
</linearGradient>
<linearGradient id="paint7_linear" x1="245.642" y1="127.594" x2="230.938" y2="131.259" gradientUnits="userSpaceOnUse">
<stop stop-color="white"/>
<stop offset="1" stop-color="#DCEFFE"/>
</linearGradient>
<linearGradient id="paint8_linear" x1="232.597" y1="110.732" x2="232.597" y2="148.638" gradientUnits="userSpaceOnUse">
<stop stop-color="#1348E4"/>
<stop offset="0.87" stop-color="#61B6F5"/>
<stop offset="1" stop-color="#6DC7F7"/>
</linearGradient>
<linearGradient id="paint9_linear" x1="248.257" y1="128.629" x2="235.487" y2="129.562" gradientUnits="userSpaceOnUse">
<stop stop-color="#1348E4"/>
<stop offset="0.5" stop-color="#3F86ED" stop-opacity="0.51"/>
<stop offset="1" stop-color="#6DC7F7" stop-opacity="0"/>
</linearGradient>
<linearGradient id="paint10_linear" x1="263.626" y1="111.291" x2="317.905" y2="112.379" gradientUnits="userSpaceOnUse">
<stop stop-color="#0024BD"/>
<stop offset="1" stop-color="#6DC7F7"/>
</linearGradient>
<linearGradient id="paint11_linear" x1="263.618" y1="111.667" x2="316.78" y2="112.733" gradientUnits="userSpaceOnUse">
<stop stop-color="white"/>
<stop offset="1" stop-color="#DCEFFE"/>
</linearGradient>
<linearGradient id="paint12_linear" x1="286.996" y1="122.721" x2="317.153" y2="99.3319" gradientUnits="userSpaceOnUse">
<stop stop-color="#1348E4"/>
<stop offset="0.68" stop-color="#11D6CC"/>
</linearGradient>
<linearGradient id="paint13_linear" x1="236.388" y1="38.6521" x2="292.91" y2="111.686" gradientUnits="userSpaceOnUse">
<stop stop-color="#DCEFFE"/>
<stop offset="1" stop-color="#6DC7F7"/>
</linearGradient>
<linearGradient id="paint14_linear" x1="236.208" y1="47.4287" x2="292.73" y2="120.465" gradientUnits="userSpaceOnUse">
<stop stop-color="#DCEFFE"/>
<stop offset="1" stop-color="#6DC7F7"/>
</linearGradient>
<linearGradient id="paint15_linear" x1="241.105" y1="49.9922" x2="297.628" y2="123.027" gradientUnits="userSpaceOnUse">
<stop stop-color="#DCEFFE"/>
<stop offset="1" stop-color="#6DC7F7"/>
</linearGradient>
<linearGradient id="paint16_linear" x1="246.274" y1="52.7143" x2="302.807" y2="125.739" gradientUnits="userSpaceOnUse">
<stop stop-color="#DCEFFE"/>
<stop offset="1" stop-color="#6DC7F7"/>
</linearGradient>
<linearGradient id="paint17_linear" x1="251.463" y1="55.4188" x2="307.986" y2="128.453" gradientUnits="userSpaceOnUse">
<stop stop-color="#DCEFFE"/>
<stop offset="1" stop-color="#6DC7F7"/>
</linearGradient>
<linearGradient id="paint18_linear" x1="236.126" y1="51.818" x2="292.648" y2="124.852" gradientUnits="userSpaceOnUse">
<stop stop-color="#DCEFFE"/>
<stop offset="1" stop-color="#6DC7F7"/>
</linearGradient>
<linearGradient id="paint19_linear" x1="241.012" y1="54.3874" x2="297.547" y2="127.423" gradientUnits="userSpaceOnUse">
<stop stop-color="#DCEFFE"/>
<stop offset="1" stop-color="#6DC7F7"/>
</linearGradient>
<linearGradient id="paint20_linear" x1="243.886" y1="60.3209" x2="300.419" y2="133.355" gradientUnits="userSpaceOnUse">
<stop stop-color="#DCEFFE"/>
<stop offset="1" stop-color="#6DC7F7"/>
</linearGradient>
<linearGradient id="paint21_linear" x1="224.329" y1="40.2806" x2="302.013" y2="140.655" gradientUnits="userSpaceOnUse">
<stop stop-color="#DCEFFE"/>
<stop offset="1" stop-color="#6DC7F7"/>
</linearGradient>
<linearGradient id="paint22_linear" x1="235.95" y1="60.5929" x2="292.473" y2="133.627" gradientUnits="userSpaceOnUse">
<stop stop-color="#DCEFFE"/>
<stop offset="1" stop-color="#6DC7F7"/>
</linearGradient>
<linearGradient id="paint23_linear" x1="241.578" y1="63.5412" x2="298.101" y2="136.575" gradientUnits="userSpaceOnUse">
<stop stop-color="#DCEFFE"/>
<stop offset="1" stop-color="#6DC7F7"/>
</linearGradient>
<linearGradient id="paint24_linear" x1="247.205" y1="66.4991" x2="303.73" y2="139.524" gradientUnits="userSpaceOnUse">
<stop stop-color="#DCEFFE"/>
<stop offset="1" stop-color="#6DC7F7"/>
</linearGradient>
<linearGradient id="paint25_linear" x1="252.836" y1="69.4468" x2="309.358" y2="142.481" gradientUnits="userSpaceOnUse">
<stop stop-color="#DCEFFE"/>
<stop offset="1" stop-color="#6DC7F7"/>
</linearGradient>
<linearGradient id="paint26_linear" x1="235.864" y1="64.9841" x2="292.386" y2="138.018" gradientUnits="userSpaceOnUse">
<stop stop-color="#DCEFFE"/>
<stop offset="1" stop-color="#6DC7F7"/>
</linearGradient>
<linearGradient id="paint27_linear" x1="241.488" y1="67.9358" x2="298.02" y2="140.97" gradientUnits="userSpaceOnUse">
<stop stop-color="#DCEFFE"/>
<stop offset="1" stop-color="#6DC7F7"/>
</linearGradient>
<linearGradient id="paint28_linear" x1="247.119" y1="70.881" x2="303.642" y2="143.915" gradientUnits="userSpaceOnUse">
<stop stop-color="#DCEFFE"/>
<stop offset="1" stop-color="#6DC7F7"/>
</linearGradient>
<linearGradient id="paint29_linear" x1="205.218" y1="27.8024" x2="316.97" y2="172.185" gradientUnits="userSpaceOnUse">
<stop stop-color="#DCEFFE"/>
<stop offset="1" stop-color="#6DC7F7"/>
</linearGradient>
<linearGradient id="paint30_linear" x1="216.478" y1="33.7062" x2="328.229" y2="178.089" gradientUnits="userSpaceOnUse">
<stop stop-color="#DCEFFE"/>
<stop offset="1" stop-color="#6DC7F7"/>
</linearGradient>
<linearGradient id="paint31_linear" x1="227.732" y1="39.5942" x2="339.484" y2="183.987" gradientUnits="userSpaceOnUse">
<stop stop-color="#DCEFFE"/>
<stop offset="1" stop-color="#6DC7F7"/>
</linearGradient>
<linearGradient id="paint32_linear" x1="275.161" y1="93.0797" x2="325.068" y2="157.557" gradientUnits="userSpaceOnUse">
<stop stop-color="#DCEFFE"/>
<stop offset="1" stop-color="#6DC7F7"/>
</linearGradient>
<linearGradient id="paint33_linear" x1="235.689" y1="73.7584" x2="292.211" y2="146.803" gradientUnits="userSpaceOnUse">
<stop stop-color="#DCEFFE"/>
<stop offset="1" stop-color="#6DC7F7"/>
</linearGradient>
<linearGradient id="paint34_linear" x1="241.316" y1="76.7176" x2="297.838" y2="149.752" gradientUnits="userSpaceOnUse">
<stop stop-color="#DCEFFE"/>
<stop offset="1" stop-color="#6DC7F7"/>
</linearGradient>
<linearGradient id="paint35_linear" x1="246.946" y1="79.664" x2="303.469" y2="152.698" gradientUnits="userSpaceOnUse">
<stop stop-color="#DCEFFE"/>
<stop offset="1" stop-color="#6DC7F7"/>
</linearGradient>
<linearGradient id="paint36_linear" x1="252.577" y1="82.6093" x2="309.101" y2="155.644" gradientUnits="userSpaceOnUse">
<stop stop-color="#DCEFFE"/>
<stop offset="1" stop-color="#6DC7F7"/>
</linearGradient>
<linearGradient id="paint37_linear" x1="264.575" y1="166.539" x2="328.325" y2="163.982" gradientUnits="userSpaceOnUse">
<stop stop-color="white"/>
<stop offset="1" stop-color="#DCEFFE"/>
</linearGradient>
<linearGradient id="paint38_linear" x1="265.257" y1="166.299" x2="328.317" y2="163.77" gradientUnits="userSpaceOnUse">
<stop stop-color="#0024BD"/>
<stop offset="1" stop-color="#6DC7F7"/>
</linearGradient>
<linearGradient id="paint39_linear" x1="262.011" y1="167.085" x2="330.915" y2="164.322" gradientUnits="userSpaceOnUse">
<stop stop-color="#4A125E"/>
<stop offset="1" stop-color="#BF1738"/>
</linearGradient>
<linearGradient id="paint40_linear" x1="109.857" y1="82.0349" x2="175.108" y2="84.6514" gradientUnits="userSpaceOnUse">
<stop stop-color="#0024BD"/>
<stop offset="1" stop-color="#6DC7F7"/>
</linearGradient>
<linearGradient id="paint41_linear" x1="109.836" y1="82.3002" x2="174.367" y2="84.8878" gradientUnits="userSpaceOnUse">
<stop stop-color="white"/>
<stop offset="1" stop-color="#DCEFFE"/>
</linearGradient>
<linearGradient id="paint42_linear" x1="107.844" y1="85.7433" x2="118.288" y2="68.0403" gradientUnits="userSpaceOnUse">
<stop stop-color="#170087"/>
<stop offset="0.77" stop-color="#1348E4"/>
</linearGradient>
<linearGradient id="paint43_linear" x1="108.156" y1="101.887" x2="126.469" y2="56.4432" gradientUnits="userSpaceOnUse">
<stop stop-color="#1348E4"/>
<stop offset="0.68" stop-color="#11D6CC"/>
</linearGradient>
<linearGradient id="paint44_linear" x1="116.312" y1="90.7444" x2="126.756" y2="73.0313" gradientUnits="userSpaceOnUse">
<stop stop-color="#170087"/>
<stop offset="0.77" stop-color="#1348E4"/>
</linearGradient>
<linearGradient id="paint45_linear" x1="116.515" y1="105.251" x2="134.817" y2="59.817" gradientUnits="userSpaceOnUse">
<stop stop-color="#1348E4"/>
<stop offset="0.68" stop-color="#11D6CC"/>
</linearGradient>
<linearGradient id="paint46_linear" x1="123.34" y1="108" x2="141.642" y2="62.565" gradientUnits="userSpaceOnUse">
<stop stop-color="#1348E4"/>
<stop offset="0.68" stop-color="#11D6CC"/>
</linearGradient>
<linearGradient id="paint47_linear" x1="129.166" y1="98.3199" x2="139.61" y2="80.607" gradientUnits="userSpaceOnUse">
<stop stop-color="#170087"/>
<stop offset="0.77" stop-color="#1348E4"/>
</linearGradient>
<linearGradient id="paint48_linear" x1="131.573" y1="111.32" x2="149.875" y2="65.8757" gradientUnits="userSpaceOnUse">
<stop stop-color="#1348E4"/>
<stop offset="0.68" stop-color="#11D6CC"/>
</linearGradient>
<linearGradient id="paint49_linear" x1="138.232" y1="103.667" x2="148.676" y2="85.9637" gradientUnits="userSpaceOnUse">
<stop stop-color="#170087"/>
<stop offset="0.77" stop-color="#1348E4"/>
</linearGradient>
<linearGradient id="paint50_linear" x1="141.421" y1="105.545" x2="151.865" y2="87.8326" gradientUnits="userSpaceOnUse">
<stop stop-color="#170087"/>
<stop offset="0.77" stop-color="#1348E4"/>
</linearGradient>
<linearGradient id="paint51_linear" x1="143.528" y1="116.136" x2="161.84" y2="70.7024" gradientUnits="userSpaceOnUse">
<stop stop-color="#1348E4"/>
<stop offset="0.68" stop-color="#11D6CC"/>
</linearGradient>
<linearGradient id="paint52_linear" x1="149.749" y1="118.647" x2="168.06" y2="73.2124" gradientUnits="userSpaceOnUse">
<stop stop-color="#1348E4"/>
<stop offset="0.68" stop-color="#11D6CC"/>
</linearGradient>
<linearGradient id="paint53_linear" x1="152.528" y1="112.095" x2="162.962" y2="94.3812" gradientUnits="userSpaceOnUse">
<stop stop-color="#170087"/>
<stop offset="0.77" stop-color="#1348E4"/>
</linearGradient>
<linearGradient id="paint54_linear" x1="158.089" y1="122.004" x2="176.402" y2="76.57" gradientUnits="userSpaceOnUse">
<stop stop-color="#1348E4"/>
<stop offset="0.68" stop-color="#11D6CC"/>
</linearGradient>
<linearGradient id="paint55_linear" x1="162.174" y1="117.79" x2="172.619" y2="100.077" gradientUnits="userSpaceOnUse">
<stop stop-color="#170087"/>
<stop offset="0.77" stop-color="#1348E4"/>
</linearGradient>
<linearGradient id="paint56_linear" x1="112.627" y1="10.5311" x2="170.273" y2="59.6695" gradientUnits="userSpaceOnUse">
<stop stop-color="white"/>
<stop offset="1" stop-color="#DCEFFE"/>
</linearGradient>
<linearGradient id="paint57_linear" x1="114.16" y1="36.337" x2="172.807" y2="36.337" gradientUnits="userSpaceOnUse">
<stop stop-color="#0024BD"/>
<stop offset="1" stop-color="#6DC7F7"/>
</linearGradient>
<linearGradient id="paint58_linear" x1="119.002" y1="2.84522" x2="154.582" y2="53.2529" gradientUnits="userSpaceOnUse">
<stop stop-color="#DCEFFE"/>
<stop offset="1" stop-color="#6DC7F7"/>
</linearGradient>
<linearGradient id="paint59_linear" x1="115.851" y1="5.07032" x2="151.432" y2="55.4782" gradientUnits="userSpaceOnUse">
<stop stop-color="#DCEFFE"/>
<stop offset="1" stop-color="#6DC7F7"/>
</linearGradient>
<linearGradient id="paint60_linear" x1="124.395" y1="-0.967594" x2="159.976" y2="49.4407" gradientUnits="userSpaceOnUse">
<stop stop-color="#DCEFFE"/>
<stop offset="1" stop-color="#6DC7F7"/>
</linearGradient>
<linearGradient id="paint61_linear" x1="110.137" y1="9.10302" x2="145.718" y2="59.5113" gradientUnits="userSpaceOnUse">
<stop stop-color="#DCEFFE"/>
<stop offset="1" stop-color="#6DC7F7"/>
</linearGradient>
<linearGradient id="paint62_linear" x1="114.672" y1="5.89788" x2="150.253" y2="56.3062" gradientUnits="userSpaceOnUse">
<stop stop-color="#DCEFFE"/>
<stop offset="1" stop-color="#6DC7F7"/>
</linearGradient>
<linearGradient id="paint63_linear" x1="110.248" y1="9.02236" x2="145.829" y2="59.4312" gradientUnits="userSpaceOnUse">
<stop stop-color="#DCEFFE"/>
<stop offset="1" stop-color="#6DC7F7"/>
</linearGradient>
<linearGradient id="paint64_linear" x1="112.95" y1="7.11635" x2="148.53" y2="57.5247" gradientUnits="userSpaceOnUse">
<stop stop-color="#DCEFFE"/>
<stop offset="1" stop-color="#6DC7F7"/>
</linearGradient>
<linearGradient id="paint65_linear" x1="114.754" y1="5.84611" x2="150.335" y2="56.2547" gradientUnits="userSpaceOnUse">
<stop stop-color="#DCEFFE"/>
<stop offset="1" stop-color="#6DC7F7"/>
</linearGradient>
<linearGradient id="paint66_linear" x1="118.273" y1="3.3536" x2="153.853" y2="53.7614" gradientUnits="userSpaceOnUse">
<stop stop-color="#DCEFFE"/>
<stop offset="1" stop-color="#6DC7F7"/>
</linearGradient>
<linearGradient id="paint67_linear" x1="114.64" y1="5.91916" x2="150.22" y2="56.3273" gradientUnits="userSpaceOnUse">
<stop stop-color="#DCEFFE"/>
<stop offset="1" stop-color="#6DC7F7"/>
</linearGradient>
<linearGradient id="paint68_linear" x1="121.027" y1="1.41532" x2="156.607" y2="51.8238" gradientUnits="userSpaceOnUse">
<stop stop-color="#DCEFFE"/>
<stop offset="1" stop-color="#6DC7F7"/>
</linearGradient>
<linearGradient id="paint69_linear" x1="107.636" y1="10.8691" x2="143.217" y2="61.2774" gradientUnits="userSpaceOnUse">
<stop stop-color="#DCEFFE"/>
<stop offset="1" stop-color="#6DC7F7"/>
</linearGradient>
<linearGradient id="paint70_linear" x1="110.116" y1="9.12365" x2="145.687" y2="59.5221" gradientUnits="userSpaceOnUse">
<stop stop-color="#DCEFFE"/>
<stop offset="1" stop-color="#6DC7F7"/>
</linearGradient>
<linearGradient id="paint71_linear" x1="106.708" y1="11.5265" x2="142.289" y2="61.9247" gradientUnits="userSpaceOnUse">
<stop stop-color="#DCEFFE"/>
<stop offset="1" stop-color="#6DC7F7"/>
</linearGradient>
<linearGradient id="paint72_linear" x1="105.248" y1="12.551" x2="140.828" y2="62.9595" gradientUnits="userSpaceOnUse">
<stop stop-color="#DCEFFE"/>
<stop offset="1" stop-color="#6DC7F7"/>
</linearGradient>
<linearGradient id="paint73_linear" x1="116.143" y1="4.86001" x2="151.723" y2="55.2684" gradientUnits="userSpaceOnUse">
<stop stop-color="#DCEFFE"/>
<stop offset="1" stop-color="#6DC7F7"/>
</linearGradient>
<linearGradient id="paint74_linear" x1="116.532" y1="4.58106" x2="152.113" y2="54.9891" gradientUnits="userSpaceOnUse">
<stop stop-color="#DCEFFE"/>
<stop offset="1" stop-color="#6DC7F7"/>
</linearGradient>
<linearGradient id="paint75_linear" x1="117.432" y1="3.95987" x2="153.021" y2="54.3335" gradientUnits="userSpaceOnUse">
<stop stop-color="#DCEFFE"/>
<stop offset="1" stop-color="#6DC7F7"/>
</linearGradient>
<linearGradient id="paint76_linear" x1="122.411" y1="0.435028" x2="157.991" y2="50.8433" gradientUnits="userSpaceOnUse">
<stop stop-color="#DCEFFE"/>
<stop offset="1" stop-color="#6DC7F7"/>
</linearGradient>
<linearGradient id="paint77_linear" x1="112.492" y1="7.44816" x2="148.082" y2="57.8288" gradientUnits="userSpaceOnUse">
<stop stop-color="#DCEFFE"/>
<stop offset="1" stop-color="#6DC7F7"/>
</linearGradient>
<linearGradient id="paint78_linear" x1="113.267" y1="6.90631" x2="148.858" y2="57.2766" gradientUnits="userSpaceOnUse">
<stop stop-color="#DCEFFE"/>
<stop offset="1" stop-color="#6DC7F7"/>
</linearGradient>
<linearGradient id="paint79_linear" x1="111.039" y1="8.46326" x2="146.62" y2="58.8713" gradientUnits="userSpaceOnUse">
<stop stop-color="#DCEFFE"/>
<stop offset="1" stop-color="#6DC7F7"/>
</linearGradient>
<linearGradient id="paint80_linear" x1="110.449" y1="8.88278" x2="146.03" y2="59.2807" gradientUnits="userSpaceOnUse">
<stop stop-color="#DCEFFE"/>
<stop offset="1" stop-color="#6DC7F7"/>
</linearGradient>
<linearGradient id="paint81_linear" x1="108.822" y1="10.0247" x2="144.403" y2="60.4327" gradientUnits="userSpaceOnUse">
<stop stop-color="#DCEFFE"/>
<stop offset="1" stop-color="#6DC7F7"/>
</linearGradient>
<linearGradient id="paint82_linear" x1="101.883" y1="14.922" x2="137.464" y2="65.33" gradientUnits="userSpaceOnUse">
<stop stop-color="#DCEFFE"/>
<stop offset="1" stop-color="#6DC7F7"/>
</linearGradient>
<linearGradient id="paint83_linear" x1="177.014" y1="63.7505" x2="172.603" y2="23.2065" gradientUnits="userSpaceOnUse">
<stop stop-color="#0024BD"/>
<stop offset="1" stop-color="#4A125E"/>
</linearGradient>
<linearGradient id="paint84_linear" x1="185.86" y1="61.309" x2="168.284" y2="28.3882" gradientUnits="userSpaceOnUse">
<stop stop-color="#4A125E"/>
<stop offset="1" stop-color="#BF1738"/>
</linearGradient>
<linearGradient id="paint85_linear" x1="165.381" y1="36.1391" x2="170.155" y2="36.1391" gradientUnits="userSpaceOnUse">
<stop stop-color="#6DC7F7"/>
<stop offset="1" stop-color="#DCEFFE"/>
</linearGradient>
<linearGradient id="paint86_linear" x1="175.039" y1="40.4802" x2="179.813" y2="40.4802" gradientUnits="userSpaceOnUse">
<stop stop-color="#6DC7F7"/>
<stop offset="1" stop-color="#DCEFFE"/>
</linearGradient>
</defs>
</svg>
