<svg width="441" height="227" viewBox="0 0 441 227" fill="none" xmlns="http://www.w3.org/2000/svg">
<mask id="mask0" mask-type="alpha" maskUnits="userSpaceOnUse" x="0" y="0" width="441" height="227">
<rect width="441" height="227" fill="#C4C4C4"/>
</mask>
<g mask="url(#mask0)">
<path d="M510.29 244.06L334.06 142.33C331.17 140.67 328.81 136.94 328.81 134.05V69.17C328.81 66.28 331.17 65.2799 334.06 66.9499L510.29 168.68C513.18 170.34 515.54 174.07 515.54 176.96V241.84C515.5 244.73 513.14 245.73 510.29 244.06Z" fill="url(#paint0_linear)"/>
<path d="M504 216.03L340.29 121.52C337.4 119.86 335.04 116.13 335.04 113.24V97.24C335.04 94.35 337.4 93.35 340.29 95.02L504 189.53C506.89 191.19 509.25 194.92 509.25 197.81V213.81C509.29 216.7 506.89 217.7 504 216.03Z" fill="url(#paint1_linear)"/>
<path d="M378.4 111L337.56 87.42C336.15 86.58 335.22 85.1099 335.06 83.4799V77.9699C335.06 76.5999 336.18 76.1199 337.56 76.9699L378.4 100.54C379.82 101.4 380.75 102.88 380.9 104.54V109.95C380.9 111.32 379.77 111.79 378.4 111Z" fill="url(#paint2_linear)"/>
<path d="M429.47 140.48L388.63 116.9C387.21 116.04 386.29 114.55 386.13 112.9V107.4C386.13 106.03 387.26 105.55 388.63 106.4L429.47 129.97C430.9 130.82 431.83 132.31 431.97 133.97V139.47C432 140.8 430.85 141.25 429.47 140.48Z" fill="url(#paint3_linear)"/>
<path d="M506.75 185.1L440.66 146.9C439.25 146.06 438.32 144.59 438.16 142.96V137.46C438.16 136.08 439.28 135.61 440.66 136.4L506.75 174.56C508.16 175.4 509.09 176.86 509.25 178.5V184.01C509.29 185.42 508.13 185.9 506.75 185.1Z" fill="url(#paint4_linear)"/>
<path d="M506.29 233.8L338.06 136.7C336.37 135.68 335.26 133.93 335.06 131.97V127.46C335.06 125.81 336.41 125.24 338.06 126.2L506.29 223.3C507.99 224.31 509.1 226.07 509.29 228.03V232.54C509.29 234.19 507.9 234.76 506.29 233.8Z" fill="url(#paint5_linear)"/>
<path d="M70.02 13.95L115.36 40.12L116.29 40.67V34.2L101.61 25.71V25.72L95.91 22.4301V22.42L90.89 19.52V19.53L85.21 16.24V16.23L76.09 10.96V10.98L60.62 2.04004L49.73 -4.25L6.48999 -29.22V-22.75L59.66 7.95996L70.02 13.95Z" fill="url(#paint6_linear)"/>
<path d="M40.9501 26.73L55.6301 35.22V28.75L40.9501 20.26V26.73Z" fill="url(#paint7_linear)"/>
<path d="M35.26 16.98L6.48999 0.339966V6.81006L35.26 23.45V16.98Z" fill="url(#paint8_linear)"/>
<path d="M88.9901 121.84L60.2101 105.21V111.68L88.9901 128.31V121.84Z" fill="url(#paint9_linear)"/>
<path d="M54.5101 101.92L45.3901 96.65V103.12L54.5101 108.39V101.92Z" fill="url(#paint10_linear)"/>
<path d="M88.8 92.24L60.02 75.6V82.0699L88.8 98.71V92.24Z" fill="url(#paint11_linear)"/>
<path d="M54.34 72.3101L45.22 67.05V73.52L54.34 78.78V72.3101Z" fill="url(#paint12_linear)"/>
<path d="M6.30005 214.57L60.5001 245.91V239.43L6.30005 208.1V214.57Z" fill="url(#paint13_linear)"/>
<path d="M20.9901 201.81L6.30005 193.32V199.79L20.9901 208.28V201.81Z" fill="url(#paint14_linear)"/>
<path d="M26.6801 211.57L55.4501 228.2V221.73L26.6801 205.1V211.57Z" fill="url(#paint15_linear)"/>
<path d="M70.2501 230.29L61.1301 225.02V231.49L70.2501 236.76V230.29Z" fill="url(#paint16_linear)"/>
<path d="M111.03 239.06L105.35 235.77V235.76L90.6501 227.27V227.28L42.04 199.2V205.67L69.4601 221.51V221.52L84.14 230.01V230L139.8 262.15V255.68L111.03 239.05V239.06Z" fill="url(#paint17_linear)"/>
<path d="M36.3501 195.91L6.30005 178.54V185.01L36.3501 202.38V195.91Z" fill="url(#paint18_linear)"/>
<path d="M200.89 83L170.85 65.63V72.1L200.89 89.47V83Z" fill="url(#paint19_linear)"/>
<path d="M165.15 62.34L143.42 49.78V56.25L165.15 68.8101V62.34Z" fill="url(#paint20_linear)"/>
<path d="M137.73 46.49L123.04 38V44.47L137.73 52.96V46.49Z" fill="url(#paint21_linear)"/>
<path d="M74.6501 105.32V98.85L45.3901 81.9399V88.41L64.5001 99.46L74.6501 105.32Z" fill="url(#paint22_linear)"/>
<path d="M271.86 317.09L257.17 308.6V308.61L251.49 305.32V305.31L229.75 292.75V292.77L224.05 289.48V289.46L194 272.09V272.13L160.47 252.76L113.15 225.42V225.44L6.48999 163.85V170.32L42.23 190.96V190.97L63.96 203.53V203.5L69.64 206.79V206.83L84.34 215.31V215.27L90.65 218.92V218.95L105.35 227.44V227.4L160.46 259.23L167.37 263.22L173.05 266.5V266.51L186.47 274.26V274.25L271.86 323.56V317.09Z" fill="url(#paint23_linear)"/>
<path d="M16.63 154.93L6.48999 149.06V155.54L16.63 161.4V154.93Z" fill="url(#paint24_linear)"/>
<path d="M22.3201 164.69L35.7401 172.44V165.97L22.3201 158.22V164.69Z" fill="url(#paint25_linear)"/>
<path d="M41.4401 175.73L63.04 188.22V181.75L41.4401 169.26V175.73Z" fill="url(#paint26_linear)"/>
<path d="M70.8201 52.23V58.7L80.97 64.5601V58.09L70.8201 52.23Z" fill="url(#paint27_linear)"/>
<path d="M51.7101 47.65L65.1301 55.4V48.9301L51.7101 41.1801V47.65Z" fill="url(#paint28_linear)"/>
<path d="M46.01 37.89L24.4 25.4V31.87L46.01 44.37V37.89Z" fill="url(#paint29_linear)"/>
<path d="M53.42 63.42L110.21 95.1801V88.71L53.42 56.95V63.42Z" fill="url(#paint30_linear)"/>
<path d="M47.7401 53.66L38.6201 48.39V54.87L47.7401 60.13V53.66Z" fill="url(#paint31_linear)"/>
<path d="M33.52 45.45L24.4 40.1801V46.65L33.52 51.92V45.45Z" fill="url(#paint32_linear)"/>
<path d="M67.8 140.34L39.04 123.71V130.18L67.8 146.81V140.34Z" fill="url(#paint33_linear)"/>
<path d="M24.2301 121.62L33.3501 126.89V120.42L24.2301 115.15V121.62Z" fill="url(#paint34_linear)"/>
<path d="M43.51 141.09V147.56L53.66 153.42V146.95L43.51 141.09Z" fill="url(#paint35_linear)"/>
<path d="M84.4901 141.57V135.1L74.3401 129.24V135.71L84.4901 141.57Z" fill="url(#paint36_linear)"/>
<path d="M113.15 151.65L88.8 137.59V144.06L113.15 158.13V151.65Z" fill="url(#paint37_linear)"/>
<path d="M117.48 160.61L131.96 168.99V162.51L117.48 154.14V160.61Z" fill="url(#paint38_linear)"/>
<path d="M37.81 137.8L24.4 130.04V136.51L37.81 144.27V137.8Z" fill="url(#paint39_linear)"/>
<path d="M35.7401 151.1L25.6001 145.23V151.7L35.7401 157.57V151.1Z" fill="url(#paint40_linear)"/>
<path d="M19.89 141.94L6.48999 134.19V140.66L19.89 148.41V141.94Z" fill="url(#paint41_linear)"/>
<path d="M68.7301 126L59.6101 120.74V127.21L68.7301 132.47V126Z" fill="url(#paint42_linear)"/>
<path d="M54.5101 117.79L45.3901 112.52V118.99L54.5101 124.26V117.79Z" fill="url(#paint43_linear)"/>
<path d="M33.92 7.80005L43.04 13.0699L48.13 16.01L53.49 19.11L62.93 24.5699L92.07 41.41V41.4L97.75 44.6899V44.7L128.85 62.66L213.38 111.52V105.05L183.33 87.6801L177.63 84.39L155.89 71.83L150.21 68.54L135.52 60.05L6.48999 -14.53V-8.06006L33.92 7.80005Z" fill="url(#paint44_linear)"/>
<path d="M525.73 371.1L364.73 277.47C361.89 275.83 359.59 272.2 359.59 269.36V170.44C359.59 167.6 361.89 166.62 364.73 168.26L525.73 261.9C528.57 263.54 530.87 267.17 530.87 270.01V368.9C530.87 371.77 528.57 372.74 525.73 371.1Z" fill="url(#paint45_linear)"/>
<path d="M151.48 45.64L88.0801 9.03999C86.5901 8.12999 85.6 6.56991 85.42 4.82991V-58.5601C85.42 -60.0301 86.6201 -60.56 88.0801 -59.69L151.48 -23.1C152.99 -22.2 153.98 -20.6401 154.15 -18.8901V44.5C154.15 45.98 153 46.49 151.48 45.64Z" fill="url(#paint46_linear)"/>
<path d="M409.45 203.9L88.4501 18.59C87.8101 18.14 86.9701 18.0601 86.2601 18.4001L78.9501 22.1601L85.0601 35.0201V164.46C85.1201 167.02 86.3701 169.41 88.4501 170.9L404.29 360.25L411.62 356.5L411.74 356.43C412.55 355.78 412.97 354.76 412.85 353.73V210.39C412.81 207.81 411.55 205.4 409.45 203.9Z" fill="url(#paint47_linear)"/>
<path d="M268.52 112.69C280.79 118.69 291.52 134.75 292.45 148.49C292.93 155.37 290.86 160.36 287.14 162.88L283.29 165.5L283.7 164.39C280.42 165.17 276.42 164.59 272.01 162.39C259.75 156.39 249.01 140.32 248.08 126.59C247.75 121.87 248.62 118.04 250.4 115.28L249.4 114.88L253.4 112.22L253.56 112.11C257.21 109.73 262.49 109.72 268.52 112.69Z" fill="url(#paint48_linear)"/>
<path d="M249.49 114.86C257.56 109.52 271.62 116.55 280.91 130.57C290.2 144.59 291.19 160.29 283.12 165.63C275.05 170.97 260.99 163.94 251.7 149.92C242.41 135.9 241.42 120.2 249.49 114.86Z" fill="url(#paint49_linear)"/>
<path d="M266 17.3C281.87 25.11 295.74 45.85 297 63.62C297.62 72.52 295 78.99 290.13 82.25L285.13 85.64L285.66 84.1999C281.42 85.1999 276.24 84.47 270.53 81.66C254.66 73.85 240.8 53.11 239.53 35.34C239.11 29.23 240.23 24.2699 242.53 20.6999L241.22 20.1899L246.34 16.74H246.41L246.61 16.6C251.41 13.47 258.29 13.46 266 17.3Z" fill="url(#paint50_linear)"/>
<path d="M241.42 20.09C251.86 13.18 270.06 22.2801 282.08 40.4201C294.1 58.5601 295.38 78.8701 284.94 85.7901C274.5 92.7101 256.3 83.6 244.28 65.46C232.26 47.31 230.98 27 241.42 20.09Z" fill="url(#paint51_linear)"/>
<path d="M222.23 57.5799C234.5 63.5799 245.23 79.64 246.16 93.37C246.64 100.25 244.58 105.25 240.86 107.77L236.96 110.39L237.37 109.28C234.09 110.06 230.09 109.48 225.68 107.28C213.42 101.28 202.68 85.22 201.75 71.49C201.43 66.77 202.29 62.93 204.07 60.18L203.07 59.78L207.07 57.12L207.23 57.02C210.92 54.61 216.2 54.6099 222.23 57.5799Z" fill="url(#paint52_linear)"/>
<path d="M197.65 56.67C205.68 51.35 219.69 58.35 228.94 72.31C238.19 86.27 239.18 101.9 231.15 107.22C223.12 112.54 209.11 105.54 199.86 91.5799C190.61 77.6199 189.62 61.99 197.65 56.67Z" fill="url(#paint53_linear)"/>
<path d="M88.63 34.3399C88.63 35.4799 87.83 35.9399 86.83 35.3399C85.77 34.6599 85.09 33.51 85 32.25C85 31.1 85.8 30.64 86.79 31.25C87.87 31.92 88.55 33.0699 88.63 34.3399Z" fill="white"/>
<path d="M93.8247 38.7786C94.523 38.3754 94.5204 37.0637 93.819 35.8489C93.1176 34.6341 91.9829 33.9761 91.2846 34.3792C90.5864 34.7824 90.5889 36.0941 91.2903 37.3089C91.9917 38.5238 93.1264 39.1818 93.8247 38.7786Z" fill="white"/>
<path d="M100.11 40.96C100.11 42.11 99.3 42.57 98.31 41.96C97.27 41.27 96.61 40.1401 96.52 38.9001C96.52 37.7601 97.32 37.2901 98.31 37.9001C99.35 38.5801 100.02 39.71 100.11 40.96Z" fill="white"/>
<path d="M402.29 359.9L81.2901 174.63C79.2001 173.12 77.9401 170.72 77.9001 168.14V38.71L405.66 227.9V357.37C405.66 359.9 404.14 361.02 402.29 359.9Z" fill="url(#paint54_linear)"/>
<path d="M81.2901 22.2501L402.29 207.56C404.39 209.05 405.66 211.46 405.69 214.04V227.87L77.9001 38.71V24.84C77.9001 22.34 79.4201 21.1901 81.2901 22.2501Z" fill="url(#paint55_linear)"/>
<path d="M87.4401 35.0201C87.4401 36.1601 86.6401 36.6301 85.6501 36.0201C84.6001 35.3201 83.9301 34.1701 83.8601 32.9101C83.8601 31.7701 84.6601 31.3001 85.6501 31.9101C86.7001 32.6101 87.3701 33.7601 87.4401 35.0201Z" fill="#DCEFFE"/>
<path d="M93.1801 38.33C93.1801 39.48 92.3801 39.94 91.3901 39.33C90.3301 38.64 89.6601 37.48 89.5901 36.22C89.5901 35.08 90.4001 34.62 91.3901 35.22C92.4401 35.92 93.1101 37.07 93.1801 38.33Z" fill="#DCEFFE"/>
<path d="M98.92 41.65C98.92 42.79 98.1201 43.25 97.1301 42.65C96.0701 41.96 95.4101 40.81 95.3301 39.55C95.3301 38.4 96.1401 37.94 97.1301 38.55C98.1801 39.24 98.84 40.39 98.92 41.65Z" fill="#DCEFFE"/>
<path d="M113.85 110.86L166.24 141.11V136.5L113.85 106.25V110.86Z" fill="url(#paint56_linear)"/>
<path d="M139.08 116.67L166.24 132.35V127.74L139.08 112.06V116.67Z" fill="url(#paint57_linear)"/>
<path d="M150.02 141.57L166.24 150.93V146.32L150.02 136.96V141.57Z" fill="url(#paint58_linear)"/>
<path d="M130.97 130.57L147.18 139.93V135.32L130.97 125.96V130.57Z" fill="url(#paint59_linear)"/>
<path d="M109.27 99.46L136.43 115.14V110.53L109.27 94.85V99.46Z" fill="url(#paint60_linear)"/>
<path d="M113.07 154.25C112.82 153.57 112.49 152.92 112.07 152.33C111.63 151.67 111.12 151.06 110.55 150.5C109.95 149.88 109.31 149.3 108.63 148.76L108.17 148.39V144.51C108.55 144.8 108.88 145.13 109.17 145.51C109.63 146.06 109.91 146.73 109.98 147.44L113.22 149.31C113.2 148.26 112.93 147.24 112.45 146.31C111.92 145.24 111.22 144.27 110.38 143.42C109.77 142.77 109.1 142.17 108.38 141.65V139.83L106.54 138.77V140.58C105.83 140.22 105.07 139.97 104.29 139.84C103.54 139.69 102.76 139.85 102.13 140.29C101.57 140.83 101.28 141.6 101.36 142.38C101.38 143.63 101.79 144.85 102.52 145.87C103.42 147.14 104.49 148.27 105.71 149.24L106.46 149.86V153.97C106.23 153.79 106.02 153.61 105.81 153.41C105.37 152.99 105 152.5 104.71 151.97C104.45 151.47 104.29 150.92 104.25 150.36L100.98 148.48C101.01 149.65 101.29 150.8 101.82 151.85C102.39 152.97 103.15 153.98 104.05 154.85C104.78 155.57 105.58 156.22 106.43 156.78V158.58L108.27 159.64V157.85C109.05 158.27 109.88 158.56 110.75 158.72C111.49 158.91 112.27 158.75 112.87 158.29C113.41 157.73 113.68 156.96 113.61 156.18C113.55 155.51 113.37 154.85 113.07 154.25ZM106.23 146.74C105.94 146.47 105.67 146.18 105.41 145.87C105.19 145.61 105.01 145.32 104.86 145.01C104.74 144.74 104.68 144.45 104.68 144.15C104.66 143.87 104.77 143.59 104.98 143.4C105.24 143.24 105.55 143.19 105.85 143.27C106.03 143.31 106.21 143.36 106.38 143.42V146.85L106.23 146.74ZM109.67 155.07C109.37 155.25 109.01 155.29 108.67 155.19C108.48 155.15 108.29 155.1 108.1 155.03V151.41C108.33 151.61 108.55 151.82 108.74 152.01C109.1 152.35 109.41 152.74 109.66 153.16C109.87 153.49 109.99 153.86 110 154.25C110.05 154.56 109.93 154.87 109.69 155.07H109.67V155.07Z" fill="url(#paint61_linear)"/>
<path d="M166.24 191.71L116.99 163.27V146.45L166.24 174.89V191.71Z" fill="url(#paint62_linear)"/>
<path d="M203.16 172.49L187.5 136.33L171.85 154.41L182.26 160.43V203L192.74 209.04V166.47L203.16 172.49Z" fill="url(#paint63_linear)"/>
<path d="M369.13 260.7L316.75 230.45V225.84L369.13 256.09V260.7Z" fill="url(#paint64_linear)"/>
<path d="M348.01 237.3L316.75 219.24V214.63L348.01 232.69V237.3Z" fill="url(#paint65_linear)"/>
<path d="M279.82 235.68L295.48 271.84L311.13 253.76L300.71 247.74V205.17L290.24 199.13V241.7L279.82 235.68Z" fill="url(#paint66_linear)"/>
<path d="M229.9 176.12C234.29 172.86 242.53 176.5 248.3 184.27C254.07 192.04 255.19 200.98 250.8 204.24C246.41 207.5 238.17 203.86 232.4 196.09C226.63 188.33 225.51 179.39 229.9 176.12Z" fill="url(#paint67_linear)"/>
<path d="M240.29 207.13C227.36 199.56 216.82 203.95 216.74 216.92L263.57 244.32C263.61 231.35 253.19 214.69 240.29 207.13Z" fill="url(#paint68_linear)"/>
<path d="M229.9 176.12C234.29 172.86 242.53 176.5 248.3 184.27C254.07 192.04 255.19 200.98 250.8 204.24C246.41 207.5 238.17 203.86 232.4 196.09C226.63 188.33 225.51 179.39 229.9 176.12Z" fill="url(#paint69_linear)"/>
<path d="M240.29 207.13C227.36 199.56 216.82 203.95 216.74 216.92L263.57 244.32C263.61 231.35 253.19 214.69 240.29 207.13Z" fill="url(#paint70_linear)"/>
<path d="M266.29 241.62C266.36 228.62 255.94 211.99 243.01 204.43C236.39 200.55 230.39 199.81 226.11 201.75C225.38 202.09 224.68 202.51 224.04 203C223.73 203.25 223.43 203.52 223.14 203.81L220.89 206.06L221.3 206.29C220.06 208.74 219.45 211.45 219.5 214.19L255.23 235.09L263.6 244.29L266.29 241.62Z" fill="url(#paint71_linear)"/>
<path d="M240.29 207.13C227.36 199.56 216.82 203.95 216.74 216.92L263.57 244.32C263.61 231.35 253.19 214.69 240.29 207.13Z" fill="url(#paint72_linear)"/>
<path d="M254.4 200.76C255.67 199.19 256.32 197.2 256.22 195.18C256.22 187.9 250.41 178.56 243.16 174.32C239.16 171.97 235.56 171.68 233.16 173.11C232.8 173.32 232.46 173.57 232.16 173.86L229.77 176.26L230.5 176.61C230.18 177.64 230.02 178.71 230.02 179.78C230.02 187.06 235.83 196.4 243.08 200.64C246.08 202.39 248.82 202.99 251.08 202.64L251.48 203.78L254 201.25C254.16 201.11 254.31 200.96 254.46 200.8L254.4 200.76Z" fill="url(#paint73_linear)"/>
<path d="M229.9 176.12C234.29 172.86 242.53 176.5 248.3 184.27C254.07 192.04 255.19 200.98 250.8 204.24C246.41 207.5 238.17 203.86 232.4 196.09C226.63 188.33 225.51 179.39 229.9 176.12Z" fill="url(#paint74_linear)"/>
<path d="M145.36 249.25L14.6901 173.8C11.8001 172.14 9.44006 168.41 9.44006 165.52V149.8C9.44006 146.91 11.8001 145.91 14.6901 147.58L145.36 223.03C148.25 224.69 150.62 228.42 150.62 231.31V247.03C150.62 249.9 148.29 250.9 145.36 249.25Z" fill="url(#paint75_linear)"/>
<path d="M139.42 237.9L40.9 181.06C39.77 180.38 39.03 179.21 38.9 177.9V171.4C38.9 170.29 39.8 169.92 40.9 170.55L139.42 227.44C140.56 228.11 141.3 229.28 141.42 230.59V237.09C141.42 238.25 140.53 238.58 139.42 237.9Z" fill="url(#paint76_linear)"/>
<path d="M33.2901 178.1L29.8301 172.65C30.8501 171.74 31.3901 170.4 31.2901 169.04C31.2901 164.84 27.8901 159.47 23.6901 157.04C19.4901 154.61 16.0901 156.04 16.0901 160.25C16.0901 164.46 19.4901 169.82 23.6901 172.25C25.0001 173.1 26.5601 173.5 28.1201 173.37L31.5801 178.82C31.8001 179.17 32.1001 179.47 32.4501 179.69C32.7001 179.87 33.0201 179.92 33.3201 179.83C33.7601 179.63 33.7601 178.9 33.2901 178.1ZM18.7301 161.81C18.7301 159.09 20.9301 158.16 23.6501 159.73C26.3701 161.3 28.5701 164.73 28.5701 167.49C28.5701 170.25 26.3701 171.14 23.6501 169.58C20.9301 168.02 18.7301 164.53 18.7301 161.81Z" fill="url(#paint77_linear)"/>
<path d="M101.94 9.96995C101.94 -12.81 120.41 -20.62 143.18 -7.45998C165.95 5.70002 184.43 34.81 184.43 57.54" stroke="url(#paint78_linear)" stroke-width="6" stroke-linecap="round" stroke-linejoin="round"/>
<path d="M101.94 9.96995C101.94 -12.81 120.41 -20.62 143.18 -7.45998C152.07 -2.15998 159.91 4.75001 166.29 12.9" stroke="url(#paint79_linear)" stroke-width="6" stroke-linecap="round" stroke-linejoin="round"/>
<path d="M0 0V227H441V0H0ZM440.45 226.498H0.5V0.501525H440.5L440.45 226.498Z" fill="#CBCBCB"/>
</g>
<defs>
<linearGradient id="paint0_linear" x1="527.369" y1="245.721" x2="334.369" y2="80.2011" gradientUnits="userSpaceOnUse">
<stop stop-color="white"/>
<stop offset="1" stop-color="#DCEFFE"/>
</linearGradient>
<linearGradient id="paint1_linear" x1="335.04" y1="155.525" x2="509.251" y2="155.525" gradientUnits="userSpaceOnUse">
<stop stop-color="white"/>
<stop offset="1" stop-color="#DCEFFE"/>
</linearGradient>
<linearGradient id="paint2_linear" x1="335.06" y1="93.9651" x2="380.9" y2="93.9651" gradientUnits="userSpaceOnUse">
<stop stop-color="white"/>
<stop offset="1" stop-color="#DCEFFE"/>
</linearGradient>
<linearGradient id="paint3_linear" x1="386.13" y1="123.416" x2="431.971" y2="123.416" gradientUnits="userSpaceOnUse">
<stop stop-color="white"/>
<stop offset="1" stop-color="#DCEFFE"/>
</linearGradient>
<linearGradient id="paint4_linear" x1="438.16" y1="160.752" x2="509.251" y2="160.752" gradientUnits="userSpaceOnUse">
<stop stop-color="white"/>
<stop offset="1" stop-color="#DCEFFE"/>
</linearGradient>
<linearGradient id="paint5_linear" x1="335.06" y1="180" x2="509.29" y2="180" gradientUnits="userSpaceOnUse">
<stop stop-color="white"/>
<stop offset="1" stop-color="#DCEFFE"/>
</linearGradient>
<linearGradient id="paint6_linear" x1="230.412" y1="174.748" x2="100.712" y2="45.0475" gradientUnits="userSpaceOnUse">
<stop stop-color="#EBF0F7" stop-opacity="0"/>
<stop offset="0.21" stop-color="#E5EBF2" stop-opacity="0.02"/>
<stop offset="0.42" stop-color="#D4DBE3" stop-opacity="0.1"/>
<stop offset="0.63" stop-color="#B7C1CA" stop-opacity="0.22"/>
<stop offset="0.84" stop-color="#8E9DA7" stop-opacity="0.39"/>
<stop offset="0.85" stop-color="#8C9BA5" stop-opacity="0.4"/>
</linearGradient>
<linearGradient id="paint7_linear" x1="212.85" y1="192.3" x2="83.1603" y2="62.6095" gradientUnits="userSpaceOnUse">
<stop stop-color="#EBF0F7" stop-opacity="0"/>
<stop offset="0.21" stop-color="#E5EBF2" stop-opacity="0.02"/>
<stop offset="0.42" stop-color="#D4DBE3" stop-opacity="0.1"/>
<stop offset="0.63" stop-color="#B7C1CA" stop-opacity="0.22"/>
<stop offset="0.84" stop-color="#8E9DA7" stop-opacity="0.39"/>
<stop offset="0.85" stop-color="#8C9BA5" stop-opacity="0.4"/>
</linearGradient>
<linearGradient id="paint8_linear" x1="207.077" y1="198.083" x2="77.3718" y2="68.3871" gradientUnits="userSpaceOnUse">
<stop stop-color="#EBF0F7" stop-opacity="0"/>
<stop offset="0.21" stop-color="#E5EBF2" stop-opacity="0.02"/>
<stop offset="0.42" stop-color="#D4DBE3" stop-opacity="0.1"/>
<stop offset="0.63" stop-color="#B7C1CA" stop-opacity="0.22"/>
<stop offset="0.84" stop-color="#8E9DA7" stop-opacity="0.39"/>
<stop offset="0.85" stop-color="#8C9BA5" stop-opacity="0.4"/>
</linearGradient>
<linearGradient id="paint9_linear" x1="181.504" y1="223.656" x2="51.7978" y2="93.9608" gradientUnits="userSpaceOnUse">
<stop stop-color="#EBF0F7" stop-opacity="0"/>
<stop offset="0.21" stop-color="#E5EBF2" stop-opacity="0.02"/>
<stop offset="0.42" stop-color="#D4DBE3" stop-opacity="0.1"/>
<stop offset="0.63" stop-color="#B7C1CA" stop-opacity="0.22"/>
<stop offset="0.84" stop-color="#8E9DA7" stop-opacity="0.39"/>
<stop offset="0.85" stop-color="#8C9BA5" stop-opacity="0.4"/>
</linearGradient>
<linearGradient id="paint10_linear" x1="176.29" y1="228.86" x2="46.6002" y2="99.17" gradientUnits="userSpaceOnUse">
<stop stop-color="#EBF0F7" stop-opacity="0"/>
<stop offset="0.21" stop-color="#E5EBF2" stop-opacity="0.02"/>
<stop offset="0.42" stop-color="#D4DBE3" stop-opacity="0.1"/>
<stop offset="0.63" stop-color="#B7C1CA" stop-opacity="0.22"/>
<stop offset="0.84" stop-color="#8E9DA7" stop-opacity="0.39"/>
<stop offset="0.85" stop-color="#8C9BA5" stop-opacity="0.4"/>
</linearGradient>
<linearGradient id="paint11_linear" x1="196.207" y1="208.952" x2="66.4827" y2="79.2276" gradientUnits="userSpaceOnUse">
<stop stop-color="#EBF0F7" stop-opacity="0"/>
<stop offset="0.21" stop-color="#E5EBF2" stop-opacity="0.02"/>
<stop offset="0.42" stop-color="#D4DBE3" stop-opacity="0.1"/>
<stop offset="0.63" stop-color="#B7C1CA" stop-opacity="0.22"/>
<stop offset="0.84" stop-color="#8E9DA7" stop-opacity="0.39"/>
<stop offset="0.85" stop-color="#8C9BA5" stop-opacity="0.4"/>
</linearGradient>
<linearGradient id="paint12_linear" x1="191.024" y1="214.147" x2="61.324" y2="84.4561" gradientUnits="userSpaceOnUse">
<stop stop-color="#EBF0F7" stop-opacity="0"/>
<stop offset="0.21" stop-color="#E5EBF2" stop-opacity="0.02"/>
<stop offset="0.42" stop-color="#D4DBE3" stop-opacity="0.1"/>
<stop offset="0.63" stop-color="#B7C1CA" stop-opacity="0.22"/>
<stop offset="0.84" stop-color="#8E9DA7" stop-opacity="0.39"/>
<stop offset="0.85" stop-color="#8C9BA5" stop-opacity="0.4"/>
</linearGradient>
<linearGradient id="paint13_linear" x1="105.78" y1="299.38" x2="-23.9101" y2="169.69" gradientUnits="userSpaceOnUse">
<stop stop-color="#EBF0F7" stop-opacity="0"/>
<stop offset="0.21" stop-color="#E5EBF2" stop-opacity="0.02"/>
<stop offset="0.42" stop-color="#D4DBE3" stop-opacity="0.1"/>
<stop offset="0.63" stop-color="#B7C1CA" stop-opacity="0.22"/>
<stop offset="0.84" stop-color="#8E9DA7" stop-opacity="0.39"/>
<stop offset="0.85" stop-color="#8C9BA5" stop-opacity="0.4"/>
</linearGradient>
<linearGradient id="paint14_linear" x1="109.003" y1="296.158" x2="-20.6882" y2="166.468" gradientUnits="userSpaceOnUse">
<stop stop-color="#EBF0F7" stop-opacity="0"/>
<stop offset="0.21" stop-color="#E5EBF2" stop-opacity="0.02"/>
<stop offset="0.42" stop-color="#D4DBE3" stop-opacity="0.1"/>
<stop offset="0.63" stop-color="#B7C1CA" stop-opacity="0.22"/>
<stop offset="0.84" stop-color="#8E9DA7" stop-opacity="0.39"/>
<stop offset="0.85" stop-color="#8C9BA5" stop-opacity="0.4"/>
</linearGradient>
<linearGradient id="paint15_linear" x1="114.793" y1="290.377" x2="-14.8823" y2="160.702" gradientUnits="userSpaceOnUse">
<stop stop-color="#EBF0F7" stop-opacity="0"/>
<stop offset="0.21" stop-color="#E5EBF2" stop-opacity="0.02"/>
<stop offset="0.42" stop-color="#D4DBE3" stop-opacity="0.1"/>
<stop offset="0.63" stop-color="#B7C1CA" stop-opacity="0.22"/>
<stop offset="0.84" stop-color="#8E9DA7" stop-opacity="0.39"/>
<stop offset="0.85" stop-color="#8C9BA5" stop-opacity="0.4"/>
</linearGradient>
<linearGradient id="paint16_linear" x1="119.98" y1="285.18" x2="-9.7198" y2="155.48" gradientUnits="userSpaceOnUse">
<stop stop-color="#EBF0F7" stop-opacity="0"/>
<stop offset="0.21" stop-color="#E5EBF2" stop-opacity="0.02"/>
<stop offset="0.42" stop-color="#D4DBE3" stop-opacity="0.1"/>
<stop offset="0.63" stop-color="#B7C1CA" stop-opacity="0.22"/>
<stop offset="0.84" stop-color="#8E9DA7" stop-opacity="0.39"/>
<stop offset="0.85" stop-color="#8C9BA5" stop-opacity="0.4"/>
</linearGradient>
<linearGradient id="paint17_linear" x1="132.703" y1="272.458" x2="3.00237" y2="142.758" gradientUnits="userSpaceOnUse">
<stop stop-color="#EBF0F7" stop-opacity="0"/>
<stop offset="0.21" stop-color="#E5EBF2" stop-opacity="0.02"/>
<stop offset="0.42" stop-color="#D4DBE3" stop-opacity="0.1"/>
<stop offset="0.63" stop-color="#B7C1CA" stop-opacity="0.22"/>
<stop offset="0.84" stop-color="#8E9DA7" stop-opacity="0.39"/>
<stop offset="0.85" stop-color="#8C9BA5" stop-opacity="0.4"/>
</linearGradient>
<linearGradient id="paint18_linear" x1="118.021" y1="287.149" x2="-11.6785" y2="157.459" gradientUnits="userSpaceOnUse">
<stop stop-color="#EBF0F7" stop-opacity="0"/>
<stop offset="0.21" stop-color="#E5EBF2" stop-opacity="0.02"/>
<stop offset="0.42" stop-color="#D4DBE3" stop-opacity="0.1"/>
<stop offset="0.63" stop-color="#B7C1CA" stop-opacity="0.22"/>
<stop offset="0.84" stop-color="#8E9DA7" stop-opacity="0.39"/>
<stop offset="0.85" stop-color="#8C9BA5" stop-opacity="0.4"/>
</linearGradient>
<linearGradient id="paint19_linear" x1="256.743" y1="148.417" x2="127.043" y2="18.7269" gradientUnits="userSpaceOnUse">
<stop stop-color="#EBF0F7" stop-opacity="0"/>
<stop offset="0.21" stop-color="#E5EBF2" stop-opacity="0.02"/>
<stop offset="0.42" stop-color="#D4DBE3" stop-opacity="0.1"/>
<stop offset="0.63" stop-color="#B7C1CA" stop-opacity="0.22"/>
<stop offset="0.84" stop-color="#8E9DA7" stop-opacity="0.39"/>
<stop offset="0.85" stop-color="#8C9BA5" stop-opacity="0.4"/>
</linearGradient>
<linearGradient id="paint20_linear" x1="250.077" y1="155.094" x2="120.386" y2="25.3935" gradientUnits="userSpaceOnUse">
<stop stop-color="#EBF0F7" stop-opacity="0"/>
<stop offset="0.21" stop-color="#E5EBF2" stop-opacity="0.02"/>
<stop offset="0.42" stop-color="#D4DBE3" stop-opacity="0.1"/>
<stop offset="0.63" stop-color="#B7C1CA" stop-opacity="0.22"/>
<stop offset="0.84" stop-color="#8E9DA7" stop-opacity="0.39"/>
<stop offset="0.85" stop-color="#8C9BA5" stop-opacity="0.4"/>
</linearGradient>
<linearGradient id="paint21_linear" x1="245.033" y1="160.127" x2="115.333" y2="30.4271" gradientUnits="userSpaceOnUse">
<stop stop-color="#EBF0F7" stop-opacity="0"/>
<stop offset="0.21" stop-color="#E5EBF2" stop-opacity="0.02"/>
<stop offset="0.42" stop-color="#D4DBE3" stop-opacity="0.1"/>
<stop offset="0.63" stop-color="#B7C1CA" stop-opacity="0.22"/>
<stop offset="0.84" stop-color="#8E9DA7" stop-opacity="0.39"/>
<stop offset="0.85" stop-color="#8C9BA5" stop-opacity="0.4"/>
</linearGradient>
<linearGradient id="paint22_linear" x1="185.77" y1="219.38" x2="56.0801" y2="89.6899" gradientUnits="userSpaceOnUse">
<stop stop-color="#EBF0F7" stop-opacity="0"/>
<stop offset="0.21" stop-color="#E5EBF2" stop-opacity="0.02"/>
<stop offset="0.42" stop-color="#D4DBE3" stop-opacity="0.1"/>
<stop offset="0.63" stop-color="#B7C1CA" stop-opacity="0.22"/>
<stop offset="0.84" stop-color="#8E9DA7" stop-opacity="0.39"/>
<stop offset="0.85" stop-color="#8C9BA5" stop-opacity="0.4"/>
</linearGradient>
<linearGradient id="paint23_linear" x1="150.315" y1="254.845" x2="20.6245" y2="125.146" gradientUnits="userSpaceOnUse">
<stop stop-color="#EBF0F7" stop-opacity="0"/>
<stop offset="0.21" stop-color="#E5EBF2" stop-opacity="0.02"/>
<stop offset="0.42" stop-color="#D4DBE3" stop-opacity="0.1"/>
<stop offset="0.63" stop-color="#B7C1CA" stop-opacity="0.22"/>
<stop offset="0.84" stop-color="#8E9DA7" stop-opacity="0.39"/>
<stop offset="0.85" stop-color="#8C9BA5" stop-opacity="0.4"/>
</linearGradient>
<linearGradient id="paint24_linear" x1="130.743" y1="274.417" x2="1.04303" y2="144.717" gradientUnits="userSpaceOnUse">
<stop stop-color="#EBF0F7" stop-opacity="0"/>
<stop offset="0.21" stop-color="#E5EBF2" stop-opacity="0.02"/>
<stop offset="0.42" stop-color="#D4DBE3" stop-opacity="0.1"/>
<stop offset="0.63" stop-color="#B7C1CA" stop-opacity="0.22"/>
<stop offset="0.84" stop-color="#8E9DA7" stop-opacity="0.39"/>
<stop offset="0.85" stop-color="#8C9BA5" stop-opacity="0.4"/>
</linearGradient>
<linearGradient id="paint25_linear" x1="134.439" y1="270.731" x2="4.73929" y2="141.041" gradientUnits="userSpaceOnUse">
<stop stop-color="#EBF0F7" stop-opacity="0"/>
<stop offset="0.21" stop-color="#E5EBF2" stop-opacity="0.02"/>
<stop offset="0.42" stop-color="#D4DBE3" stop-opacity="0.1"/>
<stop offset="0.63" stop-color="#B7C1CA" stop-opacity="0.22"/>
<stop offset="0.84" stop-color="#8E9DA7" stop-opacity="0.39"/>
<stop offset="0.85" stop-color="#8C9BA5" stop-opacity="0.4"/>
</linearGradient>
<linearGradient id="paint26_linear" x1="139.33" y1="265.83" x2="9.64022" y2="136.14" gradientUnits="userSpaceOnUse">
<stop stop-color="#EBF0F7" stop-opacity="0"/>
<stop offset="0.21" stop-color="#E5EBF2" stop-opacity="0.02"/>
<stop offset="0.42" stop-color="#D4DBE3" stop-opacity="0.1"/>
<stop offset="0.63" stop-color="#B7C1CA" stop-opacity="0.22"/>
<stop offset="0.84" stop-color="#8E9DA7" stop-opacity="0.39"/>
<stop offset="0.85" stop-color="#8C9BA5" stop-opacity="0.4"/>
</linearGradient>
<linearGradient id="paint27_linear" x1="211.325" y1="193.826" x2="81.6337" y2="64.1363" gradientUnits="userSpaceOnUse">
<stop stop-color="#EBF0F7" stop-opacity="0"/>
<stop offset="0.21" stop-color="#E5EBF2" stop-opacity="0.02"/>
<stop offset="0.42" stop-color="#D4DBE3" stop-opacity="0.1"/>
<stop offset="0.63" stop-color="#B7C1CA" stop-opacity="0.22"/>
<stop offset="0.84" stop-color="#8E9DA7" stop-opacity="0.39"/>
<stop offset="0.85" stop-color="#8C9BA5" stop-opacity="0.4"/>
</linearGradient>
<linearGradient id="paint28_linear" x1="207.651" y1="197.509" x2="77.9509" y2="67.8192" gradientUnits="userSpaceOnUse">
<stop stop-color="#EBF0F7" stop-opacity="0"/>
<stop offset="0.21" stop-color="#E5EBF2" stop-opacity="0.02"/>
<stop offset="0.42" stop-color="#D4DBE3" stop-opacity="0.1"/>
<stop offset="0.63" stop-color="#B7C1CA" stop-opacity="0.22"/>
<stop offset="0.84" stop-color="#8E9DA7" stop-opacity="0.39"/>
<stop offset="0.85" stop-color="#8C9BA5" stop-opacity="0.4"/>
</linearGradient>
<linearGradient id="paint29_linear" x1="202.736" y1="202.424" x2="73.0465" y2="72.7237" gradientUnits="userSpaceOnUse">
<stop stop-color="#EBF0F7" stop-opacity="0"/>
<stop offset="0.21" stop-color="#E5EBF2" stop-opacity="0.02"/>
<stop offset="0.42" stop-color="#D4DBE3" stop-opacity="0.1"/>
<stop offset="0.63" stop-color="#B7C1CA" stop-opacity="0.22"/>
<stop offset="0.84" stop-color="#8E9DA7" stop-opacity="0.39"/>
<stop offset="0.85" stop-color="#8C9BA5" stop-opacity="0.4"/>
</linearGradient>
<linearGradient id="paint30_linear" x1="205.46" y1="199.71" x2="75.7598" y2="70.0102" gradientUnits="userSpaceOnUse">
<stop stop-color="#EBF0F7" stop-opacity="0"/>
<stop offset="0.21" stop-color="#E5EBF2" stop-opacity="0.02"/>
<stop offset="0.42" stop-color="#D4DBE3" stop-opacity="0.1"/>
<stop offset="0.63" stop-color="#B7C1CA" stop-opacity="0.22"/>
<stop offset="0.84" stop-color="#8E9DA7" stop-opacity="0.39"/>
<stop offset="0.85" stop-color="#8C9BA5" stop-opacity="0.4"/>
</linearGradient>
<linearGradient id="paint31_linear" x1="197.032" y1="208.128" x2="67.3417" y2="78.4284" gradientUnits="userSpaceOnUse">
<stop stop-color="#EBF0F7" stop-opacity="0"/>
<stop offset="0.21" stop-color="#E5EBF2" stop-opacity="0.02"/>
<stop offset="0.42" stop-color="#D4DBE3" stop-opacity="0.1"/>
<stop offset="0.63" stop-color="#B7C1CA" stop-opacity="0.22"/>
<stop offset="0.84" stop-color="#8E9DA7" stop-opacity="0.39"/>
<stop offset="0.85" stop-color="#8C9BA5" stop-opacity="0.4"/>
</linearGradient>
<linearGradient id="paint32_linear" x1="194.03" y1="211.12" x2="64.34" y2="81.43" gradientUnits="userSpaceOnUse">
<stop stop-color="#EBF0F7" stop-opacity="0"/>
<stop offset="0.21" stop-color="#E5EBF2" stop-opacity="0.02"/>
<stop offset="0.42" stop-color="#D4DBE3" stop-opacity="0.1"/>
<stop offset="0.63" stop-color="#B7C1CA" stop-opacity="0.22"/>
<stop offset="0.84" stop-color="#8E9DA7" stop-opacity="0.39"/>
<stop offset="0.85" stop-color="#8C9BA5" stop-opacity="0.4"/>
</linearGradient>
<linearGradient id="paint33_linear" x1="161.66" y1="243.5" x2="32.0092" y2="113.85" gradientUnits="userSpaceOnUse">
<stop stop-color="#EBF0F7" stop-opacity="0"/>
<stop offset="0.21" stop-color="#E5EBF2" stop-opacity="0.02"/>
<stop offset="0.42" stop-color="#D4DBE3" stop-opacity="0.1"/>
<stop offset="0.63" stop-color="#B7C1CA" stop-opacity="0.22"/>
<stop offset="0.84" stop-color="#8E9DA7" stop-opacity="0.39"/>
<stop offset="0.85" stop-color="#8C9BA5" stop-opacity="0.4"/>
</linearGradient>
<linearGradient id="paint34_linear" x1="156.465" y1="248.695" x2="26.7651" y2="118.995" gradientUnits="userSpaceOnUse">
<stop stop-color="#EBF0F7" stop-opacity="0"/>
<stop offset="0.21" stop-color="#E5EBF2" stop-opacity="0.02"/>
<stop offset="0.42" stop-color="#D4DBE3" stop-opacity="0.1"/>
<stop offset="0.63" stop-color="#B7C1CA" stop-opacity="0.22"/>
<stop offset="0.84" stop-color="#8E9DA7" stop-opacity="0.39"/>
<stop offset="0.85" stop-color="#8C9BA5" stop-opacity="0.4"/>
</linearGradient>
<linearGradient id="paint35_linear" x1="153.246" y1="251.925" x2="23.5548" y2="122.225" gradientUnits="userSpaceOnUse">
<stop stop-color="#EBF0F7" stop-opacity="0"/>
<stop offset="0.21" stop-color="#E5EBF2" stop-opacity="0.02"/>
<stop offset="0.42" stop-color="#D4DBE3" stop-opacity="0.1"/>
<stop offset="0.63" stop-color="#B7C1CA" stop-opacity="0.22"/>
<stop offset="0.84" stop-color="#8E9DA7" stop-opacity="0.39"/>
<stop offset="0.85" stop-color="#8C9BA5" stop-opacity="0.4"/>
</linearGradient>
<linearGradient id="paint36_linear" x1="174.585" y1="230.575" x2="44.8852" y2="100.875" gradientUnits="userSpaceOnUse">
<stop stop-color="#EBF0F7" stop-opacity="0"/>
<stop offset="0.21" stop-color="#E5EBF2" stop-opacity="0.02"/>
<stop offset="0.42" stop-color="#D4DBE3" stop-opacity="0.1"/>
<stop offset="0.63" stop-color="#B7C1CA" stop-opacity="0.22"/>
<stop offset="0.84" stop-color="#8E9DA7" stop-opacity="0.39"/>
<stop offset="0.85" stop-color="#8C9BA5" stop-opacity="0.4"/>
</linearGradient>
<linearGradient id="paint37_linear" x1="179.148" y1="226.022" x2="49.4479" y2="96.3319" gradientUnits="userSpaceOnUse">
<stop stop-color="#EBF0F7" stop-opacity="0"/>
<stop offset="0.21" stop-color="#E5EBF2" stop-opacity="0.02"/>
<stop offset="0.42" stop-color="#D4DBE3" stop-opacity="0.1"/>
<stop offset="0.63" stop-color="#B7C1CA" stop-opacity="0.22"/>
<stop offset="0.84" stop-color="#8E9DA7" stop-opacity="0.39"/>
<stop offset="0.85" stop-color="#8C9BA5" stop-opacity="0.4"/>
</linearGradient>
<linearGradient id="paint38_linear" x1="184.155" y1="220.995" x2="54.4654" y2="91.3045" gradientUnits="userSpaceOnUse">
<stop stop-color="#EBF0F7" stop-opacity="0"/>
<stop offset="0.21" stop-color="#E5EBF2" stop-opacity="0.02"/>
<stop offset="0.42" stop-color="#D4DBE3" stop-opacity="0.1"/>
<stop offset="0.63" stop-color="#B7C1CA" stop-opacity="0.22"/>
<stop offset="0.84" stop-color="#8E9DA7" stop-opacity="0.39"/>
<stop offset="0.85" stop-color="#8C9BA5" stop-opacity="0.4"/>
</linearGradient>
<linearGradient id="paint39_linear" x1="149.55" y1="255.6" x2="19.8602" y2="125.91" gradientUnits="userSpaceOnUse">
<stop stop-color="#EBF0F7" stop-opacity="0"/>
<stop offset="0.21" stop-color="#E5EBF2" stop-opacity="0.02"/>
<stop offset="0.42" stop-color="#D4DBE3" stop-opacity="0.1"/>
<stop offset="0.63" stop-color="#B7C1CA" stop-opacity="0.22"/>
<stop offset="0.84" stop-color="#8E9DA7" stop-opacity="0.39"/>
<stop offset="0.85" stop-color="#8C9BA5" stop-opacity="0.4"/>
</linearGradient>
<linearGradient id="paint40_linear" x1="142.215" y1="262.945" x2="12.5153" y2="133.245" gradientUnits="userSpaceOnUse">
<stop stop-color="#EBF0F7" stop-opacity="0"/>
<stop offset="0.21" stop-color="#E5EBF2" stop-opacity="0.02"/>
<stop offset="0.42" stop-color="#D4DBE3" stop-opacity="0.1"/>
<stop offset="0.63" stop-color="#B7C1CA" stop-opacity="0.22"/>
<stop offset="0.84" stop-color="#8E9DA7" stop-opacity="0.39"/>
<stop offset="0.85" stop-color="#8C9BA5" stop-opacity="0.4"/>
</linearGradient>
<linearGradient id="paint41_linear" x1="138.52" y1="266.641" x2="8.82959" y2="136.94" gradientUnits="userSpaceOnUse">
<stop stop-color="#EBF0F7" stop-opacity="0"/>
<stop offset="0.21" stop-color="#E5EBF2" stop-opacity="0.02"/>
<stop offset="0.42" stop-color="#D4DBE3" stop-opacity="0.1"/>
<stop offset="0.63" stop-color="#B7C1CA" stop-opacity="0.22"/>
<stop offset="0.84" stop-color="#8E9DA7" stop-opacity="0.39"/>
<stop offset="0.85" stop-color="#8C9BA5" stop-opacity="0.4"/>
</linearGradient>
<linearGradient id="paint42_linear" x1="171.372" y1="233.798" x2="41.672" y2="104.108" gradientUnits="userSpaceOnUse">
<stop stop-color="#EBF0F7" stop-opacity="0"/>
<stop offset="0.21" stop-color="#E5EBF2" stop-opacity="0.02"/>
<stop offset="0.42" stop-color="#D4DBE3" stop-opacity="0.1"/>
<stop offset="0.63" stop-color="#B7C1CA" stop-opacity="0.22"/>
<stop offset="0.84" stop-color="#8E9DA7" stop-opacity="0.39"/>
<stop offset="0.85" stop-color="#8C9BA5" stop-opacity="0.4"/>
</linearGradient>
<linearGradient id="paint43_linear" x1="168.36" y1="236.8" x2="38.6602" y2="107.1" gradientUnits="userSpaceOnUse">
<stop stop-color="#EBF0F7" stop-opacity="0"/>
<stop offset="0.21" stop-color="#E5EBF2" stop-opacity="0.02"/>
<stop offset="0.42" stop-color="#D4DBE3" stop-opacity="0.1"/>
<stop offset="0.63" stop-color="#B7C1CA" stop-opacity="0.22"/>
<stop offset="0.84" stop-color="#8E9DA7" stop-opacity="0.39"/>
<stop offset="0.85" stop-color="#8C9BA5" stop-opacity="0.4"/>
</linearGradient>
<linearGradient id="paint44_linear" x1="233.295" y1="171.855" x2="103.605" y2="42.165" gradientUnits="userSpaceOnUse">
<stop stop-color="#EBF0F7" stop-opacity="0"/>
<stop offset="0.21" stop-color="#E5EBF2" stop-opacity="0.02"/>
<stop offset="0.42" stop-color="#D4DBE3" stop-opacity="0.1"/>
<stop offset="0.63" stop-color="#B7C1CA" stop-opacity="0.22"/>
<stop offset="0.84" stop-color="#8E9DA7" stop-opacity="0.39"/>
<stop offset="0.85" stop-color="#8C9BA5" stop-opacity="0.4"/>
</linearGradient>
<linearGradient id="paint45_linear" x1="362.768" y1="180.352" x2="572.788" y2="407.872" gradientUnits="userSpaceOnUse">
<stop offset="0.19" stop-color="white" stop-opacity="0"/>
<stop offset="0.48" stop-color="#F0F8FF" stop-opacity="0.44"/>
<stop offset="0.83" stop-color="#DCEFFE"/>
</linearGradient>
<linearGradient id="paint46_linear" x1="169.369" y1="69.1105" x2="75.4994" y2="-75.0496" gradientUnits="userSpaceOnUse">
<stop stop-color="#EBF0F7" stop-opacity="0"/>
<stop offset="0.21" stop-color="#E5EBF2" stop-opacity="0.02"/>
<stop offset="0.42" stop-color="#D4DBE3" stop-opacity="0.1"/>
<stop offset="0.63" stop-color="#B7C1CA" stop-opacity="0.22"/>
<stop offset="0.84" stop-color="#8E9DA7" stop-opacity="0.39"/>
<stop offset="0.85" stop-color="#8C9BA5" stop-opacity="0.4"/>
</linearGradient>
<linearGradient id="paint47_linear" x1="252.938" y1="285.701" x2="246.488" y2="130.401" gradientUnits="userSpaceOnUse">
<stop stop-color="#1348E4"/>
<stop offset="1" stop-color="#170087"/>
</linearGradient>
<linearGradient id="paint48_linear" x1="292.518" y1="137.944" x2="248.011" y2="137.944" gradientUnits="userSpaceOnUse">
<stop stop-color="#1348E4"/>
<stop offset="1" stop-color="#170087"/>
</linearGradient>
<linearGradient id="paint49_linear" x1="291.29" y1="163.988" x2="252.126" y2="126.771" gradientUnits="userSpaceOnUse">
<stop stop-color="white"/>
<stop offset="1" stop-color="#DCEFFE"/>
</linearGradient>
<linearGradient id="paint50_linear" x1="297.09" y1="49.9848" x2="239.443" y2="49.9848" gradientUnits="userSpaceOnUse">
<stop stop-color="#1348E4"/>
<stop offset="1" stop-color="#170087"/>
</linearGradient>
<linearGradient id="paint51_linear" x1="295.683" y1="83.8304" x2="245.001" y2="35.6616" gradientUnits="userSpaceOnUse">
<stop stop-color="white"/>
<stop offset="1" stop-color="#DCEFFE"/>
</linearGradient>
<linearGradient id="paint52_linear" x1="246.229" y1="82.8334" x2="201.684" y2="82.8334" gradientUnits="userSpaceOnUse">
<stop stop-color="#1348E4"/>
<stop offset="1" stop-color="#170087"/>
</linearGradient>
<linearGradient id="paint53_linear" x1="252.703" y1="78.6801" x2="226.302" y2="80.9304" gradientUnits="userSpaceOnUse">
<stop stop-color="white"/>
<stop offset="1" stop-color="#DCEFFE"/>
</linearGradient>
<linearGradient id="paint54_linear" x1="91.7882" y1="26.0016" x2="321.168" y2="291.291" gradientUnits="userSpaceOnUse">
<stop stop-color="white"/>
<stop offset="1" stop-color="#DCEFFE"/>
</linearGradient>
<linearGradient id="paint55_linear" x1="370.55" y1="197.754" x2="108.98" y2="48.1036" gradientUnits="userSpaceOnUse">
<stop stop-color="#6DC7F7"/>
<stop offset="0.15" stop-color="#65BCF5"/>
<stop offset="0.41" stop-color="#509EF1"/>
<stop offset="0.76" stop-color="#2E6EEA"/>
<stop offset="1" stop-color="#1348E4"/>
</linearGradient>
<linearGradient id="paint56_linear" x1="155.54" y1="84.213" x2="123.319" y2="120.023" gradientUnits="userSpaceOnUse">
<stop stop-color="#1348E4"/>
<stop offset="0.87" stop-color="#61B6F5"/>
<stop offset="1" stop-color="#6DC7F7"/>
</linearGradient>
<linearGradient id="paint57_linear" x1="164.436" y1="92.2047" x2="132.211" y2="128.021" gradientUnits="userSpaceOnUse">
<stop stop-color="#1348E4"/>
<stop offset="0.87" stop-color="#61B6F5"/>
<stop offset="1" stop-color="#6DC7F7"/>
</linearGradient>
<linearGradient id="paint58_linear" x1="174.776" y1="101.509" x2="142.554" y2="137.328" gradientUnits="userSpaceOnUse">
<stop stop-color="#1348E4"/>
<stop offset="0.87" stop-color="#61B6F5"/>
<stop offset="1" stop-color="#6DC7F7"/>
</linearGradient>
<linearGradient id="paint59_linear" x1="157.508" y1="85.9837" x2="125.282" y2="121.801" gradientUnits="userSpaceOnUse">
<stop stop-color="#1348E4"/>
<stop offset="0.87" stop-color="#61B6F5"/>
<stop offset="1" stop-color="#6DC7F7"/>
</linearGradient>
<linearGradient id="paint60_linear" x1="137.411" y1="67.8985" x2="105.185" y2="103.715" gradientUnits="userSpaceOnUse">
<stop stop-color="#1348E4"/>
<stop offset="0.87" stop-color="#61B6F5"/>
<stop offset="1" stop-color="#6DC7F7"/>
</linearGradient>
<linearGradient id="paint61_linear" x1="106.318" y1="162.592" x2="115.331" y2="149.005" gradientUnits="userSpaceOnUse">
<stop stop-color="#1348E4"/>
<stop offset="1" stop-color="#11D6CC"/>
</linearGradient>
<linearGradient id="paint62_linear" x1="140.214" y1="185.074" x2="149.226" y2="171.488" gradientUnits="userSpaceOnUse">
<stop stop-color="#1348E4"/>
<stop offset="1" stop-color="#11D6CC"/>
</linearGradient>
<linearGradient id="paint63_linear" x1="205.337" y1="229.327" x2="216.637" y2="175.877" gradientUnits="userSpaceOnUse">
<stop stop-color="#1348E4"/>
<stop offset="1" stop-color="#11D6CC"/>
</linearGradient>
<linearGradient id="paint64_linear" x1="334.944" y1="209.487" x2="318.574" y2="263.041" gradientUnits="userSpaceOnUse">
<stop stop-color="#1348E4"/>
<stop offset="0.87" stop-color="#61B6F5"/>
<stop offset="1" stop-color="#6DC7F7"/>
</linearGradient>
<linearGradient id="paint65_linear" x1="327.976" y1="207.357" x2="311.606" y2="260.912" gradientUnits="userSpaceOnUse">
<stop stop-color="#1348E4"/>
<stop offset="0.87" stop-color="#61B6F5"/>
<stop offset="1" stop-color="#6DC7F7"/>
</linearGradient>
<linearGradient id="paint66_linear" x1="301.889" y1="277.666" x2="337.061" y2="180.112" gradientUnits="userSpaceOnUse">
<stop stop-color="#BF1738"/>
<stop offset="0.77" stop-color="#4A125E"/>
</linearGradient>
<linearGradient id="paint67_linear" x1="227.876" y1="190.142" x2="254.21" y2="190.257" gradientUnits="userSpaceOnUse">
<stop stop-color="white"/>
<stop offset="1" stop-color="#DCEFFE"/>
</linearGradient>
<linearGradient id="paint68_linear" x1="214.583" y1="223.556" x2="261.573" y2="224.026" gradientUnits="userSpaceOnUse">
<stop stop-color="white"/>
<stop offset="1" stop-color="#DCEFFE"/>
</linearGradient>
<linearGradient id="paint69_linear" x1="227.876" y1="190.142" x2="254.21" y2="190.257" gradientUnits="userSpaceOnUse">
<stop stop-color="white"/>
<stop offset="1" stop-color="#DCEFFE"/>
</linearGradient>
<linearGradient id="paint70_linear" x1="214.583" y1="223.556" x2="261.573" y2="224.026" gradientUnits="userSpaceOnUse">
<stop stop-color="white"/>
<stop offset="1" stop-color="#DCEFFE"/>
</linearGradient>
<linearGradient id="paint71_linear" x1="251.923" y1="213.305" x2="245.073" y2="221.965" gradientUnits="userSpaceOnUse">
<stop stop-color="white"/>
<stop offset="1" stop-color="#DCEFFE"/>
</linearGradient>
<linearGradient id="paint72_linear" x1="216.74" y1="223.871" x2="263.57" y2="223.871" gradientUnits="userSpaceOnUse">
<stop stop-color="#1348E4"/>
<stop offset="0.87" stop-color="#61B6F5"/>
<stop offset="1" stop-color="#6DC7F7"/>
</linearGradient>
<linearGradient id="paint73_linear" x1="252.99" y1="176.961" x2="244.69" y2="185.791" gradientUnits="userSpaceOnUse">
<stop offset="0.47" stop-color="white"/>
<stop offset="1" stop-color="#DCEFFE"/>
</linearGradient>
<linearGradient id="paint74_linear" x1="225.118" y1="190.13" x2="251.388" y2="190.245" gradientUnits="userSpaceOnUse">
<stop stop-color="#1348E4"/>
<stop offset="0.87" stop-color="#61B6F5"/>
<stop offset="1" stop-color="#6DC7F7"/>
</linearGradient>
<linearGradient id="paint75_linear" x1="3.62997" y1="142.164" x2="152.18" y2="251.544" gradientUnits="userSpaceOnUse">
<stop stop-color="white"/>
<stop offset="0.45" stop-color="#F0F8FF" stop-opacity="0.56"/>
<stop offset="1" stop-color="#DCEFFE" stop-opacity="0"/>
</linearGradient>
<linearGradient id="paint76_linear" x1="144.998" y1="239.564" x2="59.0177" y2="184.194" gradientUnits="userSpaceOnUse">
<stop stop-color="white"/>
<stop offset="1" stop-color="#DCEFFE"/>
</linearGradient>
<linearGradient id="paint77_linear" x1="16.0501" y1="167.865" x2="33.6401" y2="167.865" gradientUnits="userSpaceOnUse">
<stop stop-color="#6DC7F7"/>
<stop offset="0.15" stop-color="#65BCF5"/>
<stop offset="0.41" stop-color="#509EF1"/>
<stop offset="0.76" stop-color="#2E6EEA"/>
<stop offset="1" stop-color="#1348E4"/>
</linearGradient>
<linearGradient id="paint78_linear" x1="98.9399" y1="21.8433" x2="187.43" y2="21.8433" gradientUnits="userSpaceOnUse">
<stop offset="0.65" stop-color="#BF1738"/>
<stop offset="1" stop-color="#4A125E"/>
</linearGradient>
<linearGradient id="paint79_linear" x1="98.9399" y1="-0.476696" x2="169.29" y2="-0.476696" gradientUnits="userSpaceOnUse">
<stop stop-color="#143DD5"/>
<stop offset="1" stop-color="#0FD5CC"/>
</linearGradient>
</defs>
</svg>
