<svg id="Layer_1" data-name="Layer 1" xmlns="http://www.w3.org/2000/svg" viewBox="0 0 497.23 69.68"><path d="M148.46,34.93h5.7c3.61,0,5.7-2.08,5.7-4.93,0-3.23-2.28-4.94-5.89-4.94H141.25V18.61h13.29c7.78,0,12.53,4.55,12.53,11.2,0,7.59-5.88,11.39-13.1,11.39h-5.51v9.68h-7.21V35.12Z" style="fill:#1348e4"/><path d="M182.64,34.93A16.78,16.78,0,0,1,199.3,18h.62a16.63,16.63,0,0,1,17.26,16c0,.25,0,.49,0,.73a16.79,16.79,0,0,1-16.66,16.91h-.61a16.63,16.63,0,0,1-17.27-16c0-.25,0-.49,0-.74m27,0a9.89,9.89,0,0,0-9.53-10.24h-.34A9.68,9.68,0,0,0,190,34.36v.38A10,10,0,0,0,199.8,45h.12a9.49,9.49,0,0,0,9.69-9.29c0-.26,0-.52,0-.78" style="fill:#1348e4"/><polygon points="237.51 18.61 244.72 18.61 244.72 44.62 261.05 44.62 261.05 51.07 237.51 51.07 237.51 18.61" style="fill:#1348e4"/><polygon points="287.06 38.35 274.53 18.61 282.88 18.61 290.67 31.71 298.64 18.61 306.8 18.61 294.27 38.16 294.27 51.07 287.06 51.07 287.06 38.35" style="fill:#1348e4"/><polygon points="325.22 18.61 333 18.61 341.55 32.47 350.09 18.61 357.88 18.61 357.88 51.26 350.85 51.26 350.85 29.81 341.74 43.67 341.55 43.67 332.44 29.81 332.44 50.88 325.41 50.88 325.41 18.61 325.22 18.61" style="fill:#1348e4"/><polygon points="397.94 37.59 393.57 26.96 389.2 37.59 386.73 43.86 383.7 51.07 376.48 51.07 390.53 18.23 397.18 18.23 411.23 51.07 403.82 51.07 400.78 43.86 397.94 37.59" style="fill:#1348e4"/><polygon points="433.44 25.25 423.56 25.25 423.56 18.61 450.52 18.61 450.52 25.25 440.65 25.25 440.65 51.26 433.44 51.26 433.44 25.25" style="fill:#1348e4"/><polygon points="490.01 18.61 490.01 31.52 476.73 31.52 476.73 18.61 469.51 18.61 469.51 51.26 476.73 51.26 476.73 38.16 490.01 38.16 490.01 51.26 497.23 51.26 497.23 18.61 490.01 18.61" style="fill:#1348e4"/><polygon points="68.28 0 68.3 0.04 60.58 1.57 35.71 22.15 24 26.08 19.15 31.23 10.39 31.35 6.08 39.41 0 41.16 5.72 42.09 11.09 34.97 19.17 36.59 19.2 44.17 15.07 55.29 12.72 65.57 10.17 69.68 16.72 68.33 15.88 64.06 21.34 52.76 31.88 48.52 35.97 41.74 42.87 36.72 56.76 39.06 70.1 32.86 67.98 42.25 61.73 42.61 60.1 50.67 65.35 47.16 74.03 43.38 80.97 32.78 81.26 27.68 84.92 31.46 95.53 38.11 101.87 35.2 101.2 21.16 99.6 16 107.33 13.73 112.73 7.07 112.51 3.28 111.39 6.44 105.11 11.95 97.81 12.89 96.46 11.65 95.86 11.07 102.05 2.27 110.01 0.07 101.54 0.48 91.21 7.74 81.77 6.95 68.28 0" style="fill:#1348e4"/></svg>