<?xml version="1.0" encoding="utf-8"?>
<!-- Generator: Adobe Illustrator 25.1.0, SVG Export Plug-In . SVG Version: 6.00 Build 0)  -->
<svg version="1.1" id="Layer_1" xmlns="http://www.w3.org/2000/svg" xmlns:xlink="http://www.w3.org/1999/xlink" x="0px" y="0px"
	 viewBox="0 0 340.1 112.5" style="enable-background:new 0 0 340.1 112.5;" xml:space="preserve">
<style type="text/css">
	.st0{fill:none;stroke:#170087;stroke-width:0.5;stroke-linecap:round;stroke-linejoin:round;stroke-miterlimit:10;}
	.st1{fill:url(#SVGID_1_);}
	.st2{fill:url(#SVGID_2_);}
	.st3{fill:url(#SVGID_3_);}
	.st4{fill:url(#SVGID_4_);}
	.st5{fill:url(#SVGID_5_);}
	.st6{fill:url(#SVGID_6_);}
	.st7{fill:url(#SVGID_7_);}
	.st8{fill:url(#SVGID_8_);}
	.st9{fill:url(#SVGID_9_);}
	.st10{fill:url(#SVGID_10_);}
	.st11{fill:url(#SVGID_11_);}
	.st12{fill:url(#SVGID_12_);}
	.st13{fill:url(#SVGID_13_);}
	.st14{fill:url(#SVGID_14_);}
	.st15{fill:url(#SVGID_15_);}
	.st16{fill:url(#SVGID_16_);}
	.st17{fill:url(#SVGID_17_);}
	.st18{fill:url(#SVGID_18_);}
	.st19{fill:url(#SVGID_19_);}
	.st20{fill:url(#SVGID_20_);}
	.st21{fill:url(#SVGID_21_);}
	.st22{fill:url(#SVGID_22_);}
	.st23{fill:url(#SVGID_23_);}
	.st24{fill:url(#SVGID_24_);}
	.st25{fill:url(#SVGID_25_);}
	.st26{fill:url(#SVGID_26_);}
	.st27{fill:url(#SVGID_27_);}
	.st28{fill:url(#SVGID_28_);}
	.st29{fill:#170087;}
</style>
<g>
	<g>
		<g>
			<g>
				<polyline class="st0" points="83.9,47.3 83.9,52 79.8,54.5 75.7,52 71.6,49.7 71.6,44.9 71.6,40.2 75.8,37.7 75.7,42.6 
					71.6,44.9 75.7,47.3 75.7,52 79.8,49.6 83.9,52 88,49.7 88,44.9 83.9,42.6 				"/>
				<polyline class="st0" points="75.7,47.3 79.8,44.9 75.7,42.6 				"/>
				<polyline class="st0" points="79.8,49.6 79.8,44.9 83.9,42.6 83.9,37.8 88,40.2 88,44.9 83.9,47.3 79.8,44.9 79.8,40.2 
					83.9,37.8 79.8,35.5 75.8,37.7 79.8,40.2 				"/>
			</g>
			<g>
				<linearGradient id="SVGID_1_" gradientUnits="userSpaceOnUse" x1="79.821" y1="35.5398" x2="77.4715" y2="50.812">
					<stop  offset="0" style="stop-color:#FF2E72"/>
					<stop  offset="1" style="stop-color:#4A125E"/>
				</linearGradient>
				<circle class="st1" cx="79.8" cy="35.5" r="1.4"/>
				<linearGradient id="SVGID_2_" gradientUnits="userSpaceOnUse" x1="80.5269" y1="35.6484" x2="78.1773" y2="50.9206">
					<stop  offset="0" style="stop-color:#FF2E72"/>
					<stop  offset="1" style="stop-color:#4A125E"/>
				</linearGradient>
				<circle class="st2" cx="79.8" cy="40.2" r="1.5"/>
				<linearGradient id="SVGID_3_" gradientUnits="userSpaceOnUse" x1="84.1635" y1="36.2079" x2="81.8139" y2="51.48">
					<stop  offset="0" style="stop-color:#FF2E72"/>
					<stop  offset="1" style="stop-color:#4A125E"/>
				</linearGradient>
				<circle class="st3" cx="83.9" cy="37.8" r="1.4"/>
				<linearGradient id="SVGID_4_" gradientUnits="userSpaceOnUse" x1="76.1804" y1="34.9797" x2="73.8308" y2="50.2519">
					<stop  offset="0" style="stop-color:#FF2E72"/>
					<stop  offset="1" style="stop-color:#4A125E"/>
				</linearGradient>
				<circle class="st4" cx="75.7" cy="37.8" r="1.4"/>
				<linearGradient id="SVGID_5_" gradientUnits="userSpaceOnUse" x1="84.8701" y1="36.3166" x2="82.5206" y2="51.5888">
					<stop  offset="0" style="stop-color:#FF2E72"/>
					<stop  offset="1" style="stop-color:#4A125E"/>
				</linearGradient>
				<circle class="st5" cx="83.9" cy="42.6" r="1.5"/>
				<linearGradient id="SVGID_6_" gradientUnits="userSpaceOnUse" x1="76.887" y1="35.0884" x2="74.5375" y2="50.3606">
					<stop  offset="0" style="stop-color:#FF2E72"/>
					<stop  offset="1" style="stop-color:#4A125E"/>
				</linearGradient>
				<circle class="st6" cx="75.7" cy="42.6" r="1.5"/>
				<linearGradient id="SVGID_7_" gradientUnits="userSpaceOnUse" x1="81.2392" y1="35.758" x2="78.8896" y2="51.0301">
					<stop  offset="0" style="stop-color:#FF2E72"/>
					<stop  offset="1" style="stop-color:#4A125E"/>
				</linearGradient>
				<circle class="st7" cx="79.8" cy="44.9" r="1.4"/>
				<linearGradient id="SVGID_8_" gradientUnits="userSpaceOnUse" x1="81.945" y1="35.8666" x2="79.5954" y2="51.1387">
					<stop  offset="0" style="stop-color:#FF2E72"/>
					<stop  offset="1" style="stop-color:#4A125E"/>
				</linearGradient>
				<circle class="st8" cx="79.8" cy="49.6" r="1.5"/>
				<linearGradient id="SVGID_9_" gradientUnits="userSpaceOnUse" x1="85.5816" y1="36.4261" x2="83.2321" y2="51.6982">
					<stop  offset="0" style="stop-color:#FF2E72"/>
					<stop  offset="1" style="stop-color:#4A125E"/>
				</linearGradient>
				<circle class="st9" cx="83.9" cy="47.3" r="1.4"/>
				<linearGradient id="SVGID_10_" gradientUnits="userSpaceOnUse" x1="77.5985" y1="35.1979" x2="75.249" y2="50.4701">
					<stop  offset="0" style="stop-color:#FF2E72"/>
					<stop  offset="1" style="stop-color:#4A125E"/>
				</linearGradient>
				<circle class="st10" cx="75.7" cy="47.3" r="1.4"/>
				<linearGradient id="SVGID_11_" gradientUnits="userSpaceOnUse" x1="86.2882" y1="36.5348" x2="83.9387" y2="51.8069">
					<stop  offset="0" style="stop-color:#FF2E72"/>
					<stop  offset="1" style="stop-color:#4A125E"/>
				</linearGradient>
				<circle class="st11" cx="83.9" cy="52" r="1.5"/>
				<linearGradient id="SVGID_12_" gradientUnits="userSpaceOnUse" x1="78.3051" y1="35.3066" x2="75.9556" y2="50.5788">
					<stop  offset="0" style="stop-color:#FF2E72"/>
					<stop  offset="1" style="stop-color:#4A125E"/>
				</linearGradient>
				<circle class="st12" cx="75.7" cy="52" r="1.5"/>
				<linearGradient id="SVGID_13_" gradientUnits="userSpaceOnUse" x1="82.6716" y1="35.9784" x2="80.3221" y2="51.2505">
					<stop  offset="0" style="stop-color:#FF2E72"/>
					<stop  offset="1" style="stop-color:#4A125E"/>
				</linearGradient>
				<circle class="st13" cx="79.8" cy="54.5" r="1.5"/>
				<linearGradient id="SVGID_14_" gradientUnits="userSpaceOnUse" x1="88.5263" y1="36.8791" x2="86.1767" y2="52.1512">
					<stop  offset="0" style="stop-color:#FF2E72"/>
					<stop  offset="1" style="stop-color:#4A125E"/>
				</linearGradient>
				<circle class="st14" cx="88" cy="40.2" r="1.5"/>
				<linearGradient id="SVGID_15_" gradientUnits="userSpaceOnUse" x1="89.2354" y1="36.9882" x2="86.8859" y2="52.2603">
					<stop  offset="0" style="stop-color:#FF2E72"/>
					<stop  offset="1" style="stop-color:#4A125E"/>
				</linearGradient>
				<circle class="st15" cx="88" cy="44.9" r="1.5"/>
				<linearGradient id="SVGID_16_" gradientUnits="userSpaceOnUse" x1="89.9483" y1="37.0979" x2="87.5987" y2="52.37">
					<stop  offset="0" style="stop-color:#FF2E72"/>
					<stop  offset="1" style="stop-color:#4A125E"/>
				</linearGradient>
				<circle class="st16" cx="88" cy="49.7" r="1.5"/>
				<linearGradient id="SVGID_17_" gradientUnits="userSpaceOnUse" x1="72.5237" y1="34.4172" x2="70.1742" y2="49.6893">
					<stop  offset="0" style="stop-color:#FF2E72"/>
					<stop  offset="1" style="stop-color:#4A125E"/>
				</linearGradient>
				<circle class="st17" cx="71.6" cy="40.2" r="1.5"/>
				<linearGradient id="SVGID_18_" gradientUnits="userSpaceOnUse" x1="73.2329" y1="34.5263" x2="70.8834" y2="49.7984">
					<stop  offset="0" style="stop-color:#FF2E72"/>
					<stop  offset="1" style="stop-color:#4A125E"/>
				</linearGradient>
				<circle class="st18" cx="71.6" cy="44.9" r="1.5"/>
				<linearGradient id="SVGID_19_" gradientUnits="userSpaceOnUse" x1="73.9458" y1="34.6359" x2="71.5962" y2="49.9081">
					<stop  offset="0" style="stop-color:#FF2E72"/>
					<stop  offset="1" style="stop-color:#4A125E"/>
				</linearGradient>
				<circle class="st19" cx="71.6" cy="49.7" r="1.5"/>
			</g>
		</g>
		<g>
			<g>
				<g>
					<g>
						<linearGradient id="SVGID_20_" gradientUnits="userSpaceOnUse" x1="42.9412" y1="34.0428" x2="42.9412" y2="78.2949">
							<stop  offset="0" style="stop-color:#FF2E72"/>
							<stop  offset="1" style="stop-color:#4A125E"/>
						</linearGradient>
						<path class="st20" d="M47.5,35.8c-1.5-1-3.5-1.3-6.2-1.3h-5.5v1.6h1.8h3.6c2.4,0,4,0.2,5.2,1c1.1,0.7,1.9,1.9,1.9,3.5
							c0,1.5-0.6,2.7-1.7,3.4c-1,0.7-2.3,1.1-5.3,1.1h-3.6h-1.8v10.3h1.8v-8.8H41c2.9,0,5-0.3,6.6-1.4c1.5-1,2.5-2.7,2.5-4.8
							C50,38.4,49,36.8,47.5,35.8z"/>
						<linearGradient id="SVGID_21_" gradientUnits="userSpaceOnUse" x1="116.6698" y1="34.0428" x2="116.6698" y2="78.2949">
							<stop  offset="0" style="stop-color:#FF2E72"/>
							<stop  offset="1" style="stop-color:#4A125E"/>
						</linearGradient>
						<path class="st21" d="M110.6,34.4h1.8v19.4h10.4v1.6h-12.2V34.4z"/>
						<linearGradient id="SVGID_22_" gradientUnits="userSpaceOnUse" x1="146.9282" y1="34.0428" x2="146.9282" y2="78.2949">
							<stop  offset="0" style="stop-color:#FF2E72"/>
							<stop  offset="1" style="stop-color:#4A125E"/>
						</linearGradient>
						<path class="st22" d="M153.9,34.4h2l-8.1,11.5v9.5h-1.8V46l-8.1-11.5h2.1l3.4,4.8c1.2,1.7,2.4,3.4,3.6,5.1h0.1
							c1.1-1.7,2.4-3.4,3.6-5.1L153.9,34.4z"/>
						<linearGradient id="SVGID_23_" gradientUnits="userSpaceOnUse" x1="185.2096" y1="34.0428" x2="185.2096" y2="78.2949">
							<stop  offset="0" style="stop-color:#FF2E72"/>
							<stop  offset="1" style="stop-color:#4A125E"/>
						</linearGradient>
						<path class="st23" d="M180.2,42c-1-1.5-2.2-3.1-3.1-4.6l-0.1,0c0,1.7,0,3.5,0,5.4v12.6h-1.7v-21h1.7l8.2,11.7l8.2-11.7h1.7v21
							h-1.8V42.8c0-1.8,0-3.7,0-5.4l-0.1,0c-1,1.5-2.1,3.1-3.1,4.6l-5,7.2L180.2,42z"/>
						<linearGradient id="SVGID_24_" gradientUnits="userSpaceOnUse" x1="222.7054" y1="34.0428" x2="222.7054" y2="78.2949">
							<stop  offset="0" style="stop-color:#FF2E72"/>
							<stop  offset="1" style="stop-color:#4A125E"/>
						</linearGradient>
						<path class="st24" d="M216.7,34.4h11.7v1.6h-9.9v7.7h8.7v1.6h-8.7v8.5h10.1v1.6h-11.9V34.4z"/>
						<linearGradient id="SVGID_25_" gradientUnits="userSpaceOnUse" x1="254.8241" y1="34.0428" x2="254.8241" y2="78.2949">
							<stop  offset="0" style="stop-color:#FF2E72"/>
							<stop  offset="1" style="stop-color:#4A125E"/>
						</linearGradient>
						<path class="st25" d="M248.5,52c1.9,1.5,4.3,2.1,6.2,2.1c2.8,0,4.9-1.4,4.9-4.1c0-3.1-2.7-3.8-5.4-4.5c-3-0.8-6-1.9-6-5.8
							c0-3.6,2.6-5.6,6.4-5.6c2,0,4.3,0.6,5.9,1.7v1.9c-1.8-1.3-4-1.9-5.9-1.9c-2.7,0-4.6,1.3-4.6,3.9c0,3,2.6,3.6,5.3,4.3
							c3,0.8,6.2,1.9,6.2,6c0,3.7-2.7,5.8-6.7,5.8c-2.1,0-4.5-0.6-6.2-1.8V52z"/>
						<linearGradient id="SVGID_26_" gradientUnits="userSpaceOnUse" x1="289.8792" y1="34.0428" x2="289.8792" y2="78.2949">
							<stop  offset="0" style="stop-color:#FF2E72"/>
							<stop  offset="1" style="stop-color:#4A125E"/>
						</linearGradient>
						<path class="st26" d="M281.7,34.4h1.8v9.3h12.7v-9.3h1.8v21h-1.8V45.4h-12.7v10.1h-1.8V34.4z"/>
						<g>
							<linearGradient id="SVGID_27_" gradientUnits="userSpaceOnUse" x1="307.8627" y1="33.1575" x2="307.9977" y2="39.8355">
								<stop  offset="0" style="stop-color:#FF2E72"/>
								<stop  offset="1" style="stop-color:#4A125E"/>
							</linearGradient>
							<polygon class="st27" points="306.8,34.9 307.7,34.9 307.7,37.2 308.1,37.2 308.1,34.9 309,34.9 309,34.4 306.8,34.4 							
								"/>
							<linearGradient id="SVGID_28_" gradientUnits="userSpaceOnUse" x1="310.8101" y1="33.0979" x2="310.945" y2="39.7759">
								<stop  offset="0" style="stop-color:#FF2E72"/>
								<stop  offset="1" style="stop-color:#4A125E"/>
							</linearGradient>
							<polygon class="st28" points="312.2,34.4 311.8,34.4 311.7,34.4 310.9,36.4 310,34.4 309.9,34.4 309.5,34.4 309.4,34.4 
								309.4,37.2 309.9,37.2 309.9,35.3 310.7,37.2 311,37.2 311.8,35.3 311.8,37.2 312.3,37.2 312.3,34.4 							"/>
						</g>
					</g>
				</g>
			</g>
			<g>
				<g>
					<path class="st29" d="M176.7,74.6h2c1.3,0,2-0.7,2-1.7c0-1.1-0.8-1.7-2-1.7h-4.4v-2.2h4.6c2.7,0,4.4,1.6,4.4,3.9
						c0,2.6-2,4-4.6,4h-1.9v3.4h-2.5v-5.5L176.7,74.6z"/>
					<path class="st29" d="M198,74.6c0.1-1.9-1.4-3.5-3.3-3.6c0,0-0.1,0-0.1,0c-1.9,0-3.4,1.5-3.4,3.4c0,0,0,0.1,0,0.1
						c0,1.9,1.5,3.5,3.4,3.6c0,0,0,0,0,0c1.8,0,3.3-1.4,3.4-3.2C198,74.8,198,74.7,198,74.6 M188.6,74.6c0-3.2,2.6-5.9,5.8-5.9
						c0.1,0,0.1,0,0.2,0c3.2-0.1,5.9,2.4,6,5.6c0,0.1,0,0.2,0,0.3c0,3.2-2.6,5.9-5.8,5.9c-0.1,0-0.1,0-0.2,0c-3.2,0.1-5.9-2.4-6-5.6
						C188.6,74.7,188.6,74.7,188.6,74.6"/>
					<polygon class="st29" points="207.7,68.9 207.7,80.2 215.9,80.2 215.9,77.9 210.2,77.9 210.2,68.9 					"/>
					<polygon class="st29" points="228.9,68.9 226.2,73.4 223.5,68.9 220.6,68.9 224.9,75.8 224.9,80.2 227.4,80.2 227.4,75.7 
						231.8,68.9 					"/>
					<path class="st29" d="M238.2,68.9L238.2,68.9L238.2,68.9z M246.8,68.9l-3,4.8l-3-4.8h-2.6v11.2h2.4v-7.3l3.2,4.8h0.1l3.2-4.8
						v7.5h2.4V68.9H246.8z"/>
					<polygon class="st29" points="260.9,68.8 256,80.2 258.5,80.2 259.6,77.7 260.4,75.5 262,71.8 263.5,75.5 264.5,77.7 
						265.5,80.2 268.1,80.2 263.2,68.8 					"/>
					<polygon class="st29" points="272.4,68.9 272.4,71.2 275.8,71.2 275.8,80.2 278.3,80.2 278.3,71.2 281.8,71.2 281.8,68.9 					
						"/>
					<polygon class="st29" points="295.5,68.9 295.5,73.4 290.9,73.4 290.9,68.9 288.4,68.9 288.4,80.2 290.9,80.2 290.9,75.7 
						295.5,75.7 295.5,80.2 298,80.2 298,68.9 					"/>
				</g>
			</g>
			<g>
				<path class="st29" d="M149.6,68.9h1.4c0.7,0,1.1,0.1,1.4,0.3c0.4,0.2,0.6,0.5,0.6,1c0,0.5-0.3,0.9-0.7,1v0
					c0.6,0.2,0.9,0.6,0.9,1.2c0,0.5-0.2,0.9-0.6,1.2c-0.4,0.2-0.8,0.3-1.5,0.3h-1.4V68.9z M151.2,71c0.5,0,0.9-0.2,0.9-0.7
					c0-0.3-0.1-0.4-0.3-0.5s-0.4-0.1-0.9-0.1h-0.5V71H151.2z M151,73.1c0.5,0,0.8-0.1,1-0.2c0.2-0.1,0.3-0.3,0.3-0.6
					c0-0.5-0.4-0.7-1-0.7h-0.8v1.5H151z"/>
				<path class="st29" d="M157.7,71.6l-1.9-2.7h1l0.7,1c0.2,0.3,0.4,0.6,0.6,0.9h0c0.2-0.3,0.4-0.6,0.6-0.9l0.7-1h1l-1.9,2.7v2.2
					h-0.9V71.6z"/>
			</g>
		</g>
	</g>
</g>
</svg>
