<svg width="138" height="138" viewBox="0 0 138 138" fill="none" xmlns="http://www.w3.org/2000/svg">
<path d="M68.9801 137.72C106.767 137.72 137.4 107.087 137.4 69.2999C137.4 31.5126 106.767 0.879883 68.9801 0.879883C31.1927 0.879883 0.560059 31.5126 0.560059 69.2999C0.560059 107.087 31.1927 137.72 68.9801 137.72Z" fill="#FCFAFC"/>
<path d="M66.96 91.26C65.13 91.26 63.76 90.7899 62.82 89.8599C61.88 88.9299 61.42 87.7399 61.42 86.2999C61.42 85.8199 61.46 85.3299 61.53 84.8299C61.6 84.3299 61.69 83.8599 61.78 83.4299L66.68 58.14H53.29L54.08 53.24H73.23L66.97 85.7099L68.63 86.3599L82.81 74.09L86.19 77.24L79.64 83.27C77.96 84.85 76.51 86.1399 75.28 87.1499C74.06 88.1599 72.96 88.97 72 89.59C71.04 90.2099 70.16 90.64 69.37 90.88C68.58 91.14 67.78 91.26 66.96 91.26ZM71.86 44.89C70.32 44.89 69.24 44.6 68.62 44.03C68 43.45 67.68 42.7799 67.68 42.0099C67.68 41.7199 67.7 41.41 67.75 41.07C67.8 40.74 67.87 40.35 67.97 39.92C68.16 38.82 68.64 37.96 69.41 37.36C70.18 36.76 71.28 36.46 72.72 36.46C74.26 36.46 75.34 36.75 75.96 37.32C76.58 37.9 76.9 38.57 76.9 39.34C76.9 39.63 76.88 39.94 76.83 40.28C76.78 40.62 76.71 40.9999 76.61 41.4299C76.42 42.5299 75.94 43.39 75.17 43.99C74.4 44.59 73.3 44.89 71.86 44.89Z" fill="#4A125E"/>
</svg>
