<svg width="138" height="138" viewBox="0 0 138 138" fill="none" xmlns="http://www.w3.org/2000/svg">
<path d="M68.9801 137.72C106.767 137.72 137.4 107.087 137.4 69.2999C137.4 31.5125 106.767 0.879883 68.9801 0.879883C31.1927 0.879883 0.560059 31.5125 0.560059 69.2999C0.560059 107.087 31.1927 137.72 68.9801 137.72Z" fill="#FCFAFC"/>
<path d="M80.8901 61.13C80.3001 60.46 79.29 60.38 78.61 60.96L66.4001 71.12L62.0001 65.9099C61.4101 65.2399 60.3901 65.17 59.7101 65.76C59.0501 66.34 58.97 67.35 59.55 68.03L64.6501 74.03C65.4301 74.94 66.8001 75.03 67.7101 74.25L80.7201 63.39C81.4001 62.82 81.4801 61.8 80.8901 61.13C80.9001 61.12 80.8901 61.11 80.8901 61.11V61.13Z" fill="#11D6CC"/>
<path d="M70.2201 36.6901H69.86C55.71 36.8901 44.41 48.5301 44.61 62.6701C44.69 68.5301 46.78 74.1801 50.53 78.6901C51.53 79.9001 52.3301 82.6901 53.1001 85.4501C54.1001 89.0001 55.0501 92.3501 56.7901 94.1601C56.4201 94.6601 56.24 95.2801 56.27 95.9001L57.03 103.24C57.03 107.93 58.1301 111.24 60.3501 113.42C62.9101 115.92 66.53 116.42 69.62 116.42H70.62C74.27 116.32 77.24 116.11 79.62 114.33C82.25 112.33 83.48 108.75 83.49 103.04L84.24 96.0401V95.9601C84.25 95.6201 84.19 95.2801 84.08 94.9601L84.4201 94.5001C86.3001 91.9501 87.2101 88.1801 88.0101 84.8601C88.6601 82.1601 89.28 79.6201 90.21 78.4601C99.13 67.4801 97.4601 51.3401 86.4701 42.4201C81.8801 38.7001 76.1401 36.6701 70.2201 36.6901ZM59.6601 103.19L59.56 102.19C63.16 102.71 66.8001 102.97 70.4401 102.97C73.9201 102.99 77.4101 102.74 80.8501 102.21L80.7901 102.76V102.9C80.7901 103.9 80.75 104.9 80.65 105.9C77.26 106.36 73.85 106.64 70.43 106.73C66.88 106.64 63.33 106.37 59.81 105.9C59.71 105 59.6601 104.1 59.6601 103.19ZM81.36 95.6701C81.4 95.6501 81.46 95.6501 81.5 95.6701C81.51 95.7001 81.51 95.7401 81.5 95.7701L81.1001 99.4901C77.5801 100.09 74.0101 100.4 70.4401 100.39C66.7001 100.39 62.97 100.11 59.28 99.5401L58.8901 95.8001C58.8901 95.7601 58.9101 95.7201 58.9501 95.7001C58.9801 95.6801 59.03 95.6801 59.06 95.7001C61.06 96.1601 69.75 96.0701 70.84 96.0501C71.93 96.0301 79.47 96.1301 81.36 95.6701ZM70.5001 113.75C66.4101 113.86 63.84 113.18 62.18 111.57C61.36 110.72 60.7601 109.69 60.4101 108.57C63.7301 108.98 67.0701 109.23 70.4101 109.3C73.6601 109.23 76.9101 108.98 80.1301 108.56C78.7501 113.54 75.1201 113.63 70.5001 113.75ZM88.1001 76.7501C86.7901 78.3701 86.1001 81.0601 85.3901 84.1801C84.6801 87.3001 83.8001 90.7801 82.2201 92.9201L82.0701 93.1301C81.6401 93.0201 81.18 93.0201 80.75 93.1301C77.46 93.4101 74.17 93.5001 70.87 93.3801C67.23 93.3801 60.9801 93.3801 59.7001 93.0901C59.5101 93.0501 59.3201 93.0301 59.1301 93.0301L58.86 92.8001C57.51 91.6001 56.5301 87.8001 55.6701 84.8001C54.8101 81.8001 53.96 78.7101 52.59 77.0701C44.44 67.3301 45.72 52.8201 55.46 44.6701C59.51 41.2801 64.6001 39.3901 69.8901 39.3101H70.2201C82.9201 39.3101 93.22 49.6101 93.21 62.3201C93.21 67.5801 91.4001 72.6801 88.1001 76.7701V76.7501Z" fill="#11D6CC"/>
<path d="M70.1601 32.39C70.8901 32.39 71.4701 31.81 71.4801 31.08V21.7C71.4201 20.97 70.7801 20.44 70.0501 20.5C69.4101 20.56 68.9101 21.06 68.8501 21.7V31.06C68.8401 31.78 69.4201 32.38 70.1401 32.39C70.1501 32.39 70.1501 32.39 70.1601 32.39Z" fill="#11D6CC"/>
<path d="M51.78 36.39C52.19 37 53 37.16 53.61 36.75C54.16 36.38 54.35 35.66 54.06 35.07L49.38 26.97C49.02 26.34 48.21 26.13 47.59 26.5C46.96 26.86 46.75 27.67 47.11 28.29L51.78 36.39Z" fill="#11D6CC"/>
<path d="M40.9801 47.2799L32.8801 42.5999C32.2501 42.2399 31.4501 42.4499 31.0901 43.0799C30.7301 43.7099 30.9401 44.5099 31.5701 44.8699L39.6701 49.5499C39.8701 49.6699 40.1 49.7299 40.33 49.7299C40.8 49.7299 41.2301 49.4799 41.4701 49.0699C41.8301 48.4499 41.6101 47.6499 40.9801 47.2799C40.9801 47.2899 40.9801 47.2799 40.9801 47.2799Z" fill="#11D6CC"/>
<path d="M109.35 42.8801C108.99 42.2501 108.19 42.0301 107.56 42.3901L99.46 47.0701C98.82 47.4301 98.59 48.2401 98.95 48.8901C99.31 49.5401 100.12 49.7601 100.77 49.4001L108.87 44.7301C109.51 44.3701 109.73 43.5701 109.38 42.9301C109.37 42.9101 109.36 42.9001 109.35 42.8801Z" fill="#11D6CC"/>
<path d="M86.78 36.7599C87.4 37.1199 88.2 36.9199 88.56 36.2999C88.56 36.2899 88.57 36.2899 88.57 36.2799L93.22 28.1799C93.58 27.5499 93.37 26.7499 92.74 26.3899C92.11 26.0299 91.31 26.2399 90.95 26.8699L86.27 34.9699C85.92 35.5999 86.14 36.3999 86.77 36.7499C86.77 36.7599 86.78 36.7599 86.78 36.7599Z" fill="#11D6CC"/>
</svg>
