<svg width="138" height="138" viewBox="0 0 138 138" fill="none" xmlns="http://www.w3.org/2000/svg">
<path d="M60.1901 15.6299L11.8201 99.4199C7.9701 106.09 12.7801 114.42 20.4801 114.42H117.23C124.93 114.42 129.74 106.09 125.89 99.4199L77.5201 15.6299C73.6601 8.95994 64.0401 8.95994 60.1901 15.6299Z" fill="#FCFAFC"/>
<path d="M68.98 91.0399C67.01 91.0399 65.63 90.6299 64.84 89.8199C64.05 89.0099 63.65 87.9698 63.65 86.7198V85.4199C63.65 84.1699 64.05 83.1399 64.84 82.3199C65.63 81.4999 67.01 81.0999 68.98 81.0999C70.95 81.0999 72.33 81.5099 73.12 82.3199C73.91 83.1399 74.31 84.1699 74.31 85.4199V86.7198C74.31 87.9698 73.91 88.9999 73.12 89.8199C72.33 90.6399 70.95 91.0399 68.98 91.0399ZM67.83 73.6199L65.81 54.7599V40.1399H72.15V54.7599L70.13 73.6199H67.83Z" fill="#E745F1"/>
</svg>
